<svg xmlns="http://www.w3.org/2000/svg" viewBox="0 0 530.9 301.34"><defs><style>.cls-1{fill:#fff;}</style></defs><title>Artboard 67</title><g id="Artwork"><path class="cls-1" d="M0,300V229H18.9l26,39.83h.19V229H62.66v71H44.91L17.75,260.27h-.19V300Zm75.91,0V229h50.67v15.93H95.1v11.51h22.46v15H95.1v13.16h33.11V300Zm77.35,0V244.92H132.82V229h60.07v15.93H172.45V300Zm61.51,0-18.9-71h19.29l6,27.93a128.28,128.28,0,0,1,3.07,14.67h.2A140.5,140.5,0,0,1,227.34,257l5.86-28h17.37l6.33,28.11a125.69,125.69,0,0,1,3.17,14.49h.19A133.59,133.59,0,0,1,263,257.3L268.61,229h17.56l-18.43,71h-16L242,255.56h-.2L231.09,300Zm73.13-35.51c0-26,17.76-36.85,34.93-36.85s34.84,10.85,34.84,36.85-17.75,36.85-34.84,36.85S287.9,290.49,287.9,264.49Zm50.58,0c0-13.05-5.67-21-15.65-21s-15.73,8-15.73,21,5.66,21.5,15.73,21.5S338.48,277.54,338.48,264.49ZM367.55,300V229h27.74c18.23,0,29.36,6,29.36,23.12,0,11.13-4.7,17.57-14,20.73L425.71,300H405.36l-13.72-24.66h-5.28V300Zm18.81-39.24h8.25c7.87,0,11.33-2.22,11.33-8.17s-3.46-8.06-11.33-8.06h-8.25ZM436.56,300V229h19.19V254.7L475.33,229h22.26l-23.9,28,26,43H478l-16.79-28.41-5.47,6.34V300Zm73.64,0V288.61h-4v-1.7h9.93v1.7h-4V300Zm8.17,0V286.91H521l3.65,10.52,3.68-10.52h2.6V300H529V290l-3.56,10h-1.64l-3.55-9.93V300ZM118.94,81.83H78.37v-40h40.57a8,8,0,0,1,8,8V73.87a8,8,0,0,1-8,8Zm-31-9.53h29.48V51.38H87.9V72.3Zm32.77,76H78.37v-44.2h42.3a8,8,0,0,1,8,8v28.29a8,8,0,0,1-8,8ZM87.9,138.73h31.2V113.57H87.9v25.16Zm217,3.28H282.52V0H198.27V48.32h22.34V142H198.27v48.32h106.6ZM499.7,64.87V48.17A48.18,48.18,0,0,0,451.53,0H358.67a48.18,48.18,0,0,0-48.18,48.16v94a48.17,48.17,0,0,0,48.18,48.15h92.86a48.16,48.16,0,0,0,48.17-48.15V78H421.36v34.44h16.26v23.25a6.33,6.33,0,0,1-6.34,6.33H378.91a6.33,6.33,0,0,1-6.34-6.33v-81a6.34,6.34,0,0,1,6.34-6.34h52.37a6.34,6.34,0,0,1,6.34,6.34V64.87ZM132.91,9.53l5,0a38.81,38.81,0,0,1,38.53,38.74c0,33.78-32.44,42.1-32.44,42.1v5s39.08,8.63,39.08,45.34a40.09,40.09,0,0,1-40.05,40.05H9.53V151.55H31.87V38.79H9.53V9.53H132.91M138,0H0V48.32H22.34V142H0v48.32H143.07A49.57,49.57,0,0,0,156.5,93.05v-.29A48.27,48.27,0,0,0,138,0V0Z"/></g></svg>