<?xml version="1.0" encoding="UTF-8"?>
<svg width="111px" height="22px" viewBox="0 0 111 22" version="1.1" xmlns="http://www.w3.org/2000/svg" xmlns:xlink="http://www.w3.org/1999/xlink">
    <!-- Generator: Sketch 63.1 (92452) - https://sketch.com -->
    <title>ESPN2</title>
    <desc>Created with Sketch.</desc>
    <g id="Display" stroke="none" stroke-width="1" fill="none" fill-rule="evenodd">
        <g id="SportsFix_ESPN_3B" transform="translate(-151.000000, -135.000000)">
            <g id="ESPN2" transform="translate(151.052444, 135.000000)">
                <g id="Group-19">
                    <path d="M90.6939146,0.0449189873 L106.812303,0.00203291139 C106.812303,0.00203291139 110.318597,-0.16895443 110.061978,2.68547595 L109.250188,10.9485646 C109.250188,10.9485646 108.908308,13.4200835 106.555683,13.4200835 L96.9584494,13.4200835 L96.6789075,16.0614759 L108.736949,16.0614759 L108.13845,21.7681089 L88.1277197,21.7681089 L89.3677677,11.4604127 C89.3677677,11.4604127 89.4949593,8.47927342 92.1900231,8.47927342 L101.724919,8.47927342 L101.93793,5.87993165 L90.0093164,5.87993165 L90.6939146,0.0449189873 Z" id="Fill-1" fill="#EE3F33"></path>
                    <polygon id="Fill-3" fill="#EE4135" points="2.70426073 0.0797291139 21.3899619 0.0847417722 20.6953001 6.18069114 1.93719766 6.18069114"></polygon>
                    <path d="M27.8641251,0.152607595 C31.3474972,0.152607595 59.2793274,0.119468354 61.3661079,0.153721519 C63.4833585,0.186860759 65.149708,1.87529114 65.2031005,4.05356962 C65.2293775,5.08367089 65.0110552,6.19536709 65.0110552,6.19536709 L22.2050782,6.18060759 C22.2050782,6.18060759 22.3621808,5.13212658 22.4994358,4.19977215 C22.7482282,2.49797468 25.0393539,0.148708861 27.8641251,0.152607595" id="Fill-5" fill="#EE4135"></path>
                    <path d="M67.3335735,0.0563367089 C67.3335735,0.0563367089 79.3217294,0.0307164557 83.1931056,0.0477037975 C85.695006,0.0574506329 88.2041744,1.22512152 87.8259541,5.24304557 C87.7138578,6.43466582 87.7465642,6.19767848 87.7465642,6.19767848 L66.6031304,6.18069114 L67.3335735,0.0563367089 Z" id="Fill-7" fill="#EE4135"></path>
                    <path d="M20.597125,21.7713392 L21.2915072,16.0357443 L35.0927721,16.0232127 L35.3488325,13.4809595 C35.3488325,13.4809595 26.6726894,13.5018456 25.2744207,13.4494911 C23.3008546,13.3765291 21.3756493,11.9766051 21.9129289,8.50311139 C25.5875077,8.46802278 36.7241788,8.47164304 37.9692586,8.48361772 C40.4859746,8.50311139 42.6071388,9.86738987 42.4391341,13.3199975 C42.3636578,14.8583266 41.9781695,17.8709342 41.3050325,19.0377696 C39.4961166,22.1531367 36.7756145,21.7331873 36.2618165,21.7713392 C35.8458581,21.789719 20.597125,21.7713392 20.597125,21.7713392" id="Fill-9" fill="#EE4135"></path>
                    <path d="M64.7281588,8.58646076 C64.7281588,8.58646076 64.5254909,9.73185316 64.3787314,10.4753975 C64.0729125,12.0126127 63.1272221,13.4576506 60.9280657,13.4598785 L51.1457752,13.4598785 L49.968065,21.7714228 L42.8872678,21.7714228 L44.568433,8.58646076 L64.7281588,8.58646076 Z" id="Fill-11" fill="#EE4135"></path>
                    <polygon id="Fill-13" fill="#EE4135" points="66.2743891 8.58646076 73.5751858 8.58924557 71.6829664 21.7304861 64.4649141 21.7349418"></polygon>
                    <polygon id="Fill-15" fill="#EE4135" points="80.283158 8.58646076 87.3720619 8.58924557 85.6911762 21.7691949 78.6014337 21.7714228"></polygon>
                    <polygon id="Fill-17" fill="#EE4135" points="1.60792521 8.50325063 20.4127112 8.50325063 19.7454446 13.5451494 8.11230697 13.5571241 7.78300657 16.0233519 19.4167033 16.0358835 18.7228802 21.8071241 0 21.8071241"></polygon>
                </g>
            </g>
        </g>
    </g>
</svg>