<?xml version="1.0" encoding="UTF-8"?>
<svg width="109px" height="22px" viewBox="0 0 109 22" version="1.1" xmlns="http://www.w3.org/2000/svg" xmlns:xlink="http://www.w3.org/1999/xlink">
    <!-- Generator: Sketch 59.1 (86144) - https://sketch.com -->
    <title>Artboard</title>
    <desc>Created with Sketch.</desc>
    <defs>
        <polygon id="path-1" points="0.0001 0.7671 85.1136227 0.7671 85.1136227 22 0.0001 22"></polygon>
    </defs>
    <g id="Artboard" stroke="none" stroke-width="1" fill="none" fill-rule="evenodd">
        <g id="Group-23" transform="translate(1.000000, -0.572100)">
            <mask id="mask-2" fill="white">
                <use xlink:href="#path-1"></use>
            </mask>
            <g id="Clip-22"></g>
            <path d="M2.4671,0.7731 L20.9881,0.7731 L20.1921,6.7711 L1.8191,6.7711 L2.4741,0.7731 L2.4671,0.7731 Z M1.5341,8.9541 L20.0551,8.9541 L19.4431,13.8201 L8.0591,13.8201 L7.6961,16.3301 L19.1161,16.3301 L18.4281,22.0001 L0.0001,22.0001 L1.5341,8.9541 Z M83.0541,21.9971 L76.2051,21.9971 L77.7031,8.9511 L84.6271,8.9511 L83.0501,21.9971 L83.0541,21.9971 Z M69.2751,21.9971 L62.4291,21.9971 L63.9311,8.9511 L70.8591,8.9511 L69.2751,21.9971 Z M64.1701,6.7651 L84.8731,6.7651 C85.8061,2.7531 83.8621,0.7671 81.8361,0.7671 L64.9431,0.7671 L64.1701,6.7651 Z M42.9471,8.9511 L63.1161,8.9511 L62.6751,11.2251 C62.6751,11.2251 62.2301,13.8161 59.1081,13.8161 L49.2231,13.8161 L48.2901,21.9971 L41.4351,21.9971 L42.9371,8.9511 L42.9471,8.9511 Z M20.9481,8.9511 L20.9481,10.8971 C20.9481,12.2071 22.2571,13.8161 24.2691,13.8161 L34.4621,13.8161 L34.1351,16.3161 L20.3361,16.3161 L19.6071,21.9871 L35.7741,21.9871 C37.1321,21.9871 40.2931,20.8901 40.8331,17.6551 C40.8331,17.6551 41.4681,12.3401 41.4881,12.1411 C41.5721,11.1101 40.9411,8.9411 38.1301,8.9411 L20.9481,8.9511 Z M25.7881,0.7701 C24.1521,0.7701 21.3081,2.6191 21.3081,6.7681 L63.3591,6.7681 C63.9281,0.6101 59.5921,0.7701 59.5921,0.7701 L25.7881,0.7701 Z" id="Fill-21" fill="#EF3E33" mask="url(#mask-2)"></path>
        </g>
        <path d="M108.9778,6.0067 C109.5138,1.5327 107.8778,0.3027 103.6238,0.3027 L92.7278,0.3027 L92.1718,5.0437 L102.2628,5.0437 C103.0158,5.0437 103.2448,5.5257 103.1328,6.5457 C103.0158,7.4757 102.7448,8.1827 101.8738,8.1827 L96.1278,8.1827 L95.5488,12.9827 L101.1728,12.9827 C101.9528,12.9827 102.2828,13.4957 102.1348,14.7237 C101.9888,15.9497 101.6548,16.5557 100.7248,16.5557 L91.4918,16.5557 L90.9248,21.2967 L101.0848,21.2967 C107.2658,21.2967 107.5968,17.2137 107.9268,14.6057 C108.1068,13.2247 108.2878,11.6057 106.3958,10.5217 C108.2248,9.7557 108.6468,8.6167 108.9778,6.0067" id="Fill-24" fill="#EF3E33"></path>
    </g>
</svg>