<svg width="67" height="68" xmlns="http://www.w3.org/2000/svg" xmlns:xlink="http://www.w3.org/1999/xlink"><defs><path id="a" d="M0 .06h37v36.812H0z"/></defs><g fill="none" fill-rule="evenodd"><ellipse cx="33.244" cy="34" rx="32.244" ry="33" transform="translate(.342)" fill="#1D4289" stroke="#FFF" stroke-width="2"/><g transform="translate(16 16.003)"><mask id="b" fill="#fff"><use xlink:href="#a"/></mask><path d="M33.168.06H3.83C1.717.06 0 1.772 0 3.87v29.187a3.827 3.827 0 003.83 3.815h29.331c2.114 0 3.839-1.712 3.839-3.815V3.87c0-2.1-1.72-3.81-3.832-3.81" fill="#1D4289" mask="url(#b)"/></g><path d="M28.122 48.511c-.47-.417-.156-.594-.175-.759-.31-1.275-1.329-2.046-.802-2.467-.13-.42-.394-.95-.384-.949-1.587-.906-2.938-2.378-3.167-2.594-.278-.3-.752-.602-.841-.847-.381-.348-2.252-2.987-2.687-3.959l-.759-.106c-.345-1.403-1.497-2.579-1.526-3.986-.01-.531.242-1.67.337-1.898.092-.23.533-.609.533-.609v-.376c-1.655.047-1.18-.121-1.465-.762-.2-.443-.056-.54.016-.848.222-.907.96-2.307 1.265-2.943.094-.321.413-1.095.413-1.095 1.234-2.5 1.694-2.315 3.16-2.456l.072-.104c1.468-.063 1.228-.173 1.435-1.58-.214.09-.278-.441-.278-.441-.116-.801.223-.65.384-.665.035-1.317.17-1.731 1.125-2.094h-4.946a2.921 2.921 0 00-2.93 2.914V49.07c0 1.61 1.312 2.915 2.93 2.915h8.662c-.991-.533-.406-1.548-.372-3.475" fill="#FFF"/><path d="M49.163 16.973H25.695c.45.159.703.347.852.645.361.03.791.836.122 2.027.296.196.065.49-.148.83-.062.11-.13.304-.328.291-.255.532-.562 1.048-.794 1.08-.07.086-.12.315-.015.423.34.152.756.36.961.554l.01.125c.264.153.397.278.664.448.707.442 1.577 1.229 1.467 3.94.198.59.285 1.751.468 2.124.368.726.614 1.198.722 1.883 0 0 .1.996.231 1.13.025.01.051.018.076.029.593.14.49.21.542.313.052.039.103.079.151.12.167.079.406.148.406.442l.01.016c.046.065.09.133.13.202.077.128.145.257.197.39v.027c.104.284.164.59.164.91 0 .32-.06.625-.164.909v.065a2.59 2.59 0 01-1.177 1.318l-.057.03c-.03.016-.06.03-.09.044a2.57 2.57 0 01-1.116.256 2.613 2.613 0 01-2.604-2.622c0-1.233.846-2.265 1.984-2.545-.305-.751-.925-1.936-1.11-2.329-.179-.395-.61-2.865-.702-3.353-.022-.107-1.127.638-1.129.684-.064.062-.829 2.048-.861 2.155-.015.068-.017.334-.017.334s.376.046.592.699c.214.651.867 3.03.867 3.03s-.177.182-.184.17c.824 2.747.536 3.929.906 4.734.465 1.135.59.986.99 1.94.286.695.605 3.43.712 3.55.445.562.684 1 .684 1.317 0 .319-.377 1.26-.24 1.809.084.323.128 1.046.279 1.183 0 0 .138.272.07.393-.02.041-.059.104-.041.154.245.859 1.03 2.32-.232 3.093l-.077.046h20.318a2.9 2.9 0 002.908-2.893V19.888c0-1.61-1.31-2.915-2.93-2.915" fill="#FFF"/><path d="M32.355 26.558h2.203V45.03h2.856V26.558h2.232v-2.665h-7.29v2.665zm16.247-2.65h-2.946l-.654 10.628-.447 7.017-.446-6.928-.685-10.717H40.36l2.232 21.138h3.72l2.291-21.138zM19.366 50.156h-.62v-5.288h.98l.79 4.333c-.067-1.037-.156-2.289-.156-3.355v-.978h.62v5.288h-.9l-.788-4.237c.052.978.074 1.756.074 2.57v1.667zm5.451-4.696h-.036c-.045.637-.133 1.756-.163 2.111l-.08.911h.552l-.081-.91c-.03-.363-.133-1.467-.192-2.112zm.318 3.622h-.642l-.088 1.074h-.715l.641-5.288h1.017l.619 5.288h-.744l-.088-1.074zm-2.955-3.548v1.748h.265c.25 0 .317-.089.317-.377V45.89c0-.245-.074-.356-.31-.356h-.272zm0 2.326v1.63h.273c.243 0 .31-.126.31-.378v-.896c0-.26-.082-.356-.318-.356h-.265zm-.707 2.296v-5.288h1.031c.597 0 .965.318.965 1.06v.784c0 .481-.147.726-.354.845.207.14.354.378.354.777v.771c0 .726-.39 1.051-.965 1.051h-1.031z" fill="#1D4289"/></g></svg>