<?xml version="1.0" encoding="UTF-8"?>
<svg width="27px" height="27px" viewBox="0 0 27 27" version="1.1" xmlns="http://www.w3.org/2000/svg" xmlns:xlink="http://www.w3.org/1999/xlink">
    <!-- Generator: Sketch 59.1 (86144) - https://sketch.com -->
    <title>CNN</title>
    <desc>Created with Sketch.</desc>
    <defs>
        <polygon id="path-1" points="0.0438808511 0.0810666667 13.5364766 0.0810666667 13.5364766 6.56263822 0.0438808511 6.56263822"></polygon>
    </defs>
    <g id="Page-1" stroke="none" stroke-width="1" fill="none" fill-rule="evenodd">
        <g id="SLING_BRA1101_Election_Display_General_Election_300x50_Frame_1" transform="translate(-219.000000, -13.000000)">
            <g id="CNN" transform="translate(221.000000, 15.000000)">
                <circle id="Oval" stroke="#FFFFFF" stroke-width="2" fill="#CC0000" cx="11.5" cy="11.5" r="12.5"></circle>
                <g id="Programming/Logo/CNN" transform="translate(2.875000, 7.475000)">
                    <g>
                        <path d="M15.9622638,6.48999111 C15.9622638,7.92359111 14.1881362,8.61212444 13.2494128,6.94652444 C13.1816681,6.82616889 11.7028596,4.16536889 11.7028596,4.16536889 L11.7028596,6.48999111 C11.7028596,7.92359111 9.92890213,8.61212444 8.99017872,6.94652444 C8.9219234,6.82616889 7.44345532,4.16536889 7.44345532,4.16536889 L7.44345532,6.35665778 C7.4444766,7.35132444 6.87766809,7.89070222 5.9964766,7.89016889 L3.67834894,7.89016889 C1.64685957,7.89016889 5.10638298e-05,6.17016889 5.10638298e-05,4.04856889 C5.10638298e-05,1.92661333 1.64685957,0.206613333 3.67834894,0.206613333 L4.8698383,0.206613333 L4.8698383,1.12910222 L3.67732766,1.12910222 C2.13605106,1.12910222 0.882093617,2.43861333 0.882093617,4.04856889 C0.882093617,5.65816889 2.13605106,6.96785778 3.67732766,6.96785778 L5.97315745,6.96785778 C6.28481702,6.96785778 6.55800851,6.68270222 6.55800851,6.35772444 L6.55834894,1.63381333 C6.55834894,1.52039111 6.62762553,1.46048 6.68685957,1.44341333 C6.78081702,1.41692444 6.88005106,1.47754667 6.95222128,1.60554667 C6.96532766,1.62865778 7.68617872,2.92679111 8.38354043,4.18225778 C9.21588085,5.68128 9.76243404,6.66474667 9.7699234,6.67825778 C9.95579574,7.00839111 10.2342638,7.06545778 10.4327319,7.00928 C10.6652426,6.94296889 10.8216681,6.72341333 10.8216681,6.46296889 L10.8216681,1.63399111 C10.8216681,1.52003556 10.8902638,1.46012444 10.9489872,1.44323556 C11.041583,1.41710222 11.1396255,1.47772444 11.2117957,1.60554667 C11.2240511,1.62759111 11.8921362,2.83025778 12.5382638,3.99345778 C13.4337532,5.60608 14.0214979,6.66421333 14.0293277,6.67825778 C14.1753702,6.93728 14.3777532,7.02812444 14.554434,7.02812444 C14.6027745,7.02812444 14.6494128,7.02119111 14.6921362,7.00928 C14.924817,6.94296889 15.0810723,6.72323556 15.0810723,6.46296889 L15.0810723,0.206613333 L15.9622638,0.206613333 L15.9622638,6.48999111 Z" id="Fill-1" fill="#FFFFFF"></path>
                        <g id="Group-5" transform="translate(1.191489, 0.096729)">
                            <mask id="mask-2" fill="white">
                                <use xlink:href="#path-1"></use>
                            </mask>
                            <g id="Clip-4"></g>
                            <path d="M4.13239149,5.32017778 L4.13239149,1.50986667 C4.1325617,0.0762666667 5.90634894,-0.612088889 6.84524255,1.05351111 C6.91315745,1.17404444 8.39179574,3.83484444 8.39179574,3.83484444 L8.39179574,1.50986667 C8.39179574,0.0762666667 10.1657532,-0.612088889 11.1046468,1.05351111 C11.1725617,1.17404444 12.6512,3.83484444 12.6512,3.83484444 L12.6512,0.109866667 L13.5364766,0.109866667 L13.5364766,6.36622222 C13.5364766,6.47964444 13.4670298,6.53955556 13.4076255,6.55644444 C13.3136681,6.58311111 13.214434,6.52266667 13.1422638,6.39448889 C13.1281362,6.36924444 12.3778383,5.01831111 11.6522213,3.71164444 C10.8316255,2.23448889 10.3330723,1.33635556 10.3247319,1.32195556 C10.1388596,0.992 9.8619234,0.934577778 9.66464681,0.990577778 C9.43281702,1.05671111 9.27724255,1.27626667 9.27707234,1.53706667 L9.27707234,6.36622222 C9.27707234,6.47964444 9.20745532,6.53955556 9.14822128,6.55644444 C9.05426383,6.58311111 8.95502979,6.52266667 8.88302979,6.39448889 C8.87026383,6.37208889 8.17239149,5.11555556 7.49766809,3.90044444 C6.63809362,2.35271111 6.07400851,1.33706667 6.06532766,1.32195556 C5.87928511,0.991644444 5.60098723,0.9344 5.40234894,0.990755556 C5.1698383,1.05724444 5.01341277,1.27662222 5.01341277,1.53706667 L5.01341277,6.26097778 C5.01341277,6.37013333 4.91009362,6.50204444 4.78175319,6.50204444 L2.48575319,6.50204444 C1.13937021,6.50204444 0.0438808511,5.35804444 0.0438808511,3.95182222 C0.0438808511,2.54542222 1.13937021,1.40124444 2.48575319,1.40124444 L3.67826383,1.40124444 L3.67826383,2.32373333 L2.49545532,2.32373333 C1.63468936,2.32373333 0.936646809,3.05244444 0.936646809,3.95164444 C0.936646809,4.85066667 1.63468936,5.57973333 2.49545532,5.57973333 L3.88796596,5.57973333 C4.03315745,5.57955556 4.13290213,5.45866667 4.13239149,5.32017778" id="Fill-3" fill="#FFFFFF" mask="url(#mask-2)"></path>
                        </g>
                    </g>
                </g>
            </g>
        </g>
    </g>
</svg>