<?xml version="1.0" encoding="UTF-8"?>
<svg width="27px" height="27px" viewBox="0 0 27 27" version="1.1" xmlns="http://www.w3.org/2000/svg" xmlns:xlink="http://www.w3.org/1999/xlink">
    <!-- Generator: Sketch 59.1 (86144) - https://sketch.com -->
    <title>Fox News</title>
    <desc>Created with Sketch.</desc>
    <defs>
        <polygon id="path-1" points="0 13.9135802 13.9542209 13.9135802 13.9542209 0.0487407407 0 0.0487407407"></polygon>
    </defs>
    <g id="Page-1" stroke="none" stroke-width="1" fill="none" fill-rule="evenodd">
        <g id="SLING_BRA1101_Election_Display_General_Election_300x50_Frame_1" transform="translate(-158.000000, -12.000000)">
            <g id="Fox-News" transform="translate(160.000000, 14.000000)">
                <circle id="Oval" stroke="#FFFFFF" stroke-width="2" fill="#23428F" cx="11.5" cy="11.5" r="12.5"></circle>
                <g id="Programming/Logo/Fox-News" transform="translate(4.600000, 4.600000)">
                    <g>
                        <polygon id="Fill-1" fill="#FFFFFF" points="0 13.9512593 13.9542209 13.9512593 13.9542209 0.0864197531 0 0.0864197531"></polygon>
                        <polygon id="Fill-2" fill="#BC212F" points="13.6697718 13.6604914 13.6662503 11.3504049 0.289207362 11.3553309 0.289207362 13.6607506"></polygon>
                        <g id="Group-29" transform="translate(0.000000, 0.037679)">
                            <path d="M1.50729325,13.0830691 C1.10266748,13.0830691 0.837955828,12.8935506 0.837955828,12.609921 C0.837955828,12.3007111 1.10773497,12.114563 1.53022577,12.114563 C1.90178405,12.114563 2.1409865,12.2478222 2.16907239,12.4681926 L1.72364908,12.4681926 C1.69822577,12.3844519 1.63200491,12.3417605 1.52764908,12.3417605 C1.37493742,12.3417605 1.29351411,12.4306 1.29351411,12.6013654 C1.29351411,12.7671185 1.36737914,12.8490444 1.5225816,12.8490444 C1.63715828,12.8490444 1.70586994,12.8063531 1.73129325,12.7176 L2.16649571,12.7176 C2.12320736,12.9481679 1.87893742,13.0830691 1.50729325,13.0830691" id="Fill-3" fill="#FFFFFF"></path>
                            <path d="M5.16271902,12.7054535 C5.06343067,12.7250224 5.01765153,12.7535191 5.01765153,12.8106027 C5.01765153,12.8765239 5.08120982,12.9228761 5.18049816,12.9228761 C5.33071902,12.9228761 5.43756564,12.8569549 5.43756564,12.7571263 L5.43756564,12.6483699 C5.36120982,12.6822773 5.26192147,12.6857943 5.16271902,12.7054535 L5.16271902,12.7054535 Z M5.47320982,13.0940367 C5.46307485,13.0637364 5.45543067,13.0316326 5.4502773,12.9959215 C5.32556564,13.0833054 5.18814233,13.124337 5.02014233,13.124337 C4.75543067,13.124337 4.59765153,13.013777 4.59765153,12.8463138 C4.59765153,12.6875979 4.71729571,12.5912863 4.95658405,12.5521484 C5.26956564,12.5004756 5.43756564,12.5147239 5.43756564,12.4415884 L5.43756564,12.4184122 C5.43756564,12.3632224 5.37649816,12.3347257 5.26192147,12.3347257 C5.13471902,12.3347257 5.06085399,12.3721502 5.04307485,12.4415884 L4.63587239,12.4415884 C4.67916074,12.2259693 4.8877865,12.124337 5.27214233,12.124337 C5.50885399,12.124337 5.6742773,12.1635651 5.76841227,12.2473418 C5.85241227,12.3239944 5.85747975,12.4202158 5.85747975,12.5503448 L5.85747975,12.9086278 C5.85747975,12.9924045 5.87783558,13.0422737 5.92370061,13.0583257 L5.92370061,13.0940367 L5.47320982,13.0940367 Z" id="Fill-5" fill="#FFFFFF"></path>
                            <path d="M6.59109693,12.1478951 L7.02380859,12.1478951 L7.02380859,12.2725988 C7.11536687,12.1734753 7.24780859,12.1256852 7.43358773,12.1256852 C7.76185767,12.1256852 7.88407853,12.2333642 7.88407853,12.4655741 L7.88407853,13.0549568 L7.4412319,13.0549568 L7.4412319,12.5988333 C7.4412319,12.4314383 7.43101104,12.3511543 7.25536687,12.3511543 C7.09501104,12.3511543 7.03136687,12.4212407 7.03136687,12.5697963 L7.03136687,13.0549568 L6.59109693,13.0549568 L6.59109693,12.1478951 Z" id="Fill-7" fill="#FFFFFF"></path>
                            <path d="M2.72920982,11.8406988 L3.17205644,11.8406988 L3.17205644,12.2797111 C3.27383558,12.182316 3.40370061,12.1378963 3.58690307,12.1378963 C3.86939387,12.1378963 4.02219141,12.2437605 4.02219141,12.4453778 L4.02219141,13.0688099 L3.5792589,13.0688099 L3.5792589,12.6127728 C3.5792589,12.4453778 3.56912393,12.3650074 3.39347975,12.3650074 C3.23320982,12.3650074 3.16947975,12.4350938 3.16947975,12.5837358 L3.16947975,13.0688099 L2.72920982,13.0688099 L2.72920982,11.8406988 Z" id="Fill-9" fill="#FFFFFF"></path>
                            <path d="M8.68209571,12.1478951 L9.11472147,12.1478951 L9.11472147,12.2725988 C9.20636564,12.1734753 9.33872147,12.1256852 9.52450061,12.1256852 C9.85285644,12.1256852 9.97499141,12.2333642 9.97499141,12.4655741 L9.97499141,13.0549568 L9.53214479,13.0549568 L9.53214479,12.5988333 C9.53214479,12.4314383 9.52200982,12.3511543 9.34636564,12.3511543 C9.18600982,12.3511543 9.12236564,12.4212407 9.12236564,12.5697963 L9.12236564,13.0549568 L8.68209571,13.0549568 L8.68209571,12.1478951 Z" id="Fill-11" fill="#FFFFFF"></path>
                            <path d="M11.5185043,12.518047 C11.5159276,12.3959123 11.419216,12.3251745 11.2665043,12.3251745 C11.1240135,12.3251745 11.0323693,12.3924202 11.0145902,12.518047 L11.5185043,12.518047 Z M11.9206393,12.7924023 C11.8417067,12.9976315 11.5999276,13.1162741 11.2537926,13.1162741 C10.8364552,13.1162741 10.5742344,12.9286845 10.5742344,12.6224524 C10.5742344,12.3073557 10.8415227,12.1162741 11.2537926,12.1162741 C11.6788601,12.1162741 11.9434859,12.3091466 11.9434859,12.6366 C11.9434859,12.6543292 11.9434859,12.6737597 11.9409951,12.691489 L11.0273018,12.691489 C11.0273018,12.8241895 11.1113018,12.8950169 11.269081,12.8950169 C11.3886393,12.8950169 11.4649951,12.8595585 11.4955718,12.7924023 L11.9206393,12.7924023 Z" id="Fill-13" fill="#FFFFFF"></path>
                            <mask id="mask-2" fill="white">
                                <use xlink:href="#path-1"></use>
                            </mask>
                            <g id="Clip-16"></g>
                            <polygon id="Fill-15" fill="#FFFFFF" mask="url(#mask-2)" points="12.5524172 13.0688272 12.9952638 13.0688272 12.9952638 11.840716 12.5524172 11.840716"></polygon>
                            <path d="M0.296155828,1.84752469 L0.287395092,1.85054938 L0.287395092,10.9107963 L2.27994724,1.36798148 C1.60425399,1.46321605 0.940155828,1.62343827 0.296155828,1.84752469" id="Fill-17" fill="#23428F" mask="url(#mask-2)"></path>
                            <path d="M13.6426736,7.99948765 C13.4932258,7.63082099 13.3241951,7.27433951 13.1389313,6.92987037 L13.3041828,6.92987037 C13.4345632,7.17616667 13.556011,7.42833951 13.6684405,7.68569753 L13.6693853,0.338722222 L7.13404785,0.338722222 L6.42992515,1.45889506 C7.52424417,1.74295679 8.57286994,2.20167284 9.54350798,2.82752469 C9.73469816,2.95075926 9.92116442,3.07978395 10.1033362,3.21390741 L9.85064908,3.21390741 C8.79352025,2.46741358 7.60712761,1.9136358 6.34686994,1.59111728 L5.33002331,3.20872222 L4.67202331,3.20872222 L4.67202331,4.25561111 L2.7977411,7.23735185 L2.19694356,7.23735185 L2.19453865,8.19704321 L0.373679755,11.0939198 L13.668011,11.0924506 L13.6684405,8.06257407 L13.6426736,7.99948765 Z" id="Fill-18" fill="#23428F" mask="url(#mask-2)"></path>
                            <path d="M4.95453129,1.33369012 C4.53796687,1.2854679 4.1160773,1.26187531 3.69066626,1.26438148 L0.301120245,11.0938506 L0.314690798,11.0938506 L4.95453129,1.33369012 Z" id="Fill-19" fill="#23428F" mask="url(#mask-2)"></path>
                            <path d="M5.42751656,0.338722222 L4.00982331,0.338722222 L3.74107485,1.1182284 C4.17120982,1.1177963 4.59842454,1.14311728 5.02117301,1.1935 L5.42751656,0.338722222 Z" id="Fill-20" fill="#23428F" mask="url(#mask-2)"></path>
                            <path d="M2.31213006,1.21360123 L2.49481718,0.338687654 L0.287455215,0.338687654 L0.287455215,1.68986049 C0.944768098,1.46551481 1.62269448,1.30615679 2.31213006,1.21360123" id="Fill-21" fill="#23428F" mask="url(#mask-2)"></path>
                            <polygon id="Fill-22" fill="#FFFFFF" mask="url(#mask-2)" points="4.81228098 6.79388025 4.81228098 3.34979383 6.94912761 3.34979383 7.01474724 4.29150988 5.81873497 4.29150988 5.81873497 4.74089259 6.79315215 4.74089259 6.79315215 5.68044815 5.81066135 5.68044815 5.81014601 6.79388025"></polygon>
                            <polygon id="Fill-23" fill="#FFFFFF" mask="url(#mask-2)" points="13.1481387 6.78877284 12.0864577 5.0018716 13.0419791 3.35497037 11.9441387 3.35497037 11.5328994 4.07035309 11.1078319 3.35497037 10.0072429 3.35497037 10.9909362 5.01345185 9.97048221 6.78877284 11.0502 6.78782222 11.5413166 5.94134074 12.0439423 6.78877284"></polygon>
                            <path d="M6.96506012,5.09117778 C6.96506012,4.1322642 7.74991902,3.35491852 8.71815215,3.35491852 C9.68638528,3.35491852 10.4711583,4.1322642 10.4711583,5.09117778 C10.4711583,6.05009136 9.68629939,6.82743704 8.71815215,6.82743704 C7.74991902,6.82743704 6.96506012,6.05009136 6.96506012,5.09117778 M9.0224589,5.79835062 L9.02872883,4.33448642 C9.02872883,4.16743704 8.88142822,4.01801728 8.71282699,4.01801728 C8.54422577,4.01801728 8.40783313,4.16743704 8.40783313,4.33448642 L8.40748957,5.79402963 C8.40748957,5.96107901 8.54413988,6.09641235 8.71282699,6.09641235 C8.88142822,6.09641235 9.0224589,5.96531358 9.0224589,5.79835062" id="Fill-24" fill="#FFFFFF" mask="url(#mask-2)"></path>
                            <polygon id="Fill-25" fill="#FFFFFF" mask="url(#mask-2)" points="5.16112147 7.36471728 7.18734233 7.36471728 7.18734233 8.09902593 5.94761227 8.09902593 5.94761227 8.56145802 6.96652025 8.56145802 6.96652025 9.24132222 5.94761227 9.24132222 5.94761227 9.77626049 7.20280245 9.77626049 7.20280245 10.5105691 5.16112147 10.5105691"></polygon>
                            <polygon id="Fill-26" fill="#FFFFFF" mask="url(#mask-2)" points="7.3402773 7.36471728 8.14360245 7.36471728 8.52160245 9.2005321 8.88397055 7.36471728 9.5572589 7.36471728 9.93920982 9.18238395 10.3290626 7.36471728 10.9788172 7.36471728 10.2463509 10.5105691 9.52968834 10.5105691 9.15950429 8.72003827 8.80117301 10.5105691 8.06870675 10.5105691"></polygon>
                            <path d="M11.5826294,9.41094691 C11.6409485,9.6738358 11.8079178,9.80528025 12.0991693,9.80528025 C12.2895006,9.80528025 12.4021018,9.7101321 12.4021018,9.58767531 C12.4021018,9.35658889 12.2117706,9.36557654 11.8545558,9.25677407 C11.2447399,9.07546543 10.9495374,8.82165062 10.9495374,8.30494691 C10.9495374,7.70657654 11.3884331,7.26237901 12.1068994,7.26237901 C12.6351202,7.26237901 13.0041018,7.5388358 13.1750221,8.05104568 L12.487562,8.28221852 C12.4059669,8.05553951 12.2739546,7.9649716 12.0526172,7.9649716 C11.889427,7.9649716 11.7768258,8.06919383 11.7768258,8.1915642 C11.7768258,8.37745309 11.951611,8.38652716 12.2700896,8.47718148 C12.5342,8.55418148 12.7788135,8.6041321 12.9886417,8.79900864 C13.1594761,8.95758889 13.2488012,9.18884815 13.2488012,9.46988519 C13.2488012,9.73277407 13.155611,9.98209506 12.9846908,10.1678975 C12.7633534,10.4082309 12.4526049,10.5396753 12.0836233,10.5396753 C11.4001141,10.5396753 10.9534025,10.1860457 10.8252552,9.57860123 L11.5826294,9.41094691 Z" id="Fill-27" fill="#FFFFFF" mask="url(#mask-2)"></path>
                            <polygon id="Fill-28" fill="#FFFFFF" mask="url(#mask-2)" points="4.18245276 7.37699753 4.18245276 8.95778765 3.24264908 7.37846667 2.33685767 7.37846667 2.32904172 10.5083309 3.13004785 10.5066025 3.13004785 8.69351605 4.20289448 10.5083309 4.96052638 10.5083309 4.96052638 7.37846667"></polygon>
                        </g>
                    </g>
                </g>
            </g>
        </g>
    </g>
</svg>