<?xml version="1.0" encoding="UTF-8"?>
<svg width="60px" height="61px" viewBox="0 0 60 61" version="1.1" xmlns="http://www.w3.org/2000/svg" xmlns:xlink="http://www.w3.org/1999/xlink">
    <!-- Generator: Sketch 59.1 (86144) - https://sketch.com -->
    <title>MSNBC</title>
    <desc>Created with Sketch.</desc>
    <g id="Page-1" stroke="none" stroke-width="1" fill="none" fill-rule="evenodd">
        <g id="SLING_BRA1101_Election_Display_Debate_B_300x600_Frame_1" transform="translate(-120.000000, -373.000000)">
            <g id="MSNBC" transform="translate(122.000000, 375.500000)">
                <circle id="Oval-Copy" stroke="#FFFFFF" stroke-width="2" fill="#001744" cx="28" cy="28" r="29"></circle>
                <g id="Programming/Logo/MSNBC" transform="translate(8.400000, 11.200000)">
                    <g>
                        <g id="MSNBC" transform="translate(0.000000, 24.356415)" fill="#FFFFFF">
                            <polygon id="Fill-1" points="6.23660205 0.198812195 4.08774571 3.67522683 1.9388166 0.198812195 2.18283582e-05 0.198812195 2.18283582e-05 8.41990976 1.76346213 8.41990976 1.76346213 3.08795854 4.0408875 6.56437317 4.08774571 6.56437317 6.38823638 3.0525439 6.38823638 8.41990976 8.17532407 8.41990976 8.17532407 0.198812195"></polygon>
                            <path d="M8.70001231,7.22219268 L9.76268955,5.94199756 C10.498669,6.55275366 11.2695011,6.94026585 12.2038276,6.94026585 C12.9394433,6.94026585 13.3834321,6.64670488 13.3834321,6.16502195 L13.3834321,6.14153415 C13.3834321,5.68363171 13.1030104,5.44875366 11.7365552,5.09636341 C10.0898966,4.67350976 9.02707388,4.21560732 9.02707388,2.58287561 L9.02707388,2.5593878 C9.02707388,1.06787561 10.2183201,0.0813146341 11.8885534,0.0813146341 C13.0795086,0.0813146341 14.0957642,0.457485366 14.9250235,1.12670488 L13.9906243,2.48892439 C13.2665049,1.9839 12.5541,1.67855854 11.8649787,1.67855854 C11.1761485,1.67855854 10.8139433,1.99560732 10.8139433,2.39497317 L10.8139433,2.41860732 C10.8139433,2.95875366 11.164434,3.13502195 12.5773836,3.49904634 C14.2359022,3.93360732 15.1703743,4.53258293 15.1703743,5.9654122 L15.1703743,5.9889 C15.1703743,7.6214122 13.9322698,8.53758293 12.1688295,8.53758293 C10.9307978,8.53758293 9.68119701,8.10302195 8.70001231,7.22219268" id="Fill-2"></path>
                            <polygon id="Fill-4" points="15.8588188 0.198797561 17.5170465 0.198797561 21.3477778 5.26082195 21.3477778 0.198797561 23.1228599 0.198797561 23.1228599 8.41989512 21.5932013 8.41989512 17.6339009 3.19374878 17.6339009 8.41989512 15.8588188 8.41989512"></polygon>
                            <path d="M28.0973317,6.83454146 C28.8917384,6.83454146 29.3702888,6.5526878 29.3702888,5.94185854 L29.3702888,5.9184439 C29.3702888,5.36659024 28.9616619,5.02583415 28.0389772,5.02583415 L25.9602627,5.02583415 L25.9602627,6.83454146 L28.0973317,6.83454146 Z M27.6185631,3.52254146 C28.4128243,3.52254146 28.9149493,3.26402927 28.9149493,2.65341951 L28.9149493,2.62993171 C28.9149493,2.08985854 28.4946078,1.78422439 27.735272,1.78422439 L25.9602627,1.78422439 L25.9602627,3.52254146 L27.6185631,3.52254146 Z M24.2083914,0.198834146 L28.0039791,0.198834146 C28.9382328,0.198834146 29.6741396,0.4572 30.1412664,0.926956098 C30.5148951,1.30261463 30.7018187,1.76088293 30.7018187,2.32459024 L30.7018187,2.34800488 C30.7018187,3.27580976 30.2111899,3.79276098 29.6272813,4.12159024 C30.5733951,4.48546829 31.1573765,5.03746829 31.1573765,6.14154146 L31.1573765,6.16510244 C31.1573765,7.66832195 29.9425556,8.41993171 28.0973317,8.41993171 L24.2083914,8.41993171 L24.2083914,0.198834146 Z" id="Fill-6"></path>
                            <path d="M31.4018541,4.33287805 L31.4018541,4.30953659 C31.4018541,1.9722439 33.1535071,0.0579512195 35.6645687,0.0579512195 C37.2060873,0.0579512195 38.1289903,0.574756098 38.8879623,1.32629268 L37.7432832,2.65346341 C37.1125164,2.07797561 36.4704716,1.72558537 35.6528541,1.72558537 C34.2748299,1.72558537 33.2820034,2.87670732 33.2820034,4.28590244 L33.2820034,4.30953659 C33.2820034,5.71873171 34.2515463,6.89312195 35.6528541,6.89312195 C36.5872534,6.89312195 37.1595201,6.51746341 37.801856,5.93026829 L38.9463168,7.09273171 C38.1052701,7.99712195 37.1713075,8.56097561 35.5945724,8.56097561 C33.1885052,8.56097561 31.4018541,6.69365854 31.4018541,4.33287805" id="Fill-8"></path>
                        </g>
                        <path d="M36.1580496,21.6982683 C35.5234265,21.9747805 34.8198985,22.0980732 34.0704582,22.0980732 L4.04962612,22.0752439 C2.35188918,21.9441951 0.684930224,20.5679268 0.211036567,18.9219512 C-0.293707836,17.2766341 0.19539291,15.5773902 1.30456455,14.3776829 C2.37488172,13.2935854 3.75159627,12.8397805 5.28074552,13.008878 C3.8434209,12.0473415 3.23935746,10.4560244 3.44556269,8.74895122 C3.63619701,7.26431707 4.73037985,5.8187561 6.12986866,5.22717073 C7.72755896,4.51931707 9.74617276,4.90404878 11.0000664,6.096 C10.7406728,5.22717073 10.6028631,3.98121951 10.9620851,3.08904878 C11.390503,1.68212195 12.7819881,0.428487805 14.1962474,0.136390244 C16.085419,-0.263707317 17.8822567,0.436317073 18.9681448,2.02829268 C19.1744955,2.32785366 19.2971709,2.66641463 19.4579004,2.98170732 C20.0006261,1.45931707 21.5681933,0.197853659 23.1589713,0.0361463415 C24.8025011,-0.171 26.3551522,0.520902439 27.3873425,1.8822439 C28.1898257,3.01258537 28.4647903,4.6962439 27.9456392,6.05758537 L28.0067586,6.05758537 C29.1993146,5.00363415 31.0043015,4.6194878 32.5413817,5.20397561 C34.009266,5.68053659 35.2559563,7.21843902 35.4542306,8.73365854 C35.6764433,10.409561 35.0951541,11.8785366 33.8029153,12.9627073 C35.7605552,12.8476098 37.6185123,13.8703171 38.4216504,15.6619756 C39.1245963,17.2233659 38.9188276,19.3145854 37.7256168,20.5832195 C37.2435739,21.0597073 36.7319172,21.4598049 36.1580496,21.6982683" id="Fill-11" fill="#FFFFFF"></path>
                        <path d="M27.8614981,6.80882927 C27.6827966,7.02117073 27.5237407,7.25385366 27.3876045,7.50314634 L27.3876045,7.50314634 C26.7959104,8.859 26.2045075,10.2146341 25.6131045,11.5712195 L25.6131045,11.5712195 C24.3671418,14.4826829 23.1201604,17.3948049 21.8741978,20.3063415 L21.8741978,20.3063415 C22.1750653,20.1086341 22.4763694,19.9102683 22.7776735,19.7120488 L22.7776735,19.7120488 C25.5519851,17.889 28.3269515,16.065439 31.1011903,14.2418049 L31.1011903,14.2418049 C31.7267183,13.8312439 32.3515914,13.4202439 32.9771194,13.0092439 L32.9771194,13.0092439 C33.5350522,12.6471951 34.0785056,12.1397561 34.4450037,11.5712195 L34.4450037,11.5712195 C35.2630578,10.3558537 35.2174366,8.39509756 34.3994552,7.19604878 L34.3994552,7.19604878 C33.6040299,5.99612195 32.3502817,5.32697561 30.9357313,5.32697561 L30.9357313,5.32697561 C29.7396828,5.34534146 28.6235261,5.89960976 27.8614981,6.80882927" id="Fill-15" fill="#0078B6"></path>
                        <path d="M23.2194067,0.486878049 C22.6317873,0.563268293 22.0643228,0.758634146 21.6063638,1.0517561 L21.6063638,1.0517561 C20.3066306,1.87470732 19.6338806,3.24278049 19.7328358,4.75017073 L19.7328358,4.75017073 C20.2479123,4.75565854 20.7629888,4.76070732 21.2780653,4.76590244 L21.2780653,4.76590244 C21.385097,4.81946341 21.6137127,4.87317073 21.5678004,5.03480488 L21.5678004,5.03480488 C21.3057873,5.18839024 21.0429739,5.34263415 20.7801604,5.49621951 L20.7801604,5.49621951 C20.260791,5.85 19.9929571,6.38802439 20.0617892,7.02621951 L20.0617892,7.02621951 C20.6126642,10.5120732 21.1632481,13.9983659 21.7138321,17.4841463 L21.7138321,17.4841463 C21.7948153,17.9484878 21.8765989,18.4124634 21.9582369,18.8761463 L21.9582369,18.8761463 C22.0967743,18.5537561 22.2358937,18.2317317 22.374431,17.9090488 L22.374431,17.9090488 C22.5411996,17.5212439 22.7081138,17.1332927 22.8748825,16.7461463 L22.8748825,16.7461463 C24.3995205,13.203878 25.9241586,9.66160976 27.448069,6.11904878 L27.448069,6.11904878 C27.6703545,5.6034878 27.7696735,5.0117561 27.7770951,4.43502439 L27.7770951,4.43502439 C27.7541754,2.874 26.7371922,1.34421951 25.2770205,0.759292683 L25.2770205,0.759292683 C24.8240821,0.548707317 24.3038396,0.450439024 23.7782127,0.450439024 L23.7782127,0.450439024 C23.591653,0.450439024 23.404584,0.462804878 23.2194067,0.486878049" id="Fill-18" fill="#7D77B7"></path>
                        <path d="M12.154903,1.85904878 C11.1611306,2.96634146 10.9162892,4.76590244 11.4975784,6.13470732 L11.4975784,6.13470732 C12.9661175,9.60870732 14.4345112,13.082561 15.9030504,16.556561 L15.9030504,16.556561 C15.9439422,16.6530732 15.9849795,16.7495122 16.0261623,16.8455854 L16.0261623,16.8455854 C16.2796623,17.4465366 16.5338172,18.0463171 16.7873172,18.6461707 L16.7873172,18.6461707 C16.8260989,18.7385854 16.8649534,18.8302683 16.903444,18.921878 L16.903444,18.921878 C16.9250541,18.7955854 16.9460093,18.6684878 16.9676194,18.5419024 L16.9676194,18.5419024 C17.7161138,14.0547073 18.4645354,9.56787805 19.2130299,5.08104878 L19.2130299,5.08104878 C19.243444,4.54236585 19.2667276,3.95070732 19.1134198,3.45812195 L19.1134198,3.45812195 C18.7925429,2.14302439 17.5688451,0.913463415 16.2610354,0.598317073 L16.2610354,0.598317073 C16.056431,0.546 15.8520448,0.509341463 15.6495504,0.487609756 L15.6495504,0.487609756 C15.5045373,0.472390244 15.3601791,0.464780488 15.2172761,0.464780488 L15.2172761,0.464780488 C14.0562985,0.464780488 12.9763041,0.962121951 12.154903,1.85904878" id="Fill-21" fill="#CE1141"></path>
                        <path d="M6.66448881,5.51173171 C5.25030224,5.95734146 4.0648041,7.40297561 3.90458396,8.87978049 L3.90458396,8.87978049 C3.74378172,10.3409268 4.2403041,11.6016585 5.34998507,12.5473171 L5.34998507,12.5473171 C6.08538246,13.041878 6.82056157,13.5357073 7.55639552,14.0309268 L7.55639552,14.0309268 C7.67266791,14.109 7.78886754,14.1868537 7.90492164,14.2649268 L7.90492164,14.2649268 C10.7981978,16.2100976 13.6916194,18.1543171 16.585041,20.0994878 L16.585041,20.0994878 C16.6988396,20.1759512 16.8126381,20.2530732 16.9264366,20.3294634 L16.9264366,20.3294634 C16.8663358,20.1868537 16.8062351,20.043439 16.7464254,19.9004634 L16.7464254,19.9004634 C15.065569,15.9013902 13.3845672,11.9023171 11.7037836,7.90295122 L11.7037836,7.90295122 C11.6716959,7.83226829 11.6385896,7.76129268 11.6044646,7.69090244 L11.6044646,7.69090244 C11.3941847,7.25963415 11.1373377,6.84526829 10.7558507,6.48863415 L10.7558507,6.48863415 C9.99949813,5.72209756 8.97167351,5.32331707 7.91503545,5.32331707 L7.91503545,5.32331707 C7.49767724,5.32331707 7.07602612,5.38543902 6.66448881,5.51173171" id="Fill-24" fill="#F47A3F"></path>
                        <path d="M3.54347015,13.6192683 C2.71064552,13.8417805 1.94497948,14.3413902 1.34106157,15.0526098 L1.34106157,15.0526098 C0.598824627,15.9880244 0.353983209,17.3064878 0.596641791,18.4658049 L0.596641791,18.4658049 C0.665401119,18.7941951 0.774106343,19.1088293 0.925595149,19.3978537 L0.925595149,19.3978537 C1.44860261,20.3997805 2.22933022,21.0845122 3.2201194,21.4197805 L3.2201194,21.4197805 C3.51625746,21.5196585 3.83116791,21.5889512 4.16310448,21.6256098 L4.16310448,21.6256098 C7.59095709,21.6262683 11.0189552,21.626561 14.4469534,21.6275854 L14.4469534,21.6275854 C15.6606828,21.6279512 16.8744851,21.6283171 18.0882873,21.6283171 L18.0882873,21.6283171 C17.8195075,21.4506585 17.5509459,21.2736585 17.2818022,21.0957073 L17.2818022,21.0957073 C17.1767351,21.0264878 14.836444,19.4796585 14.3727369,19.1732927 L14.3727369,19.1732927 C13.5169925,18.6077561 12.6612481,18.0422195 11.8049216,17.4767561 L11.8049216,17.4767561 C10.1530243,16.3847561 8.50054478,15.2933415 6.84872015,14.2017805 L6.84872015,14.2017805 C6.37606343,13.9099756 5.87430224,13.6573902 5.2756959,13.5621951 L5.2756959,13.5621951 C5.02656157,13.5125122 4.77779104,13.4883659 4.5314944,13.4883659 L4.5314944,13.4883659 C4.19570149,13.4883659 3.8645653,13.5332195 3.54347015,13.6192683" id="Fill-27" fill="#FCB813"></path>
                        <path d="M33.5654664,13.5621951 C32.9670056,13.6573902 32.4650989,13.9099756 31.9929515,14.2017805 L31.9929515,14.2017805 C29.9215131,15.5702195 27.849347,16.9390976 25.7782724,18.308122 L25.7782724,18.308122 C25.3418507,18.5959024 24.9055019,18.884561 24.4698078,19.1726341 L24.4698078,19.1726341 C23.4216828,19.8644634 22.374431,20.5570244 21.326306,21.2492195 L21.326306,21.2492195 C21.1351623,21.3755854 20.9443097,21.5023171 20.7528022,21.6283171 L20.7528022,21.6283171 C21.3712724,21.6283171 21.9896698,21.6283171 22.6081399,21.6279512 L22.6081399,21.6279512 C26.6313974,21.6272195 30.6547276,21.6262683 34.6779851,21.6256098 L34.6779851,21.6256098 C36.1232407,21.4649268 37.2368507,20.6990488 37.9157127,19.3978537 L37.9157127,19.3978537 C38.0217985,19.1950244 38.107584,18.9790244 38.1731418,18.7548293 L38.1731418,18.7548293 C38.5311269,17.5246098 38.2825746,16.0382195 37.500319,15.0526098 L37.500319,15.0526098 C36.6639291,14.0670732 35.5164123,13.4883659 34.3098134,13.4883659 L34.3098134,13.4883659 C34.063444,13.4883659 33.8146735,13.5125122 33.5654664,13.5621951" id="Fill-30" fill="#62BB46"></path>
                    </g>
                </g>
            </g>
        </g>
    </g>
</svg>