<svg width="67" height="65" xmlns="http://www.w3.org/2000/svg" xmlns:xlink="http://www.w3.org/1999/xlink"><defs><path id="a" d="M0 .018h41.65v9.83H0z"/></defs><g fill="none" fill-rule="evenodd"><ellipse cx="33.147" cy="32.5" rx="32.147" ry="31.5" transform="translate(.063)" fill="#EF4135" stroke="#FFF" stroke-width="2"/><g transform="translate(7 28.133)"><mask id="b" fill="#fff"><use xlink:href="#a"/></mask><path d="M1.208.019h9.062l-.388 2.777H.89L1.208.019zM.752 3.807h9.062l-.3 2.254H3.947l-.179 1.161h5.59L9.02 9.848H0l.752-6.04zm39.89 6.041H37.29l.734-6.04h3.39l-.772 6.04zm-6.743 0h-3.35l.735-6.04h3.39l-.775 6.04zm-2.497-7.052h10.13C41.989.937 41.038.019 40.046.019h-8.267l-.377 2.777zM21.015 3.807h9.87L30.67 4.86s-.218 1.201-1.746 1.201h-4.838l-.455 3.787h-3.35l.734-6.04zm-10.764 0l-.002.902c0 .61.643 1.352 1.626 1.352l4.987.004-.159 1.157H9.952l-.358 2.626h7.912c.665 0 2.212-.507 2.476-2.005 0-.001.31-2.46.317-2.553.042-.478-.266-1.483-1.641-1.483H10.25zM12.62.02c-.793 0-2.191.855-2.191 2.777h20.579C31.284-.056 29.163.019 29.163.019H12.619z" fill="#FEFEFE" mask="url(#b)"/></g><path d="M59.838 30.84c.264-2.07-.544-2.64-2.614-2.64h-5.337l-.278 2.195h4.94c.366 0 .484.223.425.695-.059.431-.19.765-.617.765H53.55l-.282 2.223h2.751c.382 0 .544.236.47.806-.073.57-.234.847-.69.847h-4.517l-.278 2.196h4.972c3.025 0 3.187-1.89 3.348-3.099.088-.639.176-1.39-.749-1.89.896-.361 1.1-.889 1.263-2.098" fill="#FEFEFE"/></g></svg>