<svg width="67" height="66" xmlns="http://www.w3.org/2000/svg"><g fill="none" fill-rule="evenodd"><g><ellipse stroke="#FFF" stroke-width="2" fill="#122C57" cx="33.493" cy="33" rx="32.244" ry="32"/></g><g fill="#FFF"><path d="M26.075 26.764h4.176c1.05 0 1.574.288 2.099 1.13l4.313 6.516h.148v-7.646h17.092c-2.706-8.4-10.785-14.498-20.333-14.498-9.547 0-17.627 6.097-20.332 14.498h12.837z"/><path d="M49.944 29.769v12.215h-4.242V29.769H40.85v12.215h-2.832c-1.05 0-1.551-.288-2.099-1.13l-5.49-7.975h-.088v9.105H26.22V29.769h-4.833v12.215H17.07V29.769h-4.55a20.225 20.225 0 00-.25 3.17c0 11.417 9.537 20.672 21.3 20.672 11.764 0 21.3-9.255 21.3-20.672 0-1.078-.085-2.137-.25-3.17h-4.676z"/></g></g></svg>