<svg id="Layer_1" data-name="Layer 1" xmlns="http://www.w3.org/2000/svg" viewBox="0 0 26.73 40.34"><defs><style>.cls-1{fill:#a81d35;}</style></defs><title>Artboard 2</title><path class="cls-1" d="M26.73,13.88H19.16a2.64,2.64,0,0,1,0,.29.67.67,0,0,1-.89.52,1.63,1.63,0,0,0-.69-.13A6.66,6.66,0,0,1,16,14.33h0a.13.13,0,0,0,0,.06,4.06,4.06,0,0,0,1,.87,1.5,1.5,0,0,0,.82.23c1.25,0,2.5,0,3.75,0a.18.18,0,0,1,.14.06l3.16,3.16,1.74,1.74a.15.15,0,0,1,.06.14V34.7a.16.16,0,0,1-.06.13l-2.34,2.26-2.78,2.68-.52.5a.2.2,0,0,1-.16.07h-15a.22.22,0,0,1-.15-.06L3.34,38,.42,35.18l-.37-.36a.26.26,0,0,1,0-.12V30.32c0-1,0-2,0-3v-.12H7.52c.08,0,.12,0,.15-.1a.78.78,0,0,1,.43-.46l.28-.11.16-.1s0-.05,0-.07l-.07,0c-.22,0-.45.05-.67,0a.56.56,0,0,1-.54-.77l0-.09H5.1A.16.16,0,0,1,5,25.42Q2.74,23.2.5,21l-.44-.43A.23.23,0,0,1,0,20.36V5.66a.24.24,0,0,1,.08-.19l1.8-1.72L4,1.69,5.71.06A.22.22,0,0,1,5.86,0h15A.25.25,0,0,1,21,.06C22,1,22.92,1.88,23.86,2.79l2.46,2.37.35.34a.17.17,0,0,1,.06.15v8.23Zm-26,14v.08c0,.75,0,1.5,0,2.25v4.23a.18.18,0,0,0,0,.1L1.9,35.64l2.2,2.13c.63.6,1.26,1.2,1.88,1.81a.26.26,0,0,0,.18.07H20.62a.22.22,0,0,0,.11,0L22,38.38l1.75-1.68L26,34.56a.23.23,0,0,0,.08-.18q0-6.75,0-13.48a.27.27,0,0,0-.08-.19q-2.23-2.22-4.46-4.46a.24.24,0,0,0-.2-.08H17.79a.32.32,0,0,1-.14,0c-.36-.21-.72-.42-1.07-.65a3.74,3.74,0,0,1-1.22-1.25.82.82,0,0,1-.12-.49c0-.15.1-.19.24-.13l.28.14a6.1,6.1,0,0,0,1.79.34,1.87,1.87,0,0,1,.81.14.21.21,0,0,0,.24,0,.23.23,0,0,0,.09-.23.58.58,0,0,0-.1-.24c-.13-.18-.27-.35-.41-.51l0-.07H26v0q0-3.61,0-7.21a.21.21,0,0,0,0-.11l-.35-.34-2.1-2c-.93-.89-1.86-1.78-2.78-2.68a.26.26,0,0,0-.21-.08H6.12L6,.73,4.18,2.49.74,5.8a.21.21,0,0,0-.05.13V20.08a.2.2,0,0,0,.06.15L2.55,22l2.68,2.69a.26.26,0,0,0,.19.07H8.27l0,0a1.79,1.79,0,0,0-.52.9c0,.09,0,.13.1.15h.1l.49,0a3.56,3.56,0,0,0,1.38-.45.56.56,0,0,1,.48-.07.36.36,0,0,1,.24.58,2,2,0,0,1-1.3.9c-.22.05-.44.07-.66.12a1.49,1.49,0,0,0-.36.17.23.23,0,0,0-.06.34.57.57,0,0,0,.13.14l.26.22,0,.06Z"/><path class="cls-1" d="M25.36,12.5H17.47a.29.29,0,0,1-.2-.07,5.44,5.44,0,0,0-1.45-.81,4.87,4.87,0,0,1-.53-.21.6.6,0,0,1-.21-.14.4.4,0,0,1-.1-.12c-.05-.1,0-.17.09-.22a1.73,1.73,0,0,1,1,0,1.53,1.53,0,0,0,.52,0h0c.26-.07.32-.24.15-.45a1.69,1.69,0,0,0-.62-.43l-.89-.4a.68.68,0,0,1-.39-.37.51.51,0,0,1,0-.4.16.16,0,0,1,.19-.13l.48,0h.14c.15,0,.19-.1.12-.23a1.64,1.64,0,0,0-.19-.25,3.45,3.45,0,0,0-.7-.56l-.18-.08c-.15-.07-.17-.17,0-.27a1.25,1.25,0,0,1,.24-.16c.28-.13.31-.27.09-.48s-.17-.14-.25-.21L14.23,6a.32.32,0,0,1-.1-.13.25.25,0,0,1,.07-.39l.31-.27.06-.08c.07-.11,0-.19-.1-.22l-.27,0A1,1,0,0,1,14,4.83a.27.27,0,0,1-.05-.42l.25-.25a.46.46,0,0,0,.07-.07c0-.08,0-.13-.06-.16l-.15,0a.36.36,0,0,1-.33-.19,1.94,1.94,0,0,1-.13-.3c-.07-.29-.13-.59-.2-.88,0,0,0,0,0-.08s-.07,0-.08.07a2.76,2.76,0,0,0-.08.27c-.07.29-.14.57-.22.85a1.39,1.39,0,0,1-.12.28.39.39,0,0,1-.35.2l-.14,0c-.08,0-.11.08-.06.15a1.22,1.22,0,0,0,.15.17l.29.22c.14.12.15.22,0,.35a1.83,1.83,0,0,1-.32.3c-.17.14-.35.25-.53.38A3.56,3.56,0,0,0,11.6,6c-.1.09-.07.2.07.23s.32,0,.49.06a1,1,0,0,1,.3.07c.13,0,.15.15,0,.24a.63.63,0,0,1-.21.12,2.61,2.61,0,0,0-1.18.71,1.83,1.83,0,0,0-.24.31c-.07.12,0,.2.11.21a3.05,3.05,0,0,0,.43,0h.19a.2.2,0,0,1,.22.18.6.6,0,0,1-.2.58.79.79,0,0,1-.23.14l-.7.31a1.73,1.73,0,0,0-.61.46L10,9.7c0,.08,0,.13.05.15a1.27,1.27,0,0,0,.26,0,4.16,4.16,0,0,0,.61,0,1.82,1.82,0,0,0,.46-.11.75.75,0,0,1,.49,0,.28.28,0,0,1,.21.38.31.31,0,0,1-.06.13,1.28,1.28,0,0,1-.42.38,20.25,20.25,0,0,0-2.13,1.19,7.14,7.14,0,0,0-1.16.89,1.93,1.93,0,0,0-.28.36.35.35,0,0,0,0,.2.21.21,0,0,0,.31.17,1.39,1.39,0,0,1,.87-.15,1.61,1.61,0,0,0,.49,0,5.15,5.15,0,0,0,.85-.18,1,1,0,0,0,.34-.22c.09-.06.16-.13.24-.19s.14-.05.2,0a.72.72,0,0,1,0,.61,2.12,2.12,0,0,1-.44.66,5.06,5.06,0,0,1-1.39,1L9,15.35a2.19,2.19,0,0,0-1,1.38A6.33,6.33,0,0,0,7.8,18a.93.93,0,0,0,0,.29.11.11,0,0,0,.18.07,1.42,1.42,0,0,0,.22-.2,1.61,1.61,0,0,1,1.32-.65,5.83,5.83,0,0,0,.59,0,1.42,1.42,0,0,0,.65-.26c.11-.06.21-.13.32-.18s.27,0,.25.18a1.39,1.39,0,0,1-.35.72,2.1,2.1,0,0,1-.68.46,8.36,8.36,0,0,0-.79.4,2.92,2.92,0,0,0-.47.46.16.16,0,0,0-.05.09.09.09,0,0,0,.08.13,8.28,8.28,0,0,0,.86.06,2,2,0,0,0,1.1-.36l.22-.13a.22.22,0,0,1,.33.17.74.74,0,0,1-.08.48,1.47,1.47,0,0,1-.48.6,12.16,12.16,0,0,1-1.61,1,2.51,2.51,0,0,0-1.14,1.09.88.88,0,0,0-.07.23c0,.08,0,.12.11.11l.15-.05a1.28,1.28,0,0,1,.86-.11l.72.13a.64.64,0,0,0,.41,0c.08,0,.13,0,.15.07a1.62,1.62,0,0,1,0,.22c0,.13,0,.25,0,.38a.62.62,0,0,1-.37.51c-.21.1-.43.18-.64.27H5.67A.2.2,0,0,1,5.53,24L1.44,20a.2.2,0,0,1-.06-.15V6.22a.22.22,0,0,1,.06-.15L4.3,3.33c.66-.63,1.31-1.27,2-1.9,0,0,.08,0,.12-.05H20.28a.26.26,0,0,1,.21.08L22.71,3.6,25.16,6a.57.57,0,0,1,.2.46c0,2,0,4,0,6Z"/><path class="cls-1" d="M18.41,16.86h2.64a.19.19,0,0,1,.16.07l2.89,2.89L25.3,21a.16.16,0,0,1,.06.13v13a.18.18,0,0,1-.06.14L23,36.48l-1.74,1.68-.8.76a.15.15,0,0,1-.09,0c-.45,0-.91,0-1.36,0a3.71,3.71,0,0,1-1.91-.65,2.4,2.4,0,0,1-.39-.39,3.29,3.29,0,0,0-.78-.61,2.54,2.54,0,0,1-1-.92,2.89,2.89,0,0,1-.41-1.25q0-.37,0-.75c0-1.06,0-2.12,0-3.18a.69.69,0,0,1,0-.25.15.15,0,0,1,.22-.1A1.59,1.59,0,0,1,15,31a1.37,1.37,0,0,0,.87.3,3.37,3.37,0,0,0,.55,0,2.61,2.61,0,0,1,1.82.44c.38.23.76.49,1.14.73l.35.19.15.06c.2,0,.32,0,.33-.22a2.17,2.17,0,0,0-.06-.57c-.14-.45-.28-.89-.45-1.32a1.63,1.63,0,0,0-.62-.71l-.55-.34a.66.66,0,0,1-.32-.36.42.42,0,0,1,.1-.46,2.6,2.6,0,0,0,.25-.33.39.39,0,0,0-.21-.62,2.91,2.91,0,0,0-.66-.17,2.07,2.07,0,0,1-1.38-.73,2.82,2.82,0,0,1-.18-.29.31.31,0,0,1,.06-.36.56.56,0,0,1,.66-.09,3.71,3.71,0,0,0,1.56.49,2,2,0,0,0,.43,0c.13,0,.15-.05.12-.18a1.89,1.89,0,0,0-1.11-1.26l-1.23-.55a.75.75,0,0,1-.44-.34,1,1,0,0,1-.06-.77c0-.11.11-.13.2-.07a.1.1,0,0,1,.05,0,1.49,1.49,0,0,0,1.33.51,1,1,0,0,1,.69.21.79.79,0,0,0,.27.15c.11,0,.17,0,.16-.12a3.15,3.15,0,0,0-.09-.42,2.84,2.84,0,0,0-1-1.53,3.68,3.68,0,0,0-.5-.3A10.68,10.68,0,0,1,15.54,21a1.64,1.64,0,0,1-.4-.57.43.43,0,0,0,0-.05c0-.14,0-.22.15-.18a2.35,2.35,0,0,1,.45.14,1.74,1.74,0,0,0,.74.2,4.43,4.43,0,0,0,.51-.06,1.13,1.13,0,0,1,.68,0l.07,0c.1,0,.19,0,.24-.08a.18.18,0,0,0,0-.23,3.58,3.58,0,0,0-.26-.29,4,4,0,0,0-1.1-.67l-.39-.19a1.54,1.54,0,0,1-.8-.88.32.32,0,0,1,0-.36.41.41,0,0,1,.44-.13l.6.23,1.27.44.39.18a1.07,1.07,0,0,0,.55.16.22.22,0,0,0,.23-.25A4.26,4.26,0,0,0,18.48,17,.91.91,0,0,1,18.41,16.86Z"/><path class="cls-1" d="M1.39,28.54H8.58a1.64,1.64,0,0,1-.22.14,3.36,3.36,0,0,0-1,.65,1.38,1.38,0,0,0-.4.58L6.58,31a1.19,1.19,0,0,0,0,.62.38.38,0,0,0,0,.1.24.24,0,0,0,.43.07A3.66,3.66,0,0,1,8,31c.29-.16.59-.3.89-.44a2.77,2.77,0,0,1,1.06-.2,2.75,2.75,0,0,0,1-.22,1.54,1.54,0,0,0,.49-.34l.37-.34.14-.08c.17-.09.25,0,.25.16v3.8a7.61,7.61,0,0,1-.14,1.58c0,.06,0,.11,0,.17a1.39,1.39,0,0,1-.47.74c-.22.19-.43.4-.65.6a4,4,0,0,0-.73.95,4.25,4.25,0,0,1-.72.91A2.35,2.35,0,0,1,7.87,39H6.41a.2.2,0,0,1-.15-.06L3.65,36.37,1.76,34.55l-.33-.32a.16.16,0,0,1-.05-.11V28.61S1.39,28.57,1.39,28.54Z"/></svg>