<svg width="64" height="22" xmlns="http://www.w3.org/2000/svg" xmlns:xlink="http://www.w3.org/1999/xlink"><defs><path id="a" d="M.016.074h63.779v21.912H.016z"/></defs><g fill="none" fill-rule="evenodd"><mask id="b" fill="#fff"><use xlink:href="#a"/></mask><path fill="#FFFFFE" mask="url(#b)" d="M50.727 8.723v13.219h9.61V.078h-9.362L45.503 4.7v2.672h6.81l-1.586 1.351M8.496 21.942V14.52L7.12 13.342h10.083V8.627H8.496V4.748h8.8L22.789.074H0v21.868h8.496M20.958 10.629l3.184 2.734h8.614l.562.477v2.734l-.75.635h-8.055L20.05 21.01v.932h18.076l3.666-3.111v-7.503l-3.184-2.702H29.99l-.562-.509V5.383l.712-.635h9.44l2.135-1.718V.075H26.693l-5.735 4.882v5.673M63.795 22h-.254v-.923h-.003l-.243.923h-.267l-.238-.923h-.004V22h-.253v-1.105h.397l.234.871h.005l.233-.87h.393V22M61.99 22h-.272v-.91h-.394v-.195h1.06v.195h-.393V22"/></g></svg>