<?xml version="1.0" encoding="UTF-8"?>
<svg width="60px" height="60px" viewBox="0 0 60 60" version="1.1" xmlns="http://www.w3.org/2000/svg" xmlns:xlink="http://www.w3.org/1999/xlink">
    <!-- Generator: Sketch 59.1 (86144) - https://sketch.com -->
    <title>Group 4</title>
    <desc>Created with Sketch.</desc>
    <g id="Page-1" stroke="none" stroke-width="1" fill="none" fill-rule="evenodd">
        <g id="Group-4" transform="translate(2.000000, 2.000000)">
            <g id="CNN" fill="#CC0000" stroke="#FFFFFF" stroke-width="2">
                <circle id="Oval" cx="28" cy="28" r="29"></circle>
            </g>
            <g id="Group-3" transform="translate(9.000000, 19.000000)" fill="#FFFFFF">
                <path d="M37.4401763,14.1755271 C37.4401763,17.3952824 33.2788578,18.9410742 31.0769212,15.2009593 C30.9179357,14.9302284 27.4495708,8.95502493 27.4495708,8.95502493 L27.4495708,14.1755271 C27.4495708,17.3952824 23.288612,18.9410742 21.0866155,15.2009593 C20.9268507,14.9302284 17.4589054,8.95502493 17.4589054,8.95502493 L17.4589054,13.8759606 C17.4612434,16.1098502 16.1319284,17.3210652 14.0651174,17.3198062 L8.62765884,17.3198062 C3.86277113,17.3198062 1.77635684e-14,13.4572149 1.77635684e-14,8.69256703 C1.77635684e-14,3.92749947 3.86277113,0.0649081894 8.62765884,0.0649081894 L11.422194,0.0649081894 L11.422194,2.1361554 L8.62526087,2.1361554 C5.01002027,2.1361554 2.06902908,5.07732643 2.06902908,8.69256703 C2.06902908,12.3075678 5.01002027,15.248619 8.62526087,15.248619 L14.0104437,15.2484991 C14.7413451,15.2484991 15.3823227,14.6083608 15.3823227,13.8784185 L15.3827424,3.26967615 C15.3827424,3.01519151 15.5452049,2.88048551 15.6842872,2.84253762 C15.9046007,2.78258835 16.1373837,2.91867319 16.3069203,3.20636973 C16.3374344,3.25834574 18.0284234,6.17367864 19.6639594,8.99273302 C21.6163272,12.3593041 22.8979826,14.5681348 22.9155477,14.5982294 C23.3518585,15.339622 24.0046461,15.4681532 24.470272,15.3416003 C25.0159303,15.1927463 25.3827598,14.6997834 25.3827598,14.1147985 L25.3827598,3.2699759 C25.3827598,3.01429227 25.5436637,2.87970617 25.6811873,2.84211798 C25.8983835,2.78294805 26.1284688,2.91939258 26.2975857,3.20636973 C26.3264812,3.25588782 27.8933153,5.95696204 29.4088927,8.56913149 C31.5093352,12.1906068 32.8878686,14.5669358 32.9062131,14.5982294 C33.2487632,15.1796773 33.7238012,15.3843441 34.1378708,15.3843441 C34.2514747,15.3843441 34.3605224,15.3686974 34.4608775,15.3416003 C35.0065957,15.1927463 35.3733653,14.6996036 35.3733653,14.1147985 L35.3733653,0.0649081894 L37.4401763,0.0649081894 L37.4401763,14.1755271 Z" id="Path"></path>
                <path d="M12.4873726,11.7656864 L12.4873726,3.2090075 C12.4877922,-0.0106878374 16.6483313,-1.55653966 18.8503279,2.18375512 C19.0096731,2.45430616 22.478038,8.42962954 22.478038,8.42962954 L22.478038,3.2090075 C22.478038,-0.0106878374 26.6389967,-1.55653966 28.8409334,2.18375512 C29.0003385,2.45430616 32.4687034,8.42962954 32.4687034,8.42962954 L32.4687034,0.0649081894 L34.5448664,0.0649081894 L34.5448664,14.1147985 C34.5448664,14.3695229 34.3819842,14.504169 34.2429019,14.541937 C34.0225884,14.6019462 33.7898054,14.4659213 33.6202688,14.1781049 C33.587057,14.1218125 31.8273061,11.0875403 30.1253464,8.15356317 C28.2007351,4.83591073 27.0311849,2.81897756 27.0116414,2.78648506 C26.5756903,2.04593175 25.9260801,1.91686097 25.4636314,2.04281439 C24.9198316,2.19088908 24.5546207,2.68415165 24.554201,3.26967615 L24.554201,14.1146186 C24.554201,14.3695229 24.3913188,14.504169 24.2522365,14.541937 C24.0315633,14.6019462 23.79914,14.4659213 23.6300231,14.1782847 C23.6003482,14.1281072 21.9631936,11.3061153 20.3807728,8.57710474 C18.3643791,5.10142604 17.0412988,2.82065614 17.0210359,2.78648506 C16.5846652,2.04497256 15.9319376,1.91638138 15.4663116,2.04323403 C14.9205934,2.19190822 14.5538238,2.68499094 14.5538238,3.26967615 L14.5538238,13.8784185 C14.5538238,14.1237909 14.3116288,14.4200002 14.0104437,14.4200002 L8.62526087,14.4201201 C5.46707349,14.4201201 2.89752797,11.8505746 2.89752797,8.69256703 C2.89752797,5.53413985 5.46707349,2.96489408 8.62526087,2.96489408 L11.422194,2.96489408 L11.422194,5.03626118 L8.6479217,5.03626118 C6.62883035,5.03626118 4.99167579,6.67311599 4.99167579,8.69232724 C4.99167579,10.7114785 6.62883035,12.3485731 8.6479217,12.3485731 L11.9139578,12.3485731 C12.2545896,12.3482134 12.4885715,12.0768831 12.4873726,11.7656864 Z" id="Path"></path>
            </g>
        </g>
    </g>
</svg>