<svg xmlns="http://www.w3.org/2000/svg" xmlns:xlink="http://www.w3.org/1999/xlink" width="50" height="23" xmlns:v="https://vecta.io/nano"><defs><path id="A" d="M0 0h49.614v22.822H0z"/></defs><g transform="translate(.679 .969)" fill-rule="evenodd"><mask id="B" fill="#fff"><use xlink:href="#A"/></mask><g fill="#fffffe"><path d="M9.742 11.32c-1.047.112-2.46.478-2.46 1.775 0 .956.9 1.387 2.177 1.387 1.477 0 2.65-.75 2.966-1.483.166-.368.265-.734.265-1.105v-.7l-.82-.001a18.67 18.67 0 0 0-2.127.117" mask="url(#B)" transform="matrix(.999848 .017452 -.017452 .999848 .225622 -.172303)"/><path d="M37.488 16.755c-3.435 0-5.83-2.73-5.83-6.335 0-3.767 2.412-6.336 5.83-6.336 2.86 0 5.112 2.02 5.685 4.878h-2.74c-.46-1.396-1.573-2.337-2.944-2.337-1.808 0-3.17 1.635-3.17 3.796s1.362 3.796 3.17 3.796c1.38 0 2.498-.952 2.95-2.364h2.74c-.565 2.873-2.82 4.904-5.69 4.904zm-9.995-.286V7.606L25.03 16.47H22.4l-2.463-8.863v8.863h-2.843V4.377h4.352l2.263 8.693 2.26-8.693h4.35l.005 12.092h-2.842zm-11.987 0h-2.62l-.075-.927c-.64.523-2.296 1.213-3.996 1.213-2.65 0-4.367-2.012-4.367-3.7 0-3.26 3.373-4.06 7.463-4.06h.84l.002-.28c0-.43-.215-2.243-2.45-2.243-1.868 0-2.43.83-2.634 1.57H4.916c0-.92.72-3.947 5.34-3.947 3.9 0 5.25 2.098 5.25 5.813v6.57zM-.992 21.83h49.614V-.992H-.992V21.83z" mask="url(#B)"/></g></g></svg>