<svg xmlns="http://www.w3.org/2000/svg" width="37" height="37" xmlns:v="https://vecta.io/nano"><path d="M37 0v37H0V0h37zM11.963 12.86h-2.23c-3.803 0-6.887 3.162-6.887 7.062s3.083 7.062 6.887 7.062h4.34c1.65.001 2.71-1 2.71-2.82h0v-4.028l2.896 5.113c1.758 3.062 5.08 1.796 5.08-.84h0v-4.273l2.895 5.113c1.758 3.062 5.08 1.796 5.08-.84h0V12.86h-1.65v11.5c0 .48-.293.882-.728 1.004a.97.97 0 0 1-.258.035c-.33 0-.7-.168-.983-.644l-5.275-9.325c-.135-.235-.32-.347-.492-.298-.1.03-.238.14-.238.35h0v8.877c0 .48-.293.882-.728 1.004-.372.104-.893-.002-1.24-.61l-5.275-9.325c-.135-.236-.32-.347-.497-.298-.11.03-.24.14-.24.35h0v8.684a1.14 1.14 0 0 1-1.095 1.122h0H9.73c-2.886 0-5.233-2.408-5.233-5.367s2.347-5.367 5.233-5.367h2.233V12.86zm13.904 1.734c-1.758-3.062-5.08-1.796-5.08.84h0v4.274l-2.896-5.113c-1.758-3.062-5.08-1.796-5.08.84h0v7.004a.46.46 0 0 1-.458.477h0H9.75c-1.612 0-2.918-1.34-2.918-2.993S8.137 16.93 9.75 16.93h2.214v-1.696H9.73c-2.52 0-4.572 2.103-4.572 4.69s2.05 4.688 4.572 4.688h4.298c.24 0 .434-.242.434-.443h0v-8.684c0-.48.293-.882.728-1.004.372-.104.893.001 1.24.608l5.275 9.325c.135.235.32.347.497.298.11-.03.24-.14.24-.35h0v-8.878c0-.48.292-.883.726-1.004.37-.103.888.003 1.236.61l5.275 9.325c.135.236.32.347.497.298.11-.03.24-.14.24-.35h0v-11.5h-1.657v6.847l-2.896-5.113z" fill="#fff" fill-rule="evenodd"/></svg>