<?xml version="1.0" encoding="UTF-8"?>
<svg width="30px" height="31px" viewBox="0 0 30 31" version="1.1" xmlns="http://www.w3.org/2000/svg" xmlns:xlink="http://www.w3.org/1999/xlink">
    <!-- Generator: Sketch 59.1 (86144) - https://sketch.com -->
    <title>Group</title>
    <desc>Created with Sketch.</desc>
    <defs>
        <polygon id="path-1" points="0 0 29.997279 0 29.997279 30.8423617 0 30.8423617"></polygon>
    </defs>
    <g id="Page-1" stroke="none" stroke-width="1" fill="none" fill-rule="evenodd">
        <g id="Group">
            <path d="M18.7984846,21.4784321 C18.892355,21.4784321 18.9648524,21.5072569 19.0192254,21.5603552 C19.1165155,21.6574491 19.1274585,21.8170811 19.1274585,22.0094148 C19.1274585,22.2022543 19.1165155,22.3659318 19.0192254,22.4623515 C18.9648524,22.5161241 18.892355,22.5454545 18.7984846,22.5454545 C18.7047851,22.5454545 18.6355365,22.5161241 18.5815054,22.4623515 C18.4837023,22.3659318 18.4729303,22.2022543 18.4729303,22.0094148 C18.4729303,21.8170811 18.4837023,21.6574491 18.5815054,21.5603552 C18.6355365,21.5072569 18.7047851,21.4784321 18.7984846,21.4784321 Z M24.6728239,12.6818182 C24.7689171,12.6819867 24.8581709,12.6892351 24.9416113,12.7047432 C25.0245387,12.7205883 25.1016527,12.7436819 25.1717563,12.775878 C25.240834,12.8062199 25.3056371,12.8453271 25.3620619,12.8915142 C25.4191707,12.9378699 25.470295,12.9902939 25.514409,13.0524947 C25.5915229,13.163074 25.6429892,13.2918583 25.6739374,13.4366565 C25.7060825,13.5796004 25.7177094,13.7415923 25.7134348,13.9157209 C25.7100151,14.0905238 25.6920617,14.278812 25.6636783,14.479574 C25.6482897,14.5866134 25.6305074,14.6978669 25.6108442,14.810469 C25.5961395,14.9048659 25.5792121,15.0014542 25.5614297,15.1005709 C25.5260359,15.2954332 25.4889323,15.4833842 25.4461862,15.6612213 C25.4167769,15.7876457 25.383093,15.9081704 25.3454764,16.0239752 C25.3153832,16.1283175 25.2832381,16.2304685 25.2475024,16.3265511 C25.1816734,16.5053995 25.1072952,16.6709313 25.0171864,16.8204493 C24.9272486,16.969293 24.8227772,17.1012802 24.6981296,17.2153993 C24.6304197,17.2786115 24.5582643,17.3344069 24.4847411,17.382111 C24.4103628,17.4325123 24.332565,17.4736423 24.2516893,17.5075241 C24.1699588,17.5397202 24.0856635,17.566185 23.9965807,17.5828731 C23.9086947,17.6004039 23.8151662,17.6095065 23.7180471,17.6118664 C23.6199021,17.6132149 23.5287674,17.6059666 23.445156,17.5907957 C23.3617157,17.5746133 23.2856276,17.5523626 23.2148401,17.519998 C23.1455914,17.4891504 23.0824982,17.4498745 23.0267573,17.4018333 C22.9686226,17.3551405 22.9181822,17.3003566 22.8728713,17.23883 C22.7966123,17.1269022 22.745488,16.9952522 22.7141978,16.847757 C22.6837626,16.698239 22.6731616,16.5338872 22.6781201,16.3541959 C22.6834206,16.1748417 22.7022289,15.9804852 22.7328351,15.7773632 C22.7625864,15.5728927 22.8025967,15.3569598 22.8470527,15.1347898 C22.8908247,14.9092486 22.9359646,14.6948327 22.9850371,14.4937335 C23.0361614,14.2922972 23.0915603,14.0997949 23.1580733,13.9254977 C23.2240732,13.7485035 23.3006742,13.5861745 23.3921509,13.4403649 C23.4836275,13.2953982 23.5891249,13.1650968 23.7149694,13.0550232 C23.7828502,12.9934966 23.8529538,12.9385441 23.9247672,12.8920199 C23.9972646,12.8460014 24.0726687,12.8068941 24.1508086,12.7748666 C24.2289484,12.7446933 24.3108499,12.7205883 24.397368,12.7047432 C24.4847411,12.6890665 24.5760467,12.6818182 24.6728239,12.6818182 Z M17.6434851,12.7012033 C17.7385524,12.7018775 17.8271223,12.7091259 17.9095368,12.7241282 C17.9917803,12.7396363 18.0675264,12.7634041 18.136946,12.7945888 C18.2058527,12.8249307 18.2699719,12.8635323 18.3263967,12.9088765 C18.3824796,12.9552321 18.433262,13.007319 18.476692,13.0683399 C18.553122,13.1775706 18.6042463,13.3060179 18.6348525,13.4484561 C18.6666556,13.5903886 18.6779406,13.7503577 18.673666,13.9233064 C18.6702463,14.0964236 18.6522929,14.2823518 18.6245935,14.4815968 C18.6095468,14.5872876 18.5915935,14.6971926 18.5714173,14.8091204 C18.5544899,14.9082372 18.5363655,15.0087025 18.5160184,15.1113592 C18.4739562,15.3310006 18.4291583,15.5423823 18.3800858,15.7421329 C18.3580288,15.8340014 18.334091,15.9233413 18.3086143,16.0101528 C18.279205,16.1138209 18.2479149,16.2146233 18.2125211,16.3096945 C18.147718,16.4871944 18.0738528,16.650872 17.984086,16.7993786 C17.8955161,16.9461995 17.7917286,17.0775124 17.6687908,17.1901144 C17.601081,17.2526524 17.5299515,17.3082792 17.4571121,17.3558147 C17.3835889,17.4048674 17.3061329,17.4459975 17.2266252,17.479205 C17.1457496,17.511064 17.0623092,17.5368546 16.9735683,17.5542169 C16.8867083,17.5710735 16.7935218,17.5803446 16.6979415,17.5828731 C16.6004804,17.5838845 16.5103716,17.5766361 16.4274442,17.5614652 C16.3453717,17.5459571 16.2694547,17.5230322 16.199693,17.4916789 C16.1312993,17.4611685 16.06889,17.4218926 16.0133201,17.3751998 C15.9558693,17.3280014 15.9064548,17.2740603 15.860802,17.2138822 C15.7855689,17.1026287 15.7347865,16.9721587 15.7041803,16.826012 C15.6737451,16.6781796 15.663486,16.5151764 15.6684446,16.3375079 C15.6737451,16.1600079 15.6920404,15.9676742 15.7221337,15.7659007 C15.7518849,15.5637902 15.7917243,15.3500486 15.8353253,15.13007 C15.8787554,14.9068887 15.9235533,14.6948327 15.9719418,14.4954192 C16.0227242,14.2955 16.0777812,14.106369 16.1432682,13.9324089 C16.2084132,13.7565947 16.2848432,13.5972998 16.375465,13.4525017 C16.4655737,13.3085464 16.5700452,13.1802677 16.6950348,13.069857 C16.7624026,13.0093418 16.8313093,12.9557378 16.9027808,12.9095508 C16.9744232,12.8635323 17.0489724,12.8249307 17.1257444,12.793746 C17.2032003,12.7634041 17.2851019,12.7396363 17.3702521,12.7241282 C17.4574541,12.7084516 17.5472209,12.7018775 17.6434851,12.7012033 Z M10.5476334,12.7012033 C10.6430427,12.7018775 10.7312707,12.7091259 10.8133432,12.7236225 C10.8955866,12.7399734 10.9713327,12.7634041 11.0404104,12.7945888 C11.1100011,12.8249307 11.1741202,12.8635323 11.2298611,12.9088765 C11.2862859,12.9552321 11.3370683,13.007319 11.3811823,13.0683399 C11.4565864,13.1782449 11.5083947,13.3060179 11.5383169,13.4484561 C11.570462,13.5903886 11.5820889,13.7503577 11.5774723,13.9233064 C11.5743946,14.0957493 11.5567832,14.2823518 11.5280579,14.4815968 C11.5133532,14.5886362 11.4957418,14.698204 11.4755657,14.8111432 C11.4582962,14.9092486 11.4401719,15.0093768 11.4205087,15.1120334 C11.3777626,15.3310006 11.3333067,15.5423823 11.2845761,15.7421329 C11.2625191,15.8323157 11.2392652,15.9213185 11.2141305,16.0062758 C11.1840373,16.1116295 11.1524052,16.2129376 11.1163275,16.3103687 C11.0515244,16.4871944 10.9773172,16.650872 10.8878923,16.7993786 C10.7989805,16.9468738 10.695193,17.0775124 10.5722552,17.1894402 C10.5054003,17.2526524 10.4339288,17.3082792 10.3605765,17.3563204 C10.2873952,17.4048674 10.2106232,17.4459975 10.1307735,17.479205 C10.0498979,17.5114011 9.96543163,17.5375288 9.87805861,17.5548911 C9.78983067,17.5703992 9.69732812,17.5808503 9.60174786,17.5828731 C9.50462873,17.5838845 9.41451996,17.5773104 9.33159254,17.5614652 C9.24952004,17.5466314 9.17360298,17.5230322 9.10384135,17.4916789 C9.03510563,17.4611685 8.97201239,17.4218926 8.91644247,17.3751998 C8.8603596,17.3280014 8.81026117,17.2740603 8.76563425,17.2138822 C8.68903325,17.1026287 8.63927679,16.9721587 8.60764469,16.8253377 C8.57720947,16.6781796 8.56729237,16.5151764 8.57293486,16.3376764 C8.57720947,16.1600079 8.5965307,15.9676742 8.62594001,15.7652265 C8.65603326,15.5637902 8.69570164,15.3503857 8.74015758,15.13007 C8.78290367,14.9075629 8.82735961,14.6948327 8.87643213,14.4954192 C8.92653055,14.2955 8.98192949,14.1053576 9.04775847,13.9324089 C9.11187762,13.7565947 9.1886496,13.5972998 9.27892935,13.4525017 C9.36938009,13.3085464 9.47487745,13.1802677 9.59849915,13.069857 C9.66689291,13.0100161 9.73597059,12.9562435 9.80744206,12.9098879 C9.87857157,12.8645437 9.95209485,12.8256049 10.0302347,12.793746 C10.1076906,12.7627298 10.1895921,12.7396363 10.2744004,12.7241282 C10.3612605,12.7084516 10.4517112,12.7018775 10.5476334,12.7012033 Z" id="Combined-Shape" fill="#FFFFFE"></path>
            <g id="Group-7">
                <g>
                    <mask id="mask-2" fill="white">
                        <use xlink:href="#path-1"></use>
                    </mask>
                    <g id="Clip-5"></g>
                    <path d="M11.8690909,21.4317181 C11.7200535,21.4317181 11.6212299,21.5115266 11.5740642,21.6201915 C11.5467914,21.6864787 11.5366845,21.7354521 11.5333155,21.8155904 L12.2056684,21.8155904 C12.2019786,21.7354521 12.1918717,21.6864787 12.1645989,21.6201915 C12.1169519,21.5115266 12.0186096,21.4317181 11.8690909,21.4317181" id="Fill-4" fill="#FFFFFE" mask="url(#mask-2)"></path>
                    <path d="M23.3998396,22.8931702 L22.9655615,22.1361436 L22.7788235,22.352484 L22.7788235,22.8931702 L22.3379679,22.8931702 L22.3379679,20.4102021 L22.7788235,20.4102021 L22.7788235,21.8188883 L23.3656684,21.0758777 L23.8990909,21.0758777 L23.2673262,21.8085 L23.9464171,22.8931702 L23.3998396,22.8931702 Z M21.3218182,21.5712181 C21.2537968,21.5013032 21.1962032,21.4630479 21.0874332,21.4630479 C20.9518717,21.4630479 20.8026738,21.5675904 20.8026738,21.7982766 L20.8026738,22.8931702 L20.3618182,22.8931702 L20.3618182,21.0758777 L20.7925668,21.0758777 L20.7925668,21.2501702 C20.8772727,21.1454628 21.0470053,21.0549362 21.2372727,21.0549362 C21.4102139,21.0549362 21.5324599,21.1002819 21.654385,21.2259309 L21.3218182,21.5712181 Z M20.1704278,16.1190106 C20.0991979,16.3930638 20.0180214,16.6437021 19.9196791,16.8742234 C19.8206952,17.1049096 19.7056684,17.3158085 19.5681818,17.5126915 C19.4305348,17.7107287 19.2694652,17.896234 19.0809626,18.0706915 C18.9502139,18.1922181 18.803262,18.3094574 18.6388235,18.4201011 C18.4748663,18.5284362 18.2934225,18.6311649 18.0954545,18.7167447 C17.8962032,18.8024894 17.6818717,18.8732287 17.4497326,18.9264894 C17.2167914,18.9762872 16.9674866,19.0072872 16.7013369,19.0102553 C16.4353476,19.0156968 16.1953476,18.9917872 15.9792513,18.9461117 C15.7626738,18.9012606 15.57,18.8349734 15.400107,18.7528564 C15.2305348,18.6707394 15.0814973,18.5744415 14.9539572,18.4666011 C14.8264171,18.3585957 14.7186096,18.2423457 14.6281283,18.122633 C14.496738,17.9473511 14.3983957,17.764484 14.3263636,17.5647979 C14.2548128,17.3664309 14.2122995,17.153883 14.1925668,16.9203936 C14.1734759,16.6865745 14.1768449,16.4321436 14.2025134,16.1538032 C14.226738,15.8739787 14.2711765,15.5692553 14.3303743,15.2327074 C14.3908556,14.8991277 14.4575936,14.5973723 14.5337968,14.3229894 C14.6108021,14.0466277 14.6969519,13.7968138 14.8007487,13.5667872 C14.9050267,13.3375851 15.0240642,13.1288298 15.1670053,12.9342553 C15.3099465,12.7408351 15.4731016,12.5594521 15.6654545,12.389117 C15.7968449,12.2722074 15.9441176,12.1577713 16.1079144,12.0535585 C16.2725134,11.9481915 16.4526738,11.8548617 16.6475936,11.7729096 C16.8436364,11.6944202 17.0560428,11.6284628 17.2841711,11.5842713 C17.5129412,11.5390904 17.7571123,11.5146862 18.0171658,11.5184787 C18.2752941,11.5191383 18.5096791,11.5471702 18.7196791,11.5958138 C18.931123,11.6424787 19.1188235,11.711734 19.2848663,11.7935213 C19.4509091,11.8751436 19.5954545,11.9725957 19.7204278,12.0779628 C19.8450802,12.1833298 19.9498396,12.2966117 20.0356684,12.4138511 C20.1640107,12.5841862 20.2621925,12.7621064 20.3326203,12.9543723 C20.4046524,13.1474628 20.4482888,13.3527553 20.4696257,13.5784947 C20.4909626,13.804234 20.4893583,14.0502553 20.4686631,14.320516 C20.4482888,14.5919309 20.4081818,14.8875851 20.3533155,15.2144043 C20.2994118,15.5445213 20.2402139,15.8442979 20.1704278,16.1190106 Z M19.4101604,22.6913404 C19.3012299,22.8092394 19.1215508,22.9144415 18.8605348,22.9144415 C18.5990374,22.9144415 18.4228877,22.8092394 18.3141176,22.6913404 C18.1543316,22.520016 18.1139037,22.3135691 18.1139037,21.9824628 C18.1139037,21.654984 18.1543316,21.4491968 18.3141176,21.2786968 C18.4228877,21.1599734 18.5990374,21.0549362 18.8605348,21.0549362 C19.1215508,21.0549362 19.3012299,21.1599734 19.4101604,21.2786968 C19.5699465,21.4491968 19.6103743,21.654984 19.6103743,21.9824628 C19.6103743,22.3135691 19.5699465,22.520016 19.4101604,22.6913404 Z M16.9491979,22.8931702 L16.5861497,22.8931702 L16.2163636,21.752766 L15.8462567,22.8931702 L15.4828877,22.8931702 L14.9391979,21.0758777 L15.4082888,21.0758777 L15.693369,22.199133 L16.0530481,21.0758777 L16.3758289,21.0758777 L16.7387166,22.199133 L17.0234759,21.0758777 L17.488877,21.0758777 L16.9491979,22.8931702 Z M14.2392513,21.4736011 L13.9265775,21.4736011 L13.9265775,22.3450638 C13.9265775,22.4507606 13.974385,22.5092979 14.0794652,22.5092979 L14.2392513,22.5092979 L14.2392513,22.8931702 L13.9976471,22.8931702 C13.6382888,22.8931702 13.4855615,22.6316489 13.4855615,22.3730957 L13.4855615,21.4736011 L13.2991444,21.4736011 L13.2991444,21.1283138 L13.4855615,21.1283138 L13.4855615,20.5910904 L13.9265775,20.5910904 L13.9265775,21.1283138 L14.2392513,21.1283138 L14.2392513,21.4736011 Z M12.9110695,17.5131862 C12.772139,17.7107287 12.6113904,17.896234 12.4232086,18.0706915 C12.292139,18.1922181 12.1451872,18.3094574 11.9810695,18.4201011 C11.8171123,18.5284362 11.6356684,18.6311649 11.4373797,18.7160851 C11.2387701,18.8028191 11.0234759,18.8732287 10.7918182,18.9264894 C10.5590374,18.9762872 10.3090909,19.0072872 10.0435829,19.01075 C9.77791444,19.0150372 9.53727273,18.9917872 9.3213369,18.9467713 C9.10524064,18.9012606 8.91192513,18.8349734 8.7426738,18.7521968 C8.57229947,18.6707394 8.42470588,18.5744415 8.29684492,18.4675904 C8.1686631,18.3592553 8.06117647,18.2423457 7.97149733,18.122633 C7.83994652,17.9473511 7.74096257,17.7641543 7.66893048,17.5647979 C7.59802139,17.3664309 7.55486631,17.153883 7.53545455,16.9194043 C7.51652406,16.6865745 7.52037433,16.4321436 7.54540107,16.1544628 C7.5697861,15.8739787 7.61406417,15.5699149 7.6742246,15.2330372 C7.73438503,14.8991277 7.80048128,14.5973723 7.8773262,14.3229894 C7.95368984,14.046133 8.04016043,13.7968138 8.14363636,13.5664574 C8.24759358,13.3375851 8.36759358,13.1285 8.50957219,12.9342553 C8.65187166,12.7401755 8.81534759,12.5594521 9.0068984,12.389117 C9.13812834,12.272867 9.28668449,12.1584309 9.44983957,12.0535585 C9.61379679,11.9481915 9.79395722,11.8548617 9.99032086,11.7735691 C10.1858824,11.6944202 10.3982888,11.6284628 10.626738,11.5839415 C10.8548663,11.5390904 11.0993583,11.5146862 11.3590909,11.5188085 C11.6175401,11.5191383 11.8516043,11.5471702 12.0619251,11.5964734 C12.273369,11.6431383 12.4607487,11.711734 12.6271123,11.7935213 C12.7934759,11.8758032 12.9381818,11.9729255 13.0626738,12.0779628 C13.1873262,12.1833298 13.2914439,12.2966117 13.3775936,12.4138511 C13.5057754,12.5841862 13.6037968,12.7612819 13.6751872,12.9543723 C13.7457754,13.1477926 13.7905348,13.3527553 13.8115508,13.5791543 C13.8336898,13.8035745 13.8316043,14.0502553 13.8105882,14.3208457 C13.789893,14.5919309 13.7497861,14.8875851 13.6952406,15.2153936 C13.6416578,15.5445213 13.5818182,15.8449574 13.5117112,16.1190106 C13.4420856,16.3930638 13.3596257,16.6437021 13.2612834,16.8742234 C13.1635829,17.1055691 13.0479144,17.3164681 12.9110695,17.5131862 Z M12.6396257,22.1260851 L11.5333155,22.1260851 C11.5333155,22.3592447 11.6724064,22.5305691 11.9205882,22.5305691 C12.1139037,22.5305691 12.208877,22.4745053 12.3206952,22.3592447 L12.5882888,22.6281862 C12.4087701,22.8130319 12.2358289,22.9144415 11.916738,22.9144415 C11.4994652,22.9144415 11.0990374,22.7187128 11.0990374,21.9824628 C11.0990374,21.3904947 11.4113904,21.0549362 11.8690909,21.0549362 C12.3614439,21.0549362 12.6396257,21.4246277 12.6396257,21.9235957 L12.6396257,22.1260851 Z M10.3140642,22.8931702 L9.87256684,22.8931702 L9.87256684,21.7943191 C9.87256684,21.5473085 9.72032086,21.4630479 9.5815508,21.4630479 C9.44229947,21.4630479 9.28572193,21.5473085 9.28572193,21.7943191 L9.28572193,22.8931702 L8.84454545,22.8931702 L8.84454545,21.0758777 L9.27561497,21.0758777 L9.27561497,21.2435745 C9.39096257,21.1174309 9.55427807,21.0549362 9.71679144,21.0549362 C9.89358289,21.0549362 10.0355615,21.1138032 10.1342246,21.2157074 C10.2768449,21.3624628 10.3140642,21.5324681 10.3140642,21.7311649 L10.3140642,22.8931702 Z M29.094385,9.44840426 C29.0942246,9.44840426 29.0939037,9.44840426 29.0939037,9.44840426 C29.0091979,9.46423404 28.9293048,9.4886383 28.8535829,9.52013298 C28.776738,9.55278191 28.7034225,9.59301596 28.6323529,9.64001064 C28.5627273,9.68667553 28.4940642,9.74273936 28.4282888,9.80556383 C28.3052406,9.91769149 28.2027273,10.0499362 28.1130481,10.1981755 C28.0249733,10.3469096 27.949893,10.5118032 27.8858824,10.691867 C27.8213904,10.8702819 27.7671658,11.0653511 27.7172727,11.2711383 C27.670107,11.4767606 27.6261497,11.6944202 27.5837968,11.9242819 C27.5584492,12.0606489 27.3417112,13.3707287 27.1681283,14.4328085 C27.1674866,14.4328085 26.9324599,15.811484 26.9324599,15.811484 C26.9324599,15.811484 26.9265241,15.8462766 26.9186631,15.8982181 C26.9143316,15.9239415 26.908877,15.9496649 26.9048663,15.9743989 C26.8864171,16.0855372 26.8739037,16.191234 26.8641176,16.2939628 C26.8588235,16.3402979 26.8548128,16.3808617 26.8528877,16.4115319 C26.8506417,16.4520957 26.8469519,16.5335532 26.8469519,16.5335532 C26.8483957,16.5393245 26.8493583,16.5450957 26.8503209,16.5511968 C26.8493583,16.6585426 26.8528877,16.7612713 26.8690909,16.8555904 C26.8913904,16.9769521 26.9289305,17.0871011 26.9873262,17.1812553 C27.0222995,17.2323723 27.0606417,17.2782128 27.1050802,17.318117 C27.1487166,17.3583511 27.1981283,17.3914947 27.2520321,17.4191968 C27.3072193,17.4468989 27.3670588,17.4668511 27.4321925,17.4813617 C27.4426203,17.4836702 27.454492,17.4836702 27.4650802,17.4861436 L26.9906952,19.0498298 C26.9416043,19.0504894 26.8929947,19.0532926 26.8427807,19.0519734 C26.6639037,19.044883 26.4997861,19.0234468 26.348984,18.9863457 C26.1999465,18.9495745 26.0622995,18.8994468 25.9370053,18.8323351 C25.9137433,18.8198032 25.8924064,18.8043032 25.8699465,18.790617 C25.7815508,18.744117 25.6973262,18.6943191 25.621123,18.6379255 C25.5054545,18.5508617 25.4037433,18.4524202 25.32,18.3450745 C25.1858824,18.1709468 25.0925134,17.9663138 25.030107,17.7445319 C24.954385,17.8833723 24.8619786,18.0199043 24.7509626,18.1518191 C24.7021925,18.2095319 24.651016,18.2619681 24.5996791,18.3135798 L24.5940642,18.3213298 C24.5833155,18.3308936 24.573369,18.3402926 24.563262,18.3493617 C24.5375936,18.3731064 24.512246,18.397016 24.4862567,18.4189468 C24.4852941,18.4201011 24.4849733,18.4210904 24.483369,18.42175 C24.4560963,18.4453298 24.4288235,18.4687447 24.4013904,18.4906755 C24.3202139,18.5567979 24.2396791,18.6166543 24.1588235,18.6700798 C24.0137968,18.7657181 23.8670053,18.8410745 23.7157219,18.8994468 C23.5647594,18.9563351 23.4080214,18.9960745 23.2435829,19.0188298 C23.0775401,19.0424096 22.9044385,19.0491702 22.7180214,19.0437287 C22.5470053,19.0366383 22.3819251,19.0150372 22.2245455,18.978266 C22.0679679,18.9406702 21.9181283,18.8900479 21.7824064,18.826234 C21.6452406,18.7619255 21.5207487,18.6845904 21.4108556,18.5970319 C21.301123,18.5099681 21.2056684,18.4115266 21.1275401,18.3048404 C20.9868449,18.1097713 20.8957219,17.8817234 20.8434225,17.6330638 C20.7908021,17.3860532 20.7750802,17.1167819 20.7826203,16.8366277 C20.7920856,16.5568032 20.8260963,16.2679096 20.8703743,15.9783564 C20.916738,15.6904521 20.9736898,15.4028777 21.0301604,15.1245372 C21.0863102,14.8485053 21.145508,14.5609309 21.2149733,14.2773138 C21.2849198,13.9932021 21.3660963,13.7110691 21.4666845,13.4422926 C21.566631,13.1730213 21.6859893,12.9176011 21.8339037,12.6865851 C21.9802139,12.455734 22.1554011,12.2476383 22.3668449,12.0769734 C22.4828342,11.9806755 22.6124599,11.8955904 22.7504278,11.8205638 C22.8898396,11.7481755 23.0374332,11.687 23.1916043,11.6380266 C23.345615,11.5890532 23.5070053,11.5545904 23.6706417,11.5329894 C23.8350802,11.5130372 24.0017647,11.5069362 24.1700535,11.5173245 C24.3436364,11.5278777 24.5063102,11.5498085 24.6558289,11.5849309 C24.8051872,11.6207128 24.9439572,11.6696862 25.0711765,11.7353138 C25.1974332,11.8006117 25.3131016,11.8827287 25.4183422,11.9816649 C25.5117112,12.0708723 25.5957754,12.1762394 25.6727807,12.2959521 C25.6868984,12.1925638 25.7016578,12.0886809 25.7207487,11.9816649 C25.7680749,11.7123936 25.828877,11.4296011 25.8952941,11.1385638 C25.9610695,10.84225 26.0281283,10.5620957 26.0996791,10.298266 C26.1734759,10.0344362 26.253369,9.78363298 26.3452941,9.55525532 C26.3768984,9.47610638 26.4104278,9.40107979 26.4452406,9.32638298 C26.4542246,9.30593617 26.468984,9.2741117 26.4893583,9.23354787 C26.4928877,9.22645745 26.4962567,9.21969681 26.4997861,9.21326596 C26.5129412,9.18754255 26.527861,9.15951064 26.5451872,9.12785106 C26.5830481,9.05859574 26.6221925,8.99065957 26.6639037,8.92635106 C26.7410695,8.80845213 26.8262567,8.69962234 26.9193048,8.59903723 C27.2162567,8.2615 27.6606417,7.91307979 28.2800535,7.79880851 C25.6793583,3.23240957 20.8599465,0.163739362 15.3405882,0.157630615 C7.05320856,0.149228723 0.328716578,7.04573936 0.320844631,15.563484 C0.317967914,18.0398564 0.88459893,20.3805213 1.89192513,22.4545532 C2.19080214,22.3152181 2.44748663,22.0845319 2.62700535,21.7834362 L2.63647059,21.7695851 C2.64112299,21.7621649 2.64673797,21.7554043 2.65106952,21.7476543 C2.73850267,21.6066702 2.81037433,21.4526596 2.87053476,21.2803457 C2.92716578,21.1222128 2.97737968,20.9418191 3.02454545,20.7292713 C3.03176471,20.6941489 4.16951872,14.3269468 4.23786096,13.9458777 L3.24433155,13.9475266 L3.73251337,12.2509362 L4.51106952,12.2476383 L4.59417112,11.8058883 C4.60315508,11.7455372 4.61197861,11.687 4.62256684,11.6248351 L4.6471123,11.4822021 C4.69347594,11.2099628 4.74609626,10.9017766 4.79807487,10.6844468 C4.84074866,10.5020745 4.88213904,10.3536702 4.92754011,10.2154894 C4.99235294,10.0073936 5.05941176,9.82320745 5.13272727,9.65518085 C5.25,9.39003191 5.38122995,9.15819149 5.5344385,8.94498404 C5.69550802,8.72023404 5.87470588,8.51889894 6.08374332,8.32927128 C6.23438503,8.19240957 6.39930481,8.06445213 6.57433155,7.94952128 C6.75994652,7.82717021 6.96144385,7.72015426 7.17385027,7.63028723 C7.40438503,7.53332979 7.64326203,7.46028191 7.88262032,7.40965957 C8.14572193,7.35557447 8.41780749,7.32754255 8.69101604,7.32754255 L8.72582888,7.32754255 C8.99582888,7.32754255 9.25122995,7.35475 9.48561497,7.40553723 C9.5786631,7.42614894 9.66449198,7.45187234 9.74759358,7.47792553 L9.76139037,7.48287234 L9.21770053,9.27642021 L9.19475936,9.26355851 C9.18417112,9.25646809 9.17326203,9.25003723 9.16122995,9.24410106 C9.07828877,9.20518617 8.9873262,9.17402128 8.89090909,9.15307979 C8.78967914,9.13114894 8.68026738,9.1192766 8.56540107,9.1192766 L8.55433155,9.11993617 C8.4340107,9.11993617 8.3168984,9.13180851 8.20379679,9.15505851 C8.10417112,9.17583511 8.00631016,9.20617553 7.90508021,9.24739894 L7.89192513,9.25185106 C7.88631016,9.2535 7.88069519,9.25514894 7.87540107,9.25745745 C7.79983957,9.28664362 7.72780749,9.32308511 7.65320856,9.36876064 C7.58245989,9.41460106 7.51347594,9.46670745 7.44898396,9.52376064 C7.33106952,9.6255 7.23048128,9.74521277 7.14,9.889 C7.05481283,10.0275106 6.98486631,10.1765745 6.92502674,10.3469096 C6.86983957,10.5009202 6.82074866,10.6770266 6.77374332,10.8869362 C6.76796791,10.9115053 6.74165775,11.067 6.71823529,11.2032021 C6.69946524,11.3153298 6.68181818,11.4180585 6.67812834,11.4393298 L6.56663102,12.2486277 L7.75540107,12.2451649 L7.26529412,13.9498351 L6.29278075,13.9438989 L5.39438503,19.075883 L5.1628877,20.321984 C5.1086631,20.6179681 5.06165775,20.8639894 4.9926738,21.1215532 C4.90652406,21.4468883 4.80994652,21.7290213 4.6984492,21.9855957 C4.58037433,22.2527234 4.44625668,22.4906649 4.28887701,22.710633 C4.12604278,22.9380213 3.9426738,23.1428191 3.72834225,23.338383 C3.57240642,23.4803564 3.40411765,23.6104574 3.22796791,23.7253883 C3.07700535,23.824984 2.91625668,23.9135319 2.74893048,23.9916915 C5.42326203,28.2062074 10.0487166,30.9942287 15.3099465,31.0000071 C23.5950802,31.0080798 30.3189305,24.1118989 30.3277603,15.594484 C30.3296791,13.4099734 29.8891444,11.3318191 29.094385,9.44840426 L29.094385,9.44840426 Z" id="Fill-6" fill="#FFFFFE" mask="url(#mask-2)"></path>
                </g>
            </g>
        </g>
    </g>
</svg>