<svg xmlns="http://www.w3.org/2000/svg" width="48" height="27" xmlns:v="https://vecta.io/nano"><path d="M43.843 0v1.96h1.936v1.96H48V1.96 27H5.98v-1.96h-2.22v-1.904H0V0h43.843zM21.84 5.684H17V22.32h4.256v-.862c1.216.804 2.71 1.28 4.325 1.28 4.08 0 7.386-3.022 7.386-6.75S29.67 9.24 25.6 9.24c-1.37 0-2.65.342-3.75.935h0v-4.5zm20.168 3.36H39.35c-3.862 0-5.943 1.883-5.943 4.316h0v.037c0 2.706 2.77 3.485 5.903 4.114h0l1.403.286c.736.15.617 1.14-.137 1.14h0-7.357l3.698 3.383h3.487c3.762 0 6.183-1.646 6.183-4.334h0v-.037c0-2.578-2.428-3.413-5.984-4.133h0L39.2 13.53c-.736-.15-.617-1.14.137-1.14h6.33l-3.662-3.346zM12.08 5.684H7.06v12.048l5.02 4.588v-7.85h3.68V9.883h-3.68v-4.2zm13.51 7.96c1.416 0 2.565 1.05 2.565 2.344s-1.15 2.344-2.565 2.344-2.565-1.05-2.565-2.344 1.15-2.344 2.565-2.344z" fill="#fff" fill-rule="evenodd"/></svg>