<svg xmlns="http://www.w3.org/2000/svg" xmlns:xlink="http://www.w3.org/1999/xlink" width="30" height="30" xmlns:v="https://vecta.io/nano"><defs><path id="A" d="M0 0h30v29.996H0z"/></defs><g fill-rule="evenodd"><mask id="B" fill="#fff"><use xlink:href="#A"/></mask><path d="M9.722 10.52h2.94c.74 0 1.1.2 1.478.82l3.037 4.73h.104v-5.55h12.04C27.413 4.424 21.724 0 15 0S2.587 4.424.68 10.52h9.04m16.8 2.18v8.863h-2.987V12.7h-3.417v8.863h-1.994c-.74 0-1.093-.2-1.478-.82l-3.866-5.787h-.062v6.607H9.823V12.7H6.42v8.863H3.38V12.7H.176A15.12 15.12 0 0 0 0 15c0 8.284 6.716 15 15 15s15-6.716 15-15a15.12 15.12 0 0 0-.176-2.3H26.53" mask="url(#B)" fill="#fff"/><g fill="#d4cdbc"><path d="M27.702 28.804h-.56v-.232h1.43v.232h-.56V30h-.31v-1.196"/><path d="M28.57 28.57h.272l.444.676.44-.676H30V30h-.255v-1.025l-.458.673h-.008l-.455-.67V30h-.252v-1.43"/></g></g></svg>