<?xml version="1.0" encoding="UTF-8"?>
<svg width="87px" height="22px" viewBox="0 0 87 22" version="1.1" xmlns="http://www.w3.org/2000/svg" xmlns:xlink="http://www.w3.org/1999/xlink">
    <!-- Generator: Sketch 59.1 (86144) - https://sketch.com -->
    <title>ESPN</title>
    <desc>Created with Sketch.</desc>
    <defs>
        <polygon id="path-1" points="0 0.0192631042 20.509198 0.0192631042 20.509198 12.9150596 0 12.9150596"></polygon>
        <polygon id="path-3" points="0.135758838 0.0191695031 21.821677 0.0191695031 21.821677 12.9169503 0.135758838 12.9169503"></polygon>
    </defs>
    <g id="Page-1" stroke="none" stroke-width="1" fill="none" fill-rule="evenodd">
        <g id="ESPN" transform="translate(0.428571, 0.000000)">
            <g id="Group-19">
                <path d="M59.3634418,0.000599046971 C59.3634418,0.000599046971 29.7509035,0.00228386658 28.0610951,2.23119593e-05 C24.8546707,-0.00408100749 22.7325418,1.67081688 22.4337514,4.17464602 C22.3238298,5.09642954 22.2182522,5.91019741 22.2182522,5.91019741 L63.9246215,5.91019741 C63.9246215,5.91019741 64.0031909,5.30010551 64.0638177,4.81075902 C64.3780953,2.28820967 63.2960664,0.000599046971 59.3634418,0.000599046971" id="Fill-1" fill="#EE4035" fill-rule="nonzero"></path>
                <path d="M63.6487598,8.16180905 C63.6487598,8.16180905 63.5565919,8.99560756 63.4300498,9.90484854 C63.1788544,11.7070439 61.8250434,13.0494707 59.3066679,13.0494707 L50.426816,13.0494707 L49.4301557,21.0576055 L42.3604217,21.0579799 L43.9578733,8.16180905 L63.6487598,8.16180905" id="Fill-3" fill="#EE4035" fill-rule="nonzero"></path>
                <polygon id="Fill-5" fill="#EE4035" fill-rule="nonzero" points="21.5199668 0.000599046971 20.7907446 5.91019741 1.87667518 5.91019741 2.60873036 0.000599046971"></polygon>
                <g id="Group-9" transform="translate(0.000000, 8.142920)">
                    <g id="Fill-7-Clipped">
                        <mask id="mask-2" fill="white">
                            <use xlink:href="#path-1"></use>
                        </mask>
                        <g id="path-1"></g>
                        <polygon id="Fill-7" fill="#EE4035" fill-rule="nonzero" mask="url(#mask-2)" points="1.60003917 0.0192631042 20.509198 0.0192631042 19.903496 4.90655037 8.06520444 4.90655037 7.76584751 7.31939925 19.6077276 7.31977366 18.9115575 12.9150596 -5.66606171e-05 12.9150596"></polygon>
                    </g>
                </g>
                <path d="M66.0966874,0.000599046971 L81.5219737,0.000599046971 C83.9595135,0.000599046971 86.4848772,1.1223145 85.9851306,5.00133084 C85.8957956,5.69641253 85.8699206,5.91019741 85.8699206,5.91019741 L65.366332,5.91019741 L66.0966874,0.000599046971" id="Fill-10" fill="#EE4035" fill-rule="nonzero"></path>
                <polygon id="Fill-12" fill="#EE4035" fill-rule="nonzero" points="65.08335 8.16034888 72.1585612 8.16334411 70.5597875 21.0546477 63.4864649 21.0578302"></polygon>
                <polygon id="Fill-14" fill="#EE4035" fill-rule="nonzero" points="78.5221718 8.16034888 85.5947389 8.16334411 83.9959652 21.0546477 76.9226426 21.0578302"></polygon>
                <g id="Group-18" transform="translate(20.208953, 8.142920)">
                    <g id="Fill-16-Clipped">
                        <mask id="mask-4" fill="white">
                            <use xlink:href="#path-3"></use>
                        </mask>
                        <g id="path-3"></g>
                        <path d="M17.2674741,0.0227263445 C16.0437937,0.0227263445 4.148086,0.0191695031 1.73226616,0.0191695031 C1.21363264,3.38506467 2.91345116,4.90664398 5.32152738,4.90664398 C6.63170972,4.90664398 14.8907501,4.90252553 14.8907501,4.90252553 L14.5927153,7.31949285 L0.828907054,7.31968005 L0.135758838,12.914966 C0.135758838,12.914966 15.1190924,12.9194588 15.7278163,12.914966 C16.2283184,12.8780871 19.7342885,12.784486 20.9264279,9.94238257 C21.3137977,9.01966304 21.6564055,5.71198775 21.7515954,5.01765487 C22.3030921,0.984383935 19.4866816,0.0227263445 17.2674741,0.0227263445" id="Fill-16" fill="#EE4035" fill-rule="nonzero" mask="url(#mask-4)"></path>
                    </g>
                </g>
            </g>
        </g>
    </g>
</svg>