<?xml version="1.0" encoding="UTF-8"?>
<svg viewBox="0 0 5090.52 2466.15" xmlns="http://www.w3.org/2000/svg">    <!-- Generator: Sketch 59.1 (86144) - https://sketch.com -->
    <title>dish-latino-circle-red-black</title>
    <desc>Created with Sketch.</desc>
    <g id="Page-1" stroke="none" stroke-width="1" fill="none" fill-rule="evenodd">
        <g id="v" fill-rule="nonzero">
            <g id="dish-latino-circle-red-black">
                <circle id="Oval" fill="#F01446" cx="1233.1" cy="1233.1" r="1233.1"></circle>
                <path d="M778.93,890.999994 L665.93,890.999994 C661.388599,890.999994 657.705518,894.678602 657.7,899.22 L657.7,1137.69 C619.86,1096.35 569.07,1071.15 511.93,1071.15 C389.98,1071.15 291.12,1185.91 291.12,1327.48 C291.12,1469.05 390,1583.81 511.94,1583.81 C569.08,1583.81 619.87,1558.61 657.71,1517.27 L657.71,1563.45 C657.71551,1567.99302 661.396981,1571.67449 665.94,1571.68 L778.94,1571.68 C783.481398,1571.67448 787.16,1567.9914 787.16,1563.45 L787.16,899.22 C787.16,897.038187 786.292596,894.945881 784.748883,893.404044 C783.205171,891.862207 781.111812,890.999994 778.93,890.999994 Z M657.71,1328.52 C657.24,1410.16 604.31,1476.16 539.06,1476.16 C473.53,1476.16 420.39,1409.57 420.39,1327.43 C420.39,1245.29 473.53,1178.7 539.06,1178.7 C604.31,1178.7 657.24,1244.7 657.71,1326.34 L657.71,1328.52 Z" id="Shape" fill="#FFFFFF"></path>
                <path d="M1010.4,868.39 C1052.64978,868.39 1086.9,902.640217 1086.9,944.89 C1086.9,987.139783 1052.64978,1021.39 1010.4,1021.39 C969.14,1021.39 933.91,987.16 933.91,944.89 C933.91,902.62 969.14,868.39 1010.4,868.39 Z" id="Path" fill="#FFFFFF"></path>
                <path d="M929.36,1110.1 C958.59,1127.1 989.95,1131.56 1011.53,1131.59 C1033.11,1131.62 1064.53,1127.08 1093.71,1110.1 C1098.5,1107.42 1101.05,1112.1 1100.06,1116.18 C1090.13,1156.96 1054.42,1187.18 1011.8,1187.45 L1011.27,1187.45 C968.65,1187.2 932.93,1156.96 923.01,1116.18 C922,1112.1 924.57,1107.42 929.36,1110.1 Z" id="Path" fill="#FFFFFF"></path>
                <path d="M896.79,1265.3 C937.6,1289.02 981.39,1295.3 1011.53,1295.3 C1041.67,1295.3 1085.47,1289 1126.28,1265.3 C1132.97,1261.56 1136.53,1268.1 1135.15,1273.8 C1121.29,1330.8 1071.41,1372.97 1011.9,1373.31 L1011.17,1373.31 C951.65,1372.97 901.78,1330.75 887.92,1273.8 C886.53,1268.1 890.09,1261.56 896.79,1265.3 L896.79,1265.3 Z" id="Path" fill="#FFFFFF"></path>
                <path d="M1168.1,1458.1 C1150.55,1530.22 1087.38,1583.69 1012.01,1584.1 L1011.08,1584.1 C935.7,1583.66 872.53,1530.19 854.98,1458.1 C853.22,1450.88 857.73,1442.6 866.21,1447.34 C917.9,1477.34 973.36,1485.34 1011.54,1485.34 C1049.72,1485.34 1105.18,1477.34 1156.87,1447.34 C1165.35,1442.6 1169.86,1450.88 1168.1,1458.1 Z" id="Path" fill="#FFFFFF"></path>
                <path d="M1441.9,1583.8 C1360.97,1583.8 1282.79,1558.1 1230.98,1514.56 C1226.60014,1510.86211 1225.59161,1504.51308 1228.61,1499.64 L1271.61,1427.7 C1273.42254,1424.75656 1276.4048,1422.72625 1279.8078,1422.11898 C1283.2108,1421.51171 1286.71123,1422.38517 1289.43,1424.52 C1327.43,1454.67 1392.71,1476.52 1447.97,1476.52 C1503.58,1476.52 1529.88,1457.02 1529.88,1434.02 C1529.88,1349.92 1239.65,1416.11 1239.65,1224.86 C1239.65,1142.95 1311.45,1071.15 1439.88,1071.15 C1518.17,1071.15 1581.14,1096.4 1627.88,1131.56 C1632.54772,1135.06168 1633.88429,1141.4875 1631,1146.56 L1593.12,1221.85 C1591.33081,1224.97404 1588.24441,1227.14005 1584.69815,1227.76041 C1581.15189,1228.38076 1577.51347,1227.39113 1574.77,1225.06 C1543.77,1198.59 1493.9,1179.77 1440.84,1179.77 C1394.32,1179.77 1363.98,1195.45 1363.98,1217.04 C1363.98,1293.86 1653.19002,1234.34 1653.19002,1427.04 C1653.24,1517.05 1577.4,1583.8 1441.9,1583.8 L1441.9,1583.8 Z" id="Path" fill="#FFFFFF"></path>
                <path d="M2181.3,1563.45 C2181.3,1567.9914 2177.6214,1571.68 2173.08,1571.68 L2060.08,1571.68 C2055.53698,1571.68 2051.85551,1567.99302 2051.85,1563.45 L2051.74,1297.19 C2051.74,1213.4 2008.12,1179.26 1952.6,1179.26 C1897.08,1179.26 1851.2,1215.1 1851.12,1279.39 L1851.12,1563.45 C1851.11449,1567.99302 1847.43302,1571.68 1842.89,1571.68 L1729.89,1571.68 C1725.3486,1571.68 1721.67,1567.9914 1721.67,1563.45 L1721.67,899.22 C1721.67,894.680219 1725.35022,891 1729.89,891 L1842.89,891 C1847.4314,891 1851.11448,894.678602 1851.12,899.22 L1851.12,1137.12 C1881.25,1096.19 1927.12,1071.12 1986.86,1071.12 C2094.8,1071.12 2181.29,1138.6 2181.29,1289.3 L2181.3,1563.45 Z" id="Path" fill="#FFFFFF"></path>
                <path d="M2737.8,1565.7 L2737.8,1084.56 L2840.97,1084.56 L2840.97,1475.56 L3044.37,1475.56 L3044.37,1565.73 L2737.8,1565.7 Z M3453.37,1565.7 L3423.08,1484.18 L3216.77,1484.18 L3186.48,1565.7 L3070.34,1565.7 L3255.73,1084.56 L3384.12,1084.56 L3569.51,1565.7 L3453.37,1565.7 Z M3319.97,1187.04 L3244.97,1394.04 L3394.97,1394.04 L3319.97,1187.04 Z M3643.56,1565.75 L3643.56,1174.75 L3502.85,1174.75 L3502.85,1084.58 L3886.6,1084.58 L3886.6,1174.75 L3746.66,1174.75 L3746.66,1565.75 L3643.56,1565.75 Z M3945.43,1565.75 L3945.43,1084.56 L4047.86,1084.56 L4047.86,1565.7 L3945.43,1565.75 Z M4438.43,1565.75 L4209.04,1251.96 L4209.04,1565.75 L4106.59,1565.75 L4106.59,1084.56 L4211.9,1084.56 L4434.8,1386.8 L4434.8,1084.56 L4537.23,1084.56 L4537.23,1565.7 L4438.43,1565.75 Z M4587.74,1325.54 C4587.74,1180.54 4693.74,1076.67 4839.48,1076.67 C4984.48,1076.67 5090.48,1180.55 5090.48,1325.54 C5090.48,1470.53 4984.48,1574.4 4839.48,1574.4 C4693.75,1574.35 4587.72,1470.48 4587.72,1325.49 L4587.74,1325.54 Z M4985.2,1325.54 C4985.2,1235.37 4928.2,1167.54 4839.48,1167.54 C4750.04,1167.54 4693.05,1235.35 4693.05,1325.54 C4693.05,1414.99 4750.05,1483.54 4839.48,1483.54 C4928.19,1483.46 4985.18,1414.94 4985.18,1325.49 L4985.2,1325.54 Z" id="Shape" fill="#FFFFFF"></path>
                <path d="M5044.87993,1554.76 C5044.87993,1544.366 5053.306,1535.94 5063.7,1535.94 C5074.094,1535.94 5082.52,1544.366 5082.52,1554.76 C5082.52,1565.154 5074.094,1573.58007 5063.7,1573.58007 C5058.70455,1573.59332 5053.90987,1571.61479 5050.37754,1568.08246 C5046.84521,1564.55013 5044.86668,1559.75545 5044.87993,1554.76 L5044.87993,1554.76 Z M5047.81,1554.76 C5047.66539,1560.51578 5050.65341,1565.89731 5055.61535,1568.81776 C5060.57729,1571.7382 5066.73271,1571.7382 5071.69465,1568.81776 C5076.65659,1565.89731 5079.64461,1560.51578 5079.5,1554.76 C5079.28404,1546.16408 5072.25363,1539.30809 5063.655,1539.30809 C5055.05637,1539.30809 5048.02596,1546.16408 5047.81,1554.76 L5047.81,1554.76 Z M5063.17,1557.07 L5059.61,1557.07 L5059.61,1565.59 L5056.42,1565.59 L5056.42,1544 L5065.21,1544 C5069.21,1544 5072.4,1546.57 5072.4,1550.57 C5072.46743,1553.79198 5070.09611,1556.54702 5066.9,1556.96 L5072.67,1565.57 L5068.76,1565.57 L5063.17,1557.07 Z M5059.61,1546.68 L5059.61,1554.32 L5065.21,1554.32 C5066.23317,1554.38119 5067.23569,1554.01405 5067.97734,1553.30654 C5068.71899,1552.59903 5069.13294,1551.61491 5069.12,1550.59 C5069.17212,1549.53789 5068.77695,1548.51279 5068.03208,1547.76792 C5067.28721,1547.02305 5066.26211,1546.62788 5065.21,1546.68 L5059.61,1546.68 Z" id="Shape" fill="#000010"></path>
            </g>
        </g>
    </g>
</svg>