<?xml version="1.0" encoding="UTF-8"?>
<svg width="27px" height="27px" viewBox="0 0 27 27" version="1.1" xmlns="http://www.w3.org/2000/svg" xmlns:xlink="http://www.w3.org/1999/xlink">
    <!-- Generator: Sketch 59.1 (86144) - https://sketch.com -->
    <title>MSNBC</title>
    <desc>Created with Sketch.</desc>
    <g id="Page-1" stroke="none" stroke-width="1" fill="none" fill-rule="evenodd">
        <g id="SLING_BRA1101_Election_Display_General_Election_300x50_Frame_1" transform="translate(-189.000000, -12.000000)">
            <g id="MSNBC" transform="translate(191.000000, 14.000000)">
                <circle id="Oval-Copy" stroke="#FFFFFF" stroke-width="2" fill="#001744" cx="11.5" cy="11.5" r="12.5"></circle>
                <g id="Programming/Logo/MSNBC" transform="translate(3.450000, 4.600000)">
                    <g>
                        <g id="MSNBC" transform="translate(0.000000, 10.333024)" fill="#FFFFFF">
                            <polygon id="Fill-1" points="2.55860597 0.0843445676 1.67702388 1.55918714 0.79541194 0.0843445676 8.95522388e-06 0.0843445676 8.95522388e-06 3.57208293 0.723471642 3.57208293 0.723471642 1.31004302 1.6578 2.78488559 1.67702388 2.78488559 2.62081493 1.29501863 2.62081493 3.57208293 3.3539791 3.57208293 3.3539791 0.0843445676"></polygon>
                            <path d="M3.56923582,3.06396053 L4.00520597,2.52084745 C4.30714627,2.7799561 4.62338507,2.94435521 5.00669851,2.94435521 C5.30848955,2.94435521 5.49063881,2.81981419 5.49063881,2.61546386 L5.49063881,2.60549933 C5.49063881,2.41123769 5.37559403,2.31159246 4.81499701,2.16209357 C4.13944478,1.98270111 3.70341493,1.78843947 3.70341493,1.09576541 L3.70341493,1.08580089 C3.70341493,0.453038137 4.19213134,0.0344971175 4.87735522,0.0344971175 C5.36595224,0.0344971175 5.78287761,0.194084701 6.12308657,0.477996009 L5.73974328,1.05590732 C5.44266866,0.841654545 5.1504,0.712115743 4.86768358,0.712115743 C4.58508657,0.712115743 4.43648955,0.846621286 4.43648955,1.01604922 L4.43648955,1.02607583 C4.43648955,1.25522882 4.5802806,1.33000931 5.15995224,1.4844439 C5.84037015,1.6688031 6.22374328,1.92291397 6.22374328,2.53078093 L6.22374328,2.54074545 C6.22374328,3.23332639 5.71580299,3.62200488 4.9923403,3.62200488 C4.48442985,3.62200488 3.97177313,3.43764568 3.56923582,3.06396053" id="Fill-2"></path>
                            <polygon id="Fill-4" points="6.50618209 0.0843383592 7.1864806 0.0843383592 8.75806269 2.23186386 8.75806269 0.0843383592 9.48630149 0.0843383592 9.48630149 3.57207672 8.85874925 3.57207672 7.2344209 1.35492373 7.2344209 3.57207672 6.50618209 3.57207672"></polygon>
                            <path d="M11.5271104,2.89950244 C11.8530209,2.89950244 12.0493493,2.77992816 12.0493493,2.52078847 L12.0493493,2.51085499 C12.0493493,2.27673525 11.8817075,2.13217206 11.5031701,2.13217206 L10.6503642,2.13217206 L10.6503642,2.89950244 L11.5271104,2.89950244 Z M11.3306925,1.49441153 C11.6565433,1.49441153 11.8625433,1.38473969 11.8625433,1.12569313 L11.8625433,1.1157286 C11.8625433,0.886606652 11.6900955,0.756943681 11.3785731,0.756943681 L10.6503642,0.756943681 L10.6503642,1.49441153 L11.3306925,1.49441153 Z M9.93164776,0.0843538803 L11.4888119,0.0843538803 C11.8720955,0.0843538803 12.174006,0.193963636 12.3656478,0.393254102 C12.5189313,0.55262439 12.5956179,0.747041242 12.5956179,0.9861898 L12.5956179,0.996123282 C12.5956179,1.38973747 12.3943343,1.60905011 12.1547821,1.74855344 C12.5429313,1.90292594 12.7825134,2.13710776 12.7825134,2.60550244 L12.7825134,2.615498 C12.7825134,3.25322749 12.2841254,3.57209224 11.5271104,3.57209224 L9.93164776,3.57209224 L9.93164776,0.0843538803 Z" id="Fill-6"></path>
                            <path d="M12.8828119,1.83819069 L12.8828119,1.82828825 C12.8828119,0.836709534 13.6014388,0.0245853659 14.6316179,0.0245853659 C15.2640358,0.0245853659 15.6426627,0.24383592 15.9540358,0.562669623 L15.4844239,1.12571175 C15.2256478,0.88156541 14.9622448,0.732066519 14.6268119,0.732066519 C14.0614687,0.732066519 13.6541552,1.22042129 13.6541552,1.81826164 L13.6541552,1.82828825 C13.6541552,2.4261286 14.0519164,2.92435477 14.6268119,2.92435477 C15.0101552,2.92435477 15.2449313,2.76498448 15.5084537,2.5158714 L15.9779761,3.00903769 C15.6329313,3.3927184 15.2497672,3.63192905 14.6029015,3.63192905 C13.615797,3.63192905 12.8828119,2.83973392 12.8828119,1.83819069" id="Fill-8"></path>
                        </g>
                        <path d="M14.8340716,9.20532594 C14.5737134,9.32263415 14.2850866,9.37494013 13.9776239,9.37494013 L1.66138507,9.36525499 C0.964877612,9.30965854 0.280997015,8.72578714 0.0865791045,8.02749446 C-0.120495522,7.32948115 0.080161194,6.6085898 0.53520597,6.09962306 C0.974310448,5.63970288 1.53911642,5.4471796 2.1664597,5.51891796 C1.57678806,5.11099335 1.32896716,4.43588914 1.41356418,3.71167627 C1.49177313,3.08183149 1.94066866,2.46856319 2.51481791,2.21758758 C3.1702806,1.91728603 3.99842985,2.08050554 4.51284776,2.58618182 C4.40642985,2.21758758 4.34989254,1.68900222 4.49726567,1.31050554 C4.67302687,0.713627494 5.24389254,0.181782705 5.82410149,0.0578625277 C6.59914627,-0.111875831 7.33631045,0.185104213 7.78180299,0.860487805 C7.8664597,0.987574279 7.91678806,1.13120621 7.98272836,1.26496674 C8.20538507,0.619104213 8.84848955,0.0839379157 9.50111642,0.0153348115 C10.1753851,-0.0725454545 10.8123701,0.220988914 11.2358328,0.798527716 C11.5650567,1.27806652 11.6778627,1.9923459 11.4648776,2.5698847 L11.4899522,2.5698847 C11.979206,2.12275388 12.7197134,1.95978271 13.3503104,2.20774723 C13.9525194,2.40992461 14.4639821,3.06236807 14.5453254,3.70518847 C14.6364896,4.41617738 14.3980119,5.03937916 13.8678627,5.49933038 C14.670997,5.45050111 15.4332358,5.88437694 15.7627284,6.6444745 C16.0511164,7.30688248 15.9666985,8.19406652 15.4771761,8.73227494 C15.2794149,8.93442129 15.0695045,9.10415965 14.8340716,9.20532594" id="Fill-11" fill="#FFFFFF"></path>
                        <path d="M11.4303582,2.88859424 C11.3570448,2.97867849 11.291791,3.07739246 11.2359403,3.18315299 L11.2359403,3.18315299 C10.993194,3.75836364 10.7505672,4.33348115 10.5079403,4.90900222 L10.5079403,4.90900222 C9.99677612,6.14416851 9.48519403,7.37961419 8.97402985,8.61481153 L8.97402985,8.61481153 C9.09746269,8.5309357 9.22107463,8.44678049 9.34468657,8.36268736 L9.34468657,8.36268736 C10.4828657,7.58927273 11.6213134,6.8156408 12.7594627,6.04197783 L12.7594627,6.04197783 C13.0160896,5.86780044 13.2724478,5.69343681 13.5290746,5.51907317 L13.5290746,5.51907317 C13.7579701,5.36547672 13.9809254,5.15019956 14.1312836,4.90900222 L14.1312836,4.90900222 C14.4668955,4.39339246 14.4481791,3.56155654 14.112597,3.05286918 L14.112597,3.05286918 C13.7862687,2.54380931 13.2719104,2.25992905 12.6915821,2.25992905 L12.6915821,2.25992905 C12.2008955,2.26772062 11.7429851,2.50286475 11.4303582,2.88859424" id="Fill-15" fill="#0078B6"></path>
                        <path d="M9.52591045,0.206554324 C9.28483582,0.238962306 9.05202985,0.321844789 8.86414925,0.446199557 L8.86414925,0.446199557 C8.33092537,0.795330377 8.05492537,1.37572506 8.09552239,2.01522395 L8.09552239,2.01522395 C8.30683582,2.01755211 8.51814925,2.01969401 8.72946269,2.021898 L8.72946269,2.021898 C8.77337313,2.04462084 8.86716418,2.06740576 8.84832836,2.13597783 L8.84832836,2.13597783 C8.74083582,2.20113525 8.63301493,2.26657206 8.52519403,2.33172949 L8.52519403,2.33172949 C8.3121194,2.48181818 8.20223881,2.71007095 8.23047761,2.9808204 L8.23047761,2.9808204 C8.45647761,4.45966741 8.68235821,5.93870067 8.90823881,7.41751663 L8.90823881,7.41751663 C8.94146269,7.61450998 8.97501493,7.81134812 9.00850746,8.00806208 L9.00850746,8.00806208 C9.06534328,7.87129047 9.12241791,7.73467406 9.17925373,7.59777827 L9.17925373,7.59777827 C9.24767164,7.43325499 9.31614925,7.26866962 9.38456716,7.10442572 L9.38456716,7.10442572 C10.0100597,5.60164523 10.6355522,4.09886475 11.2607463,2.59596009 L11.2607463,2.59596009 C11.3519403,2.37723725 11.3926866,2.12619956 11.3957313,1.8815255 L11.3957313,1.8815255 C11.3863284,1.21927273 10.9691045,0.570274945 10.3700597,0.322124169 L10.3700597,0.322124169 C10.1842388,0.232784922 9.97080597,0.191095344 9.75516418,0.191095344 L9.75516418,0.191095344 C9.67862687,0.191095344 9.6018806,0.196341463 9.52591045,0.206554324" id="Fill-18" fill="#7D77B7"></path>
                        <path d="M4.98662687,0.788687361 C4.57892537,1.25844789 4.47847761,2.021898 4.71695522,2.6026031 L4.71695522,2.6026031 C5.31943284,4.07642129 5.92185075,5.55017738 6.52432836,7.02399557 L6.52432836,7.02399557 C6.54110448,7.06494013 6.5579403,7.10585366 6.57483582,7.14661197 L6.57483582,7.14661197 C6.67883582,7.40156098 6.78310448,7.6560133 6.88710448,7.91049667 L6.88710448,7.91049667 C6.90301493,7.94970288 6.91895522,7.98859867 6.93474627,8.02746341 L6.93474627,8.02746341 C6.94361194,7.9738847 6.95220896,7.91996452 6.96107463,7.86626164 L6.96107463,7.86626164 C7.26814925,5.9626031 7.57519403,4.05909978 7.88226866,2.15559645 L7.88226866,2.15559645 C7.89474627,1.9270643 7.90429851,1.67605765 7.84140299,1.46708204 L7.84140299,1.46708204 C7.70976119,0.909161863 7.20773134,0.387529933 6.67119403,0.253831486 L6.67119403,0.253831486 C6.58725373,0.231636364 6.50340299,0.216084257 6.42032836,0.206864745 L6.42032836,0.206864745 C6.36083582,0.200407982 6.30161194,0.197179601 6.24298507,0.197179601 L6.24298507,0.197179601 C5.76668657,0.197179601 5.32361194,0.408172949 4.98662687,0.788687361" id="Fill-21" fill="#CE1141"></path>
                        <path d="M2.73414925,2.33831042 C2.15397015,2.52735698 1.66761194,3.14065632 1.6018806,3.7671796 L1.6018806,3.7671796 C1.53591045,4.38705987 1.73961194,4.92191574 2.19486567,5.32310421 L2.19486567,5.32310421 C2.49656716,5.53291796 2.7981791,5.74242129 3.1000597,5.95251441 L3.1000597,5.95251441 C3.14776119,5.98563636 3.19543284,6.01866519 3.24304478,6.05178714 L3.24304478,6.05178714 C4.43002985,6.87701109 5.61707463,7.70183149 6.8041194,8.52705543 L6.8041194,8.52705543 C6.85080597,8.55949446 6.89749254,8.59221286 6.9441791,8.62462084 L6.9441791,8.62462084 C6.91952239,8.56411973 6.89486567,8.50327716 6.87032836,8.44262084 L6.87032836,8.44262084 C6.18074627,6.74604435 5.49110448,5.04946785 4.80155224,3.35276718 L4.80155224,3.35276718 C4.78838806,3.32278049 4.77480597,3.29266962 4.76080597,3.2628071 L4.76080597,3.2628071 C4.67453731,3.07984479 4.56916418,2.90405322 4.41265672,2.75275388 L4.41265672,2.75275388 C4.10235821,2.42755654 3.68068657,2.25837694 3.24719403,2.25837694 L3.24719403,2.25837694 C3.07597015,2.25837694 2.90298507,2.28473171 2.73414925,2.33831042" id="Fill-24" fill="#F47A3F"></path>
                        <path d="M1.45373134,5.7778714 C1.1120597,5.87227051 0.797940299,6.08422616 0.550179104,6.38595565 L0.550179104,6.38595565 C0.245671642,6.78279823 0.145223881,7.34214634 0.244776119,7.83397783 L0.244776119,7.83397783 C0.272985075,7.9732949 0.31758209,8.10677605 0.379731343,8.22939246 L0.379731343,8.22939246 C0.594298507,8.65445233 0.914597015,8.94494457 1.32107463,9.0871796 L1.32107463,9.0871796 C1.44256716,9.12955211 1.57176119,9.158949 1.7079403,9.17450111 L1.7079403,9.17450111 C3.11423881,9.17478049 4.52059701,9.17490466 5.92695522,9.17533925 L5.92695522,9.17533925 C6.42489552,9.17549446 6.92286567,9.17564967 7.42083582,9.17564967 L7.42083582,9.17564967 C7.31056716,9.10027938 7.20038806,9.02518847 7.08997015,8.94969401 L7.08997015,8.94969401 C7.04686567,8.92032816 6.08674627,8.26409756 5.89650746,8.13412417 L5.89650746,8.13412417 C5.54543284,7.89419956 5.19435821,7.65427494 4.84304478,7.41438137 L4.84304478,7.41438137 C4.16534328,6.95110865 3.48740299,6.48808426 2.80973134,6.02499778 L2.80973134,6.02499778 C2.6158209,5.90120177 2.40997015,5.79404435 2.16438806,5.75365854 L2.16438806,5.75365854 C2.0621791,5.73258093 1.9601194,5.72233703 1.85907463,5.72233703 L1.85907463,5.72233703 C1.72131343,5.72233703 1.58546269,5.74136585 1.45373134,5.7778714" id="Fill-27" fill="#FCB813"></path>
                        <path d="M13.7704478,5.75365854 C13.5249254,5.79404435 13.3190149,5.90120177 13.1253134,6.02499778 L13.1253134,6.02499778 C12.2754925,6.60554767 11.4253731,7.18628381 10.5757015,7.76708204 L10.5757015,7.76708204 C10.3966567,7.88917073 10.2176418,8.01163193 10.0388955,8.13384479 L10.0388955,8.13384479 C9.60889552,8.42734812 9.17925373,8.72116186 8.74925373,9.0148204 L8.74925373,9.0148204 C8.67083582,9.06843016 8.59253731,9.12219512 8.51397015,9.17564967 L8.51397015,9.17564967 C8.76770149,9.17564967 9.02140299,9.17564967 9.27513433,9.17549446 L9.27513433,9.17549446 C10.9257015,9.17518404 12.5762985,9.17478049 14.2268657,9.17450111 L14.2268657,9.17450111 C14.819791,9.10633259 15.2766567,8.78141463 15.5551642,8.22939246 L15.5551642,8.22939246 C15.5986866,8.14334368 15.6338806,8.05170732 15.6607761,7.95659424 L15.6607761,7.95659424 C15.8076418,7.43468293 15.7056716,6.80409313 15.3847463,6.38595565 L15.3847463,6.38595565 C15.0416119,5.96784922 14.5708358,5.72233703 14.0758209,5.72233703 L14.0758209,5.72233703 C13.9747463,5.72233703 13.8726866,5.73258093 13.7704478,5.75365854" id="Fill-30" fill="#62BB46"></path>
                    </g>
                </g>
            </g>
        </g>
    </g>
</svg>