<svg width="63" height="48" xmlns="http://www.w3.org/2000/svg" xmlns:xlink="http://www.w3.org/1999/xlink"><defs><path id="a" d="M.059.165h5.746v4.91H.06z"/><path id="c" d="M.216.068h5.188v4.68H.216z"/><path id="e" d="M.005.118h25.444v31.054H.005z"/></defs><g fill="none" fill-rule="evenodd"><path fill="#FEFEFE" d="M4.22 43.086v3.381L.994 43.086H0v4.68h.9v-3.502l3.36 3.501h.863v-4.68zM9.714 43.086v4.68h4.405v-.785h-3.464v-1.235h2.915v-.787h-2.915v-1.087h3.386v-.786zM18.287 43.086v.786h2.159v3.893h.941v-3.893h2.156v-.786zM33.233 43.086l-.924 3.212h-.013l-.935-3.212h-.903l-.922 3.218h-.013l-.929-3.218h-.944l1.422 4.68h.922l.922-3.32h.013l.915 3.32h.903l1.408-4.68z"/><g transform="translate(37.93 42.807)"><mask id="b" fill="#fff"><use xlink:href="#a"/></mask><path d="M2.932 4.29c-.903 0-1.931-.361-1.931-1.687C1 1.478 1.83.949 2.932.949c1.103 0 1.931.53 1.931 1.654 0 1.326-1.028 1.687-1.93 1.687m0-4.125C.808.165.058 1.375.058 2.655c0 .971.59 2.42 2.873 2.42 2.284 0 2.873-1.449 2.873-2.42 0-1.28-.75-2.49-2.873-2.49" fill="#FEFEFE" mask="url(#b)"/></g><path d="M49.225 45.167v-1.32h1.818c.77 0 1.162.108 1.162.656 0 .554-.392.664-1.162.664h-1.818zm2.575.693c.71-.038 1.347-.514 1.347-1.376 0-1.147-.822-1.398-1.964-1.398h-2.9v4.68h.942v-1.84h1.493l1.4 1.84h1.162L51.8 45.86z" fill="#FEFEFE"/><g transform="translate(57.55 43.018)"><mask id="d" fill="#fff"><use xlink:href="#c"/></mask><path fill="#FEFEFE" mask="url(#d)" d="M2.869 1.922L5.173.068h-1.34L1.156 2.25V.068H.216v4.68h.941V3.291l1.03-.829L4.17 4.747h1.234z"/></g><g transform="translate(18.747 .093)"><mask id="f" fill="#fff"><use xlink:href="#e"/></mask><path d="M9.914 16.637v7.96h-1.34V17.29c.669-.559 1.34-.654 1.34-.654zm1.661-11.059l1.162-2.068 1.164 2.068s-.715-.04-1.164-.04c-.447 0-1.162.04-1.162.04zm5.995 8.348c-.028-.017-.054-.036-.083-.055a9.545 9.545 0 01-.29-.2 5.495 5.495 0 01-.283-.204 5.274 5.274 0 01-.272-.203 18.19 18.19 0 01-1.428-1.203l-.183-.173-.042-.04a14.632 14.632 0 01-.64-.654c-.092-.1-.18-.194-.26-.283a26.621 26.621 0 01-.244-.283 9.747 9.747 0 01-.454-.576c.079.064.157.13.236.193.159.129.322.258.49.385l.002.002c.334.254.685.501 1.053.738l.002.002c.092.06.186.118.282.175.19.117.381.23.58.339a10.167 10.167 0 00.303.165 15.335 15.335 0 001.279.594 5.653 5.653 0 00.227.089c.037.015.074.03.113.042l-.002-.004c-.342-.252-.8-.584-1.312-.954l-.526-.38c-.058-.045-.117-.087-.178-.132-.122-.086-.244-.175-.367-.264a10.85 10.85 0 00-.18-.133l-.19-.138-.362-.266a10.68 10.68 0 00-.19-.137l-.357-.265a66.885 66.885 0 01-1.568-1.186c-.115.127-4.137 3.03-5.181 3.812.992-1.767 2.053-3.656 2.986-5.3l.013-.024.027-.002a77.131 77.131 0 012.166-.055c.286.002 1.415.021 2.17.055l.026.002.013.023.294.52.724 1.28.495.877 1.497 2.667c.004.004.006.006.011.008-.002-.002-.007-.002-.009-.002l.194.345c.085.15.168.302.253.45l.312.556.262.465c.045.085.091.165.137.248a14.88 14.88 0 01-.71-.396 17.658 17.658 0 01-.835-.52zm-3.324 3.821c-1.445 0-1.696.421-1.696.421v.943h-1.4v-1.82s1.315-.844 3.096-.844c1.783 0 3.355.844 3.355.844v1.757l-4.325 4.263h4.615s-.65.805-1.082 1.285H11.15v-1.279l4.96-4.684v-.387s-.414-.499-1.864-.499zM12.713.814c.21 0 .415.002.62.004a53.707 53.707 0 011.187.036h.027l.078.004c.166.007.327.017.489.026l.431.027a26.67 26.67 0 01.944.074l.32.032c.164.015.323.032.482.049a40.092 40.092 0 014.28.71c.056.013.11.026.163.036a52.362 52.362 0 01.876.216c.085.02.168.042.247.065.117.032.228.064.331.091a14.46 14.46 0 01.534.161l.072.023.063.021c.046.015.083.028.111.036l.06.021c.703 1.54 1.77 7.835-1.315 15.109l-.445-.791v-.002a7.433 7.433 0 01-.133-.239l-.01-.02c-1.069-1.913-7.367-13.181-8.383-14.909a25.815 25.815 0 00-.597-.004h-.813c-.336 0-.536.002-.597.004L3.126 16.89c.063.163.436 1.078.935 2.049.135-.237.58-1.026 1.123-1.998.63-1.123 1.456-2.6 2.341-4.177 3.434-1.83 7.072-.169 8.997 2.318h-.002l-.007-.004h-.002a5.81 5.81 0 00-.822-.449 7.02 7.02 0 00-3.067-.7c-3.854 0-6.978 3.088-6.978 6.898 0 1.002.216 1.954.606 2.814C-.98 14.064.504 4.405 1.397 2.446 1.42 2.432 6.047.814 12.711.814h.002zm-.002 29.301l-.18-.137a37.406 37.406 0 01-3.818-3.451 7.356 7.356 0 004.024 1.2c1.524 0 2.78-.378 3.946-1.187a35.167 35.167 0 01-3.786 3.438l-.184.137h-.002zM24.644 1.86c-.022-.017-4.896-1.74-11.915-1.74h-.003c-3.51 0-6.483.43-8.582.862-2.1.434-3.322.87-3.335.878C-.342 4.41-2.426 19.094 12.535 31.027l.191.145h.003l.191-.145C27.881 19.094 25.797 4.41 24.644 1.859z" fill="#FEFEFE" mask="url(#f)"/></g><path d="M25.878 3.9c-.44.771-.628 1.105-.885 1.57-.103.182-.214.385-.36.643l-.01.021-.022.002c-.016.005-1.69.31-2.547.548l-.065.017.004-.066c.07-1.084.127-1.505.234-2.089l.006-.03.028-.006c1.611-.387 2.496-.537 3.571-.68l.094-.013-.048.082zm-4.746-.918l-.07.02c-.24.068-.333.098-.368.109-1.022 3.444-.706 8.2.791 12.799.18-.307.796-1.406 1.25-2.227-.729-2.717-.746-5.109-.746-5.128V8.52l.033-.008a30.91 30.91 0 013.795-.742c.161-.307.874-1.571 1.696-3.03.6-1.064 1.219-2.161 1.718-3.06-2.001.108-5.008.423-8.099 1.303zM42.78 9.399c.013-.154.022-.269.032-.355a31.716 31.716 0 00-1.776-.503v.034c-.006.159-.021.581-.182 1.822l-.018.138-.071-.121c-.458-.79-.836-1.482-1.274-2.282a199.746 199.746 0 00-2.366-4.229l-.047-.083.096.015c1.103.166 2.144.322 3.658.705l.029.008.006.028c.138.672.2 1.506.2 2.05.641.176 1.545.438 1.79.509-.056-2.311-.537-3.855-.596-4.032-1.402-.432-4.348-1.18-8.524-1.42C35.782 5.24 38.168 9.52 39.75 12.36c.909 1.63 1.596 2.863 1.786 3.18 1.011-3.229 1.175-5.266 1.244-6.141" fill="#FEFEFE"/></g></svg>