<svg xmlns="http://www.w3.org/2000/svg" width="53" height="27" fill="#fffffe" fill-rule="evenodd" xmlns:v="https://vecta.io/nano"><path d="M35.8 11.368L17.905 0 0 11.368h35.8M0 12.8h4.873v5H9.45v-5h4.874V27H9.45v-5.102H4.873V27H0V12.8"/><path d="M14.324 19.934v-.04c0-4.068 3.335-7.105 7.803-7.105 2.425 0 4.52.78 6.056 2.063l-2.648 3.076c-.93-.758-1.96-1.058-3.132-1.058-1.84 0-3.04 1.234-3.04 3.082v.04c0 1.93 1.48 3.123 3.24 3.123.808 0 1.253-.183 1.617-.377v-.915h-2.426v-3.175h6.853v6.308C27.113 26.163 24.835 27 22.268 27c-4.407 0-7.944-2.842-7.944-7.066m33.6-7.144l-2.67 7.984-2.67-7.984H28.65v3.984h3.654V27H36.9V16.773h2.116L43.024 27h4.398L53 12.8h-5.066"/></svg>