<?xml version="1.0" encoding="UTF-8"?>
<svg width="60px" height="61px" viewBox="0 0 60 61" version="1.1" xmlns="http://www.w3.org/2000/svg" xmlns:xlink="http://www.w3.org/1999/xlink">
    <!-- Generator: Sketch 59.1 (86144) - https://sketch.com -->
    <title>Fox News</title>
    <desc>Created with Sketch.</desc>
    <defs>
        <polygon id="path-1" points="0 33.7901235 34.8855521 33.7901235 34.8855521 0.11837037 0 0.11837037"></polygon>
    </defs>
    <g id="Page-1" stroke="none" stroke-width="1" fill="none" fill-rule="evenodd">
        <g id="SLING_BRA1101_Election_Display_Debate_B_300x600_Frame_1" transform="translate(-35.000000, -373.000000)">
            <g id="Fox-News" transform="translate(37.000000, 375.500000)">
                <circle id="Oval" stroke="#FFFFFF" stroke-width="2" fill="#23428F" cx="28" cy="28" r="29"></circle>
                <g id="Programming/Logo/Fox-News" transform="translate(11.200000, 11.200000)">
                    <g>
                        <polygon id="Fill-1" fill="#FFFFFF" points="0 33.8816296 34.8855521 33.8816296 34.8855521 0.209876543 0 0.209876543"></polygon>
                        <polygon id="Fill-2" fill="#BC212F" points="34.1744294 33.175479 34.1656258 27.5652691 0.723018405 27.5772321 0.723018405 33.1761086"></polygon>
                        <g id="Group-29" transform="translate(0.000000, 0.091506)">
                            <path d="M3.76823313,31.7731679 C2.75666871,31.7731679 2.09488957,31.3129086 2.09488957,30.6240938 C2.09488957,29.8731556 2.76933742,29.4210815 3.82556442,29.4210815 C4.75446012,29.4210815 5.35246626,29.7447111 5.42268098,30.2798963 L4.3091227,30.2798963 C4.24556442,30.0765259 4.08001227,29.9728469 3.8191227,29.9728469 C3.43734356,29.9728469 3.23378528,30.1886 3.23378528,30.603316 C3.23378528,31.0058593 3.41844785,31.2048222 3.80645399,31.2048222 C4.09289571,31.2048222 4.26467485,31.1011432 4.32823313,30.8856 L5.41623926,30.8856 C5.3080184,31.4455506 4.69734356,31.7731679 3.76823313,31.7731679" id="Fill-3" fill="#FFFFFF"></path>
                            <path d="M12.9067975,30.797263 C12.6585767,30.8428062 12.5441288,30.9091272 12.5441288,31.041979 C12.5441288,31.1953988 12.7030245,31.3032753 12.9512454,31.3032753 C13.3267975,31.3032753 13.5939141,31.1498556 13.5939141,30.9175222 L13.5939141,30.6644111 C13.4030245,30.7433247 13.1548037,30.7515099 12.9067975,30.797263 L12.9067975,30.797263 Z M13.6830245,31.701621 C13.6576871,31.6311025 13.6385767,31.5563864 13.6256933,31.4732753 C13.3139141,31.6766457 12.9703558,31.7721395 12.5503558,31.7721395 C11.8885767,31.7721395 11.4941288,31.5148309 11.4941288,31.1250901 C11.4941288,30.7557074 11.7932393,30.5315593 12.3914601,30.4404728 C13.1739141,30.3202136 13.5939141,30.3533741 13.5939141,30.1831642 L13.5939141,30.1292259 C13.5939141,30.0007815 13.4412454,29.9344605 13.1548037,29.9344605 C12.8367975,29.9344605 12.652135,30.0215593 12.6076871,30.1831642 L11.589681,30.1831642 C11.6979018,29.6813494 12.2194663,29.4448185 13.1803558,29.4448185 C13.772135,29.4448185 14.1856933,29.5361148 14.4210307,29.7310901 C14.6310307,29.9094852 14.6436994,30.1334235 14.6436994,30.4362753 L14.6436994,31.2701148 C14.6436994,31.4650901 14.694589,31.5811519 14.8092515,31.6185099 L14.8092515,31.701621 L13.6830245,31.701621 Z" id="Fill-5" fill="#FFFFFF"></path>
                            <path d="M16.4777423,29.5020309 L17.5595215,29.5020309 L17.5595215,29.8048827 C17.7884172,29.5641543 18.1195215,29.4480926 18.5839693,29.4480926 C19.4046442,29.4480926 19.7101963,29.7095988 19.7101963,30.273537 L19.7101963,31.7048951 L18.6030798,31.7048951 L18.6030798,30.5971667 C18.6030798,30.1906358 18.5775276,29.9956605 18.1384172,29.9956605 C17.7375276,29.9956605 17.5784172,30.1658704 17.5784172,30.5266481 L17.5784172,31.7048951 L16.4777423,31.7048951 L16.4777423,29.5020309 Z" id="Fill-7" fill="#FFFFFF"></path>
                            <path d="M6.82302454,28.7559827 L7.9301411,28.7559827 L7.9301411,29.8221556 C8.18458896,29.5856247 8.50925153,29.4777481 8.96725767,29.4777481 C9.67348466,29.4777481 10.0554785,29.7348469 10.0554785,30.2244889 L10.0554785,31.7385383 L8.94814724,31.7385383 L8.94814724,30.6310198 C8.94814724,30.2244889 8.92280982,30.0293037 8.48369939,30.0293037 C8.08302454,30.0293037 7.92369939,30.1995136 7.92369939,30.5605012 L7.92369939,31.7385383 L6.82302454,31.7385383 L6.82302454,28.7559827 Z" id="Fill-9" fill="#FFFFFF"></path>
                            <path d="M21.7052393,29.5020309 L22.7868037,29.5020309 L22.7868037,29.8048827 C23.0159141,29.5641543 23.3468037,29.4480926 23.8112515,29.4480926 C24.6321411,29.4480926 24.9374785,29.7095988 24.9374785,30.273537 L24.9374785,31.7048951 L23.830362,31.7048951 L23.830362,30.5971667 C23.830362,30.1906358 23.8050245,29.9956605 23.3659141,29.9956605 C22.9650245,29.9956605 22.8059141,30.1658704 22.8059141,30.5266481 L22.8059141,31.7048951 L21.7052393,31.7048951 L21.7052393,29.5020309 Z" id="Fill-11" fill="#FFFFFF"></path>
                            <path d="M28.7962607,30.3669531 C28.789819,30.0806815 28.5480399,29.914879 28.1662607,29.914879 C27.8100337,29.914879 27.5809233,30.0724963 27.5364755,30.3669531 L28.7962607,30.3669531 Z M29.8015982,31.0100148 C29.6042669,31.4910519 28.999819,31.7691383 28.1344816,31.7691383 C27.091138,31.7691383 26.4355859,31.3294469 26.4355859,30.6116691 C26.4355859,29.8731136 27.1038067,29.425237 28.1344816,29.425237 C29.1971503,29.425237 29.8587147,29.8773111 29.8587147,30.6448296 C29.8587147,30.6863852 29.8587147,30.7319284 29.8524877,30.773484 L27.5682546,30.773484 C27.5682546,31.084521 27.7782546,31.2505333 28.1727025,31.2505333 C28.4715982,31.2505333 28.6624877,31.1674222 28.7389294,31.0100148 L29.8015982,31.0100148 Z" id="Fill-13" fill="#FFFFFF"></path>
                            <mask id="mask-2" fill="white">
                                <use xlink:href="#path-1"></use>
                            </mask>
                            <g id="Clip-16"></g>
                            <polygon id="Fill-15" fill="#FFFFFF" mask="url(#mask-2)" points="31.3810429 31.7385802 32.4881595 31.7385802 32.4881595 28.7560247 31.3810429 28.7560247"></polygon>
                            <path d="M0.740389571,4.48684568 L0.71848773,4.49419136 L0.71848773,26.4976481 L5.6998681,3.32224074 C4.01063497,3.55352469 2.35038957,3.9426358 0.740389571,4.48684568" id="Fill-17" fill="#23428F" mask="url(#mask-2)"></path>
                            <path d="M34.106684,19.4273272 C33.7330644,18.5319938 33.3104877,17.6662531 32.8473282,16.8296852 L33.2604571,16.8296852 C33.586408,17.4278333 33.8900276,18.0402531 34.1711012,18.6652654 L34.1734632,0.822611111 L17.8351196,0.822611111 L16.0748129,3.54303086 C18.8106104,4.23289506 21.4321748,5.34691975 23.8587699,6.86684568 C24.3367454,7.16612963 24.802911,7.47947531 25.2583405,7.8052037 L24.6266227,7.8052037 C21.9838006,5.99229012 19.017819,4.64740123 15.8671748,3.86414198 L13.3250583,7.79261111 L11.6800583,7.79261111 L11.6800583,10.3350556 L6.99435276,17.5764259 L5.4923589,17.5764259 L5.48634663,19.9071049 L0.934199387,26.9423765 L34.1700276,26.9388086 L34.1711012,19.580537 L34.106684,19.4273272 Z" id="Fill-18" fill="#23428F" mask="url(#mask-2)"></path>
                            <path d="M12.3863282,3.23896173 C11.3449172,3.12185062 10.2901933,3.06455432 9.22666564,3.07064074 L0.752800613,26.9422086 L0.786726994,26.9422086 L12.3863282,3.23896173 Z" id="Fill-19" fill="#23428F" mask="url(#mask-2)"></path>
                            <path d="M13.5687914,0.822611111 L10.0245583,0.822611111 L9.35268712,2.71569753 C10.4280245,2.71464815 11.4960613,2.77614198 12.5529325,2.8985 L13.5687914,0.822611111 Z" id="Fill-20" fill="#23428F" mask="url(#mask-2)"></path>
                            <path d="M5.78032515,2.94731728 L6.23704294,0.82252716 L0.718638037,0.82252716 L0.718638037,4.10394691 C2.36192025,3.55910741 4.0567362,3.17209506 5.78032515,2.94731728" id="Fill-21" fill="#23428F" mask="url(#mask-2)"></path>
                            <polygon id="Fill-22" fill="#FFFFFF" mask="url(#mask-2)" points="12.0307025 16.4994235 12.0307025 8.13521358 17.372819 8.13521358 17.5368681 10.4222383 14.5468374 10.4222383 14.5468374 11.5135963 16.9828804 11.5135963 16.9828804 13.7953741 14.5266534 13.7953741 14.525365 16.4994235"></polygon>
                            <polygon id="Fill-23" fill="#FFFFFF" mask="url(#mask-2)" points="32.8703466 16.4870198 30.2161442 12.1474025 32.6049479 8.14778519 29.8603466 8.14778519 28.8322485 9.88514321 27.7695798 8.14778519 25.0181074 8.14778519 27.4773405 12.1755259 24.9262055 16.4870198 27.6255 16.4847111 28.8532914 14.4289704 30.1098558 16.4870198"></polygon>
                            <path d="M17.4126503,12.3642889 C17.4126503,10.0354988 19.3747975,8.14765926 21.7953804,8.14765926 C24.2159632,8.14765926 26.1778957,10.0354988 26.1778957,12.3642889 C26.1778957,14.693079 24.2157485,16.5809185 21.7953804,16.5809185 C19.3747975,16.5809185 17.4126503,14.693079 17.4126503,12.3642889 M22.5561472,14.0817086 L22.5718221,10.5266099 C22.5718221,10.1209185 22.2035706,9.75804198 21.7820675,9.75804198 C21.3605644,9.75804198 21.0195828,10.1209185 21.0195828,10.5266099 L21.0187239,14.0712148 C21.0187239,14.4769062 21.3603497,14.8055728 21.7820675,14.8055728 C22.2035706,14.8055728 22.5561472,14.4871901 22.5561472,14.0817086" id="Fill-24" fill="#FFFFFF" mask="url(#mask-2)"></path>
                            <polygon id="Fill-25" fill="#FFFFFF" mask="url(#mask-2)" points="12.9028037 17.885742 17.9683558 17.885742 17.9683558 19.669063 14.8690307 19.669063 14.8690307 20.7921123 17.4163006 20.7921123 17.4163006 22.4432111 14.8690307 22.4432111 14.8690307 23.7423469 18.0070061 23.7423469 18.0070061 25.5256679 12.9028037 25.5256679"></polygon>
                            <polygon id="Fill-26" fill="#FFFFFF" mask="url(#mask-2)" points="18.3506933 17.885742 20.3590061 17.885742 21.3040061 22.3441494 22.2099264 17.885742 23.8931472 17.885742 24.8480245 22.3000753 25.8226564 17.885742 27.4470429 17.885742 25.6158773 25.5256679 23.8242209 25.5256679 22.8987607 21.1772358 22.0029325 25.5256679 20.1717669 25.5256679"></polygon>
                            <path d="M28.9565736,22.8551568 C29.1023712,23.4936012 29.5197945,23.8128235 30.2479233,23.8128235 C30.7237515,23.8128235 31.0052546,23.5817494 31.0052546,23.2843543 C31.0052546,22.7231444 30.5294264,22.7449716 29.6363896,22.480737 C28.1118497,22.040416 27.3738436,21.4240086 27.3738436,20.1691568 C27.3738436,18.7159716 28.4710828,17.6372062 30.2672485,17.6372062 C31.5878006,17.6372062 32.5102546,18.3086012 32.9375552,19.5525395 L31.2189049,20.1139593 C31.0149172,19.5634531 30.6848865,19.3435025 30.1315429,19.3435025 C29.7235675,19.3435025 29.4420644,19.5966136 29.4420644,19.8937988 C29.4420644,20.3452432 29.8790276,20.3672802 30.6752239,20.5874407 C31.3355,20.7744407 31.9470337,20.8957494 32.4716043,21.369021 C32.8986902,21.7541444 33.1220031,22.3157741 33.1220031,22.9982926 C33.1220031,23.636737 32.8890276,24.2422309 32.461727,24.6934654 C31.9083834,25.2771321 31.1315123,25.5963543 30.2090583,25.5963543 C28.5002853,25.5963543 27.3835061,24.7375395 27.063138,23.2623173 L28.9565736,22.8551568 Z" id="Fill-27" fill="#FFFFFF" mask="url(#mask-2)"></path>
                            <polygon id="Fill-28" fill="#FFFFFF" mask="url(#mask-2)" points="10.4561319 17.9155654 10.4561319 21.7546272 8.1066227 17.9191333 5.84214417 17.9191333 5.82260429 25.5202321 7.82511963 25.5160346 7.82511963 21.1128247 10.5072362 25.5202321 12.401316 25.5202321 12.401316 17.9191333"></polygon>
                        </g>
                    </g>
                </g>
            </g>
        </g>
    </g>
</svg>