<svg id="Layer_1" data-name="Layer 1" xmlns="http://www.w3.org/2000/svg" xmlns:xlink="http://www.w3.org/1999/xlink" viewBox="0 0 120.33 25.7"><defs><style>.cls-1{fill:#fff;}.cls-2{fill:url(#linear-gradient);}</style><linearGradient id="linear-gradient" x1="21.21" y1="4.18" x2="5.57" y2="21.04" gradientUnits="userSpaceOnUse"><stop offset="0" stop-color="#45b649"/><stop offset="1" stop-color="#009cc8"/></linearGradient></defs><title>Artboard 2</title><path class="cls-1" d="M32.36,18.52V6.58h5A5.69,5.69,0,0,1,39.59,7,2.92,2.92,0,0,1,41,8a2.79,2.79,0,0,1,.45,1.58,2.58,2.58,0,0,1-.28,1.22,2.47,2.47,0,0,1-.79.88,3.11,3.11,0,0,1-1.16.49v.12a2.86,2.86,0,0,1,1.34.39,2.66,2.66,0,0,1,1,1,2.93,2.93,0,0,1,.37,1.5,3.09,3.09,0,0,1-.49,1.72A3.36,3.36,0,0,1,40,18.09a5.25,5.25,0,0,1-2.25.43Zm2.89-7h1.6a2.06,2.06,0,0,0,.84-.16,1.35,1.35,0,0,0,.57-.45,1.22,1.22,0,0,0,.21-.72A1.15,1.15,0,0,0,38,9.21a1.81,1.81,0,0,0-1.15-.34H35.25Zm0,4.71H37a2.2,2.2,0,0,0,1.39-.36,1.2,1.2,0,0,0,.45-1A1.39,1.39,0,0,0,38,13.53a2.3,2.3,0,0,0-.95-.18H35.25Z"/><path class="cls-1" d="M46,18.67a3.82,3.82,0,0,1-1.52-.28,2.36,2.36,0,0,1-1-.88A2.6,2.6,0,0,1,43,16a2.67,2.67,0,0,1,.27-1.26,2.25,2.25,0,0,1,.72-.84,3.54,3.54,0,0,1,1.06-.48,7.26,7.26,0,0,1,1.28-.23,11.46,11.46,0,0,0,1.23-.15,1.63,1.63,0,0,0,.68-.22.48.48,0,0,0,.22-.43v0a.85.85,0,0,0-.31-.69,1.35,1.35,0,0,0-.84-.24,1.58,1.58,0,0,0-.91.24,1.05,1.05,0,0,0-.43.68l-2.63-.1a3,3,0,0,1,.6-1.46,3.16,3.16,0,0,1,1.34-1,5.13,5.13,0,0,1,2.06-.37,5.65,5.65,0,0,1,1.58.2,4.05,4.05,0,0,1,1.26.58,2.86,2.86,0,0,1,.83.94,2.72,2.72,0,0,1,.29,1.26v6.09H48.63V17.27h-.07A2.45,2.45,0,0,1,48,18a2.63,2.63,0,0,1-.87.48A3.89,3.89,0,0,1,46,18.67Zm.88-1.86a1.75,1.75,0,0,0,.83-.19,1.54,1.54,0,0,0,.59-.51,1.34,1.34,0,0,0,.22-.77v-.85a1.6,1.6,0,0,1-.29.11l-.38.1-.42.08-.41.07a2.45,2.45,0,0,0-.69.2,1.14,1.14,0,0,0-.43.34.88.88,0,0,0-.15.51.78.78,0,0,0,.32.67A1.3,1.3,0,0,0,46.84,16.81Z"/><path class="cls-1" d="M56,13.41v5.11H53.18v-9h2.71v1.65H56a2.45,2.45,0,0,1,1-1.29,3,3,0,0,1,1.71-.47,3.1,3.1,0,0,1,1.64.42,2.89,2.89,0,0,1,1.09,1.18,3.77,3.77,0,0,1,.38,1.76v5.71H59V13.37a1.64,1.64,0,0,0-.38-1.16,1.36,1.36,0,0,0-1.06-.42,1.57,1.57,0,0,0-.79.19,1.28,1.28,0,0,0-.52.56A1.8,1.8,0,0,0,56,13.41Z"/><path class="cls-1" d="M66.55,13.41v5.11H63.7v-9h2.71v1.65h.1a2.45,2.45,0,0,1,1-1.29,3,3,0,0,1,1.71-.47,3.1,3.1,0,0,1,1.64.42A2.89,2.89,0,0,1,72,11.05a3.77,3.77,0,0,1,.38,1.76v5.71H69.49V13.37a1.64,1.64,0,0,0-.38-1.16,1.36,1.36,0,0,0-1.06-.42,1.57,1.57,0,0,0-.79.19,1.28,1.28,0,0,0-.52.56A1.8,1.8,0,0,0,66.55,13.41Z"/><path class="cls-1" d="M78.33,18.69a4.84,4.84,0,0,1-2.42-.56,3.82,3.82,0,0,1-1.57-1.59,5.25,5.25,0,0,1-.54-2.46,5.07,5.07,0,0,1,.55-2.43A3.94,3.94,0,0,1,75.89,10a4.58,4.58,0,0,1,2.35-.58A5.14,5.14,0,0,1,80,9.74a3.74,3.74,0,0,1,1.37.89,3.8,3.8,0,0,1,.9,1.43,5.67,5.67,0,0,1,.32,2v.71H74.79V13.08h5.14a1.7,1.7,0,0,0-.22-.82,1.51,1.51,0,0,0-.57-.55,1.68,1.68,0,0,0-.84-.2,1.77,1.77,0,0,0-.86.21,1.61,1.61,0,0,0-.83,1.4v1.69a2.12,2.12,0,0,0,.21,1,1.66,1.66,0,0,0,.62.64,1.87,1.87,0,0,0,.94.22,2.17,2.17,0,0,0,.69-.1,1.4,1.4,0,0,0,.53-.31,1.22,1.22,0,0,0,.33-.5l2.62.07a3.28,3.28,0,0,1-.71,1.53,3.57,3.57,0,0,1-1.45,1A5.45,5.45,0,0,1,78.33,18.69Z"/><path class="cls-1" d="M84.13,18.52v-9H86.9V11.2H87a2.42,2.42,0,0,1,.8-1.32,2,2,0,0,1,1.28-.44,2.83,2.83,0,0,1,.41,0,2.24,2.24,0,0,1,.39.08V12a2.47,2.47,0,0,0-.53-.12c-.22,0-.41,0-.59,0a1.86,1.86,0,0,0-.91.23,1.63,1.63,0,0,0-.63.62,1.8,1.8,0,0,0-.23.94v4.86Z"/><path class="cls-1" d="M91.11,18.52V6.58h5A5.67,5.67,0,0,1,98.34,7,2.92,2.92,0,0,1,99.71,8a2.8,2.8,0,0,1,.46,1.58,2.59,2.59,0,0,1-.29,1.22,2.47,2.47,0,0,1-.79.88,3.11,3.11,0,0,1-1.16.49v.12a2.86,2.86,0,0,1,1.34.39,2.66,2.66,0,0,1,1,1,2.93,2.93,0,0,1,.37,1.5,3.09,3.09,0,0,1-.49,1.72,3.33,3.33,0,0,1-1.41,1.19,5.3,5.3,0,0,1-2.26.43Zm2.89-7h1.6a2.06,2.06,0,0,0,.84-.16,1.29,1.29,0,0,0,.57-.45,1.22,1.22,0,0,0,.21-.72,1.15,1.15,0,0,0-.43-.95,1.8,1.8,0,0,0-1.14-.34H94Zm0,4.71h1.79a2.19,2.19,0,0,0,1.38-.36,1.2,1.2,0,0,0,.45-1,1.41,1.41,0,0,0-.22-.8,1.49,1.49,0,0,0-.61-.52,2.3,2.3,0,0,0-1-.18H94Z"/><path class="cls-1" d="M106.32,18.69a4.8,4.8,0,0,1-2.43-.58,4,4,0,0,1-1.55-1.62,5.05,5.05,0,0,1-.55-2.42,5.05,5.05,0,0,1,.55-2.42A3.91,3.91,0,0,1,103.89,10a5.36,5.36,0,0,1,4.85,0,4,4,0,0,1,1.56,1.62,5.17,5.17,0,0,1,.54,2.42,5.17,5.17,0,0,1-.54,2.42,4.05,4.05,0,0,1-1.56,1.62A4.76,4.76,0,0,1,106.32,18.69Zm0-2.15a1.24,1.24,0,0,0,.87-.32,2,2,0,0,0,.55-.87,4.19,4.19,0,0,0,.19-1.3,4.24,4.24,0,0,0-.19-1.3,2,2,0,0,0-.55-.88,1.24,1.24,0,0,0-.87-.31,1.31,1.31,0,0,0-.89.31,2.06,2.06,0,0,0-.56.88,4.24,4.24,0,0,0-.19,1.3,4.19,4.19,0,0,0,.19,1.3,2,2,0,0,0,.56.87A1.31,1.31,0,0,0,106.33,16.54Z"/><path class="cls-1" d="M114.36,9.56l1.48,3,1.52-3h2.88L117.74,14l2.59,4.48h-2.85l-1.64-3-1.61,3h-2.89l2.6-4.48-2.47-4.48Z"/><path class="cls-2" d="M26.31,8.21s0-.05,0-.08h0s0-.07,0-.09l0-.06a.86.86,0,0,0-.07-.1l0,0L26,7.76s0,0,0,0L13.58.12a.8.8,0,0,0-.84,0L.33,7.72l0,0,0,0-.05,0A.44.44,0,0,0,.09,8s0,0,0,0a.15.15,0,0,0,0,.09H0v0a.43.43,0,0,0,0,.11v9.13A.69.69,0,0,0,.33,18L.4,18l12.34,7.57a.86.86,0,0,0,.84,0L25.91,18,26,18a.76.76,0,0,0,.2-.2.51.51,0,0,0,.09-.16.65.65,0,0,0,0-.2V8.29S26.31,8.24,26.31,8.21Zm-3.23,6.86-1.33.82-8.59,5.27L4.57,15.89l-1.33-.82-1.15-.7L1.5,14v-1.4l.39.24,1.33.82,1.16.7,1.34.82,7,4.3a.79.79,0,0,0,.84,0l7-4.3L22,14.37l1.14-.7,1.34-.82.4-.25V14l-.6.37ZM3.24,10.62l1.14.71,1.34.82,1.14.69,1.34.83,4.54,2.79a.84.84,0,0,0,.84,0l4.55-2.79,1.34-.82,1.14-.7L22,11.33l1.14-.7,1.34-.82.4-.25V11l-.6.37-1.14.7-1.33.82-1.15.7-1.35.82-6.1,3.75L7.05,14.37l-1.33-.82-1.16-.7L3.22,12l-1.13-.7L1.5,11V9.56l.4.25Zm17.37-.11-7-4.31a.79.79,0,0,0-.84,0l-7,4.31-1.15-.7,8.59-5.28,8.59,5.28ZM18.13,12,13.58,9.24a.84.84,0,0,0-.84,0L8.2,12l-1.15-.7,6.11-3.75,6.1,3.75Zm-1.33.82-3.64,2.23L9.52,12.85l3.64-2.23Zm7.44-4.56h0L23.08,9l-9.5-5.82a.84.84,0,0,0-.84,0L3.24,9,2.09,8.29h0L13.16,1.5ZM13.16,24.21,2.08,17.42l-.58-.36V15.65l.4.24,1.34.82,9.5,5.83a.79.79,0,0,0,.84,0l9.5-5.83,1.33-.82.42-.26v1.43l-.59.36Z"/></svg>