<svg width="52" height="53" xmlns="http://www.w3.org/2000/svg"><g transform="translate(.87 .275)" fill="none" fill-rule="evenodd"><ellipse stroke="#FFF" stroke-width="2" fill="#EE4135" cx="25.428" cy="26" rx="24.422" ry="25"/><path d="M17.503 25.54h5.839c.834 0 1.893.423 1.683 2.193-.036.305-.166 1.756-.312 2.162-.45 1.247-1.767 1.288-1.955 1.304h-5.861l.262-2.456h5.175l.113-1.06h-2.118l-1.479.001c-.905 0-1.543-.668-1.347-2.145zm15.677 0s-.035.365-.083.764c-.096.791-.605 1.38-1.552 1.38h-3.337l-.379 3.515h-2.657l.603-5.66h7.405zm-16.213 0l-.23 2.144h-4.452l-.113 1.06h4.45l-.264 2.455H9.25l.608-5.66h7.109zm16.752-.002l2.66.002-.608 5.658-2.658.001.606-5.66zm5.051 0l2.658.002-.606 5.658-2.66.001.608-5.66zm-18.963-3.581H31.573c1.478 0 1.883 1.004 1.764 2.111l-.053.483H17.608s.04-.357.082-.762c.114-1.099.912-1.834 2.117-1.832zm-9.566-.001l7.11.001-.278 2.594h-7.11l.278-2.595zm29.66.001c.916 0 1.87.492 1.68 2.195l-.043.399h-7.712l.277-2.594h5.798z" fill="#FFF"/></g></svg>