<?xml version="1.0" encoding="UTF-8"?>
<svg width="100px" height="50px" viewBox="0 0 100 50" version="1.1" xmlns="http://www.w3.org/2000/svg" xmlns:xlink="http://www.w3.org/1999/xlink">
    <!-- Generator: Sketch 59.1 (86144) - https://sketch.com -->
    <title>Artboard</title>
    <desc>Created with Sketch.</desc>
    <g id="Artboard" stroke="none" stroke-width="1" fill="none" fill-rule="evenodd">
        <g id="dish-logo" transform="translate(6.000000, 8.068438)" fill="#ED1944" fill-rule="nonzero">
            <path d="M31.984654,14.9315622 L32.007673,14.9315622 C33.9335902,14.9250363 35.5449154,13.7634249 35.9899481,12.1972073 C36.0359859,12.0405856 35.9208913,11.8643861 35.7060479,11.9622747 C34.3862959,12.6148654 32.9744681,12.7845389 32,12.7845389 C31.0255319,12.7845389 29.6137041,12.6083395 28.2939521,11.9622747 C28.0791087,11.8578602 27.9640141,12.0405856 28.0100519,12.1972073 C28.4474116,13.756899 30.0587368,14.9185104 31.984654,14.9315622 Z" id="Path"></path>
            <path d="M32.4773565,23.9315622 L32.5150957,23.9315622 C35.1568399,23.9159742 37.3683572,21.9830558 37.9872801,19.3720572 C38.0476628,19.1070603 37.8891582,18.8108873 37.5947924,18.9823559 C35.7833107,20.0735195 33.8359678,20.3541044 32.5,20.3541044 C31.1640322,20.3541044 29.2166893,20.0657254 27.4052076,18.9823559 C27.1108418,18.8108873 26.9523372,19.1070603 27.0127199,19.3720572 C27.624095,21.9752618 29.8356123,23.9159742 32.4773565,23.9315622 Z" id="Path"></path>
            <path d="M32.5,7.93156223 C34.4366667,7.93156223 36,6.3682289 36,4.43156223 C36,2.49489556 34.4366667,0.931562229 32.5,0.931562229 C30.61,0.931562229 29,2.49489556 29,4.43156223 C29,6.3682289 30.61,7.93156223 32.5,7.93156223 Z" id="Path"></path>
            <path d="M21.637741,1.93156223 L16.6223705,1.93156223 C16.418739,1.93156223 16.2603588,2.09888313 16.2603588,2.29662602 L16.2603588,12.9671363 C14.5785128,11.1190009 12.3310235,9.99338755 9.79694162,9.99338755 C4.38939186,9.99338755 0,15.1270971 0,21.4624749 C0,27.7978527 4.38939186,32.9315622 9.79694162,32.9315622 C12.3310235,32.9315622 14.5860547,31.8059489 16.2603588,29.9578135 L16.2603588,32.0265083 C16.2603588,32.2318566 16.4262809,32.391572 16.6223705,32.391572 L21.637741,32.391572 C21.8413725,32.391572 21.9997527,32.2242511 21.9997527,32.0265083 L21.9997527,2.30423151 C22.0072946,2.09888313 21.8413725,1.93156223 21.637741,1.93156223 Z M16.2603588,21.5081079 C16.2377331,25.1587457 13.892199,28.109678 10.9961054,28.109678 C8.09246987,28.109678 5.73185191,25.1283238 5.73185191,21.4548694 C5.73185191,17.781415 8.08492796,14.8000608 10.9961054,14.8000608 C13.892199,14.8000608 16.2377331,17.750993 16.2603588,21.4016309 L16.2603588,21.5081079 Z" id="Shape"></path>
            <path d="M88.8755556,30.9315622 L88.4044444,30.9315622 L88.12,31.4261274 C88.0844444,31.5022144 88.0488889,31.5837361 88.0044444,31.6761274 L87.9955556,31.6761274 C87.9511111,31.5728666 87.9244444,31.5022144 87.8888889,31.4206927 L87.6044444,30.9315622 L87.1155556,30.9315622 L87,31.9315622 L87.3111111,31.9315622 L87.3733333,31.3446057 C87.3822222,31.2522144 87.3822222,31.1543883 87.3822222,31.0674318 L87.4,31.0674318 C87.4355556,31.1543883 87.48,31.2739535 87.5155556,31.3500405 L87.8088889,31.9206927 L88.1466667,31.9206927 L88.44,31.3663448 C88.4844444,31.2739535 88.5377778,31.1543883 88.5822222,31.0674318 L88.6,31.0674318 C88.6088889,31.1761274 88.6088889,31.2685188 88.6088889,31.3446057 L88.6711111,31.9315622 L89,31.9315622 L88.8755556,30.9315622 L88.8755556,30.9315622 Z" id="Path"></path>
            <polygon id="Path" points="86 31.1000405 86.3806452 31.1000405 86.3806452 31.9315622 86.6193548 31.9315622 86.6193548 31.1000405 87 31.1000405 87 30.9315622 86 30.9315622"></polygon>
            <path d="M76.1120977,9.87362017 C73.3851276,9.87362017 71.2874584,10.9825113 69.9123196,12.7807131 L69.9123196,2.29120259 C69.9123196,2.08890489 69.7413984,1.93156223 69.5394007,1.93156223 L64.372919,1.93156223 C64.1631521,1.93156223 64,2.09639739 64,2.29120259 L64,31.5644294 C64,31.7667271 64.1709212,31.9240697 64.372919,31.9240697 L69.5394007,31.9240697 C69.7491676,31.9240697 69.9123196,31.7592346 69.9123196,31.5644294 L69.9123196,19.0519418 C69.9123196,16.219774 72.017758,14.6388549 74.5504994,14.6388549 C77.0832408,14.6388549 79.0799112,16.1448489 79.0799112,19.8386551 L79.0876804,31.5719219 C79.0876804,31.7742196 79.2586016,31.9315622 79.4605993,31.9315622 L84.627081,31.9315622 C84.8368479,31.9315622 85,31.7667271 85,31.5719219 L85,19.4865073 C84.9922309,12.8406531 81.0377358,9.87362017 76.1120977,9.87362017 L76.1120977,9.87362017 Z" id="Path"></path>
            <path d="M38.4855616,26.9924011 C36.17997,28.299903 33.7075265,28.6397057 32.0010854,28.6470927 C30.2946443,28.6544798 27.8222007,28.299903 25.5166092,26.9924011 C25.1374,26.7855646 24.9402113,27.1475284 25.0160531,27.4577831 C25.7972239,30.589878 28.6185399,32.9167882 31.9783328,32.9315622 L32.0162537,32.9315622 C35.3760467,32.9094012 38.1973626,30.589878 38.9785334,27.4577831 C39.0695436,27.1475284 38.8647707,26.7855646 38.4855616,26.9924011 L38.4855616,26.9924011 Z" id="Path"></path>
            <path d="M48.1078417,16.4822917 C48.1078417,15.5137903 49.4561403,14.8121988 51.5316111,14.8121988 C53.894921,14.8121988 56.1143113,15.6586842 57.5004835,16.8407134 C57.7277248,17.0313633 58.0685868,17.0084853 58.2579546,16.7797055 C58.2806787,16.7568275 58.2958281,16.7263235 58.3185523,16.6958195 L60.0077128,13.3175039 C60.1364829,13.088724 60.0758852,12.7989362 59.871368,12.6387903 C57.7883225,11.0602094 54.9781047,9.93156223 51.4937376,9.93156223 C45.7748307,9.93156223 42.5783026,13.149732 42.5783026,16.8254614 C42.5783026,25.4047055 55.5083345,22.4381935 55.5083345,26.2054349 C55.5083345,27.2349442 54.3342542,28.1119336 51.8573237,28.1119336 C49.3955426,28.1119336 46.4868535,27.1358063 44.797693,25.7783792 C44.5628769,25.5953553 44.2220149,25.6334853 44.0402219,25.8698911 C44.0250724,25.8851431 44.0174977,25.9003951 44.0023483,25.9232731 L42.0783717,29.1566949 C41.9420269,29.3778487 41.9874752,29.6600105 42.1844176,29.8277824 C44.4947045,31.780037 47.9790716,32.9315622 51.5846341,32.9315622 C57.6216789,32.9315622 61,29.9345463 61,25.9003951 C60.9924253,17.2601431 48.1078417,19.9292413 48.1078417,16.4822917 L48.1078417,16.4822917 Z" id="Path"></path>
        </g>
    </g>
</svg>