<?xml version="1.0" encoding="utf-8"?>
<!-- Generator: Adobe Illustrator 22.1.0, SVG Export Plug-In . SVG Version: 6.00 Build 0)  -->
<svg version="1.1" id="Layer_1" xmlns="http://www.w3.org/2000/svg" xmlns:xlink="http://www.w3.org/1999/xlink" x="0px" y="0px"
	 viewBox="0 0 431.5 303.6" style="enable-background:new 0 0 431.5 303.6;" xml:space="preserve">
<style type="text/css">
	.st0{fill:#E41932;}
	.st1{fill-rule:evenodd;clip-rule:evenodd;fill:#E41932;}
</style>
<g>
	<polygon class="st0" points="66.6,224.2 54.2,280.4 83.6,280.2 80.5,294.4 34,294.6 49.3,224.3 	"/>
	<path class="st0" d="M146.4,223.5l7.7,70.2l-16.8,0.1l-1-13.9l-25.6,0.1l-7.5,13.9l-18.2,0.1l42.1-70.5L146.4,223.5z M133.4,238.3
		l-15.7,29l17.7-0.1L133.4,238.3z"/>
	<polygon class="st0" points="217.3,223.2 213.9,236.8 195.9,236.9 183.6,293.6 166.2,293.7 178.5,237.1 159.5,237.1 162.7,223.5 	
		"/>
	<polygon class="st0" points="244.7,223 229.5,293.4 212.1,293.5 227.3,223.1 	"/>
	<polygon class="st0" points="314.6,222.6 299.1,292.9 282.1,293 268.2,248 258.7,293.2 242.8,293.3 258.3,222.9 275.4,222.8 
		289.5,268.1 298.8,222.7 	"/>
	<path class="st0" d="M366.2,290.1c-5.5,2.9-11.8,4.2-18.1,4.2c-11.8,0.1-19.8-4.4-24-9c-5-5.6-7-13.8-7-21.3
		c0-15.5,9.8-43.4,39.8-43.6c16.2-0.1,31.1,9,31.1,29.8c0,7.5-1.6,15.3-5.4,22.3C378.9,279.8,373.3,286.3,366.2,290.1 M334.6,264.6
		c0.1,11.2,7.2,15.8,14.5,15.8c16.1,0,21.6-20.4,21.6-30c-0.1-15.1-12.7-15.9-15.9-15.6C337.6,235.8,334.5,258.6,334.6,264.6"/>
	<path class="st0" d="M216.5,97.1c0,21.5,15.5,32.1,32.8,42l15.4,8.9c8.4,4.8,12.1,10.2,12.1,17.6c0,9.7-7.1,15.8-18.5,15.8
		c-21.1,0-27.4-17.7-30.8-35.1l-0.5-2.7h-10.3v48.8h8l1-1.1c1.8-2.1,1.8-2.1,3.6-2.1c3.1-0.1,7.1,0.8,11.7,1.9
		c5.8,1.4,12.3,2.9,19.2,2.9c17.4,0,41.9-11.8,41.9-38.1c0-18.3-10.8-26.6-24-34.7c0,0-28.8-17.3-28.8-17.3c-6.6-4-9.8-9.3-9.8-16.2
		c0-5.7,4.5-14.2,16.9-14.2c9.2,0,20.6,3.5,26.3,30.5l0.6,2.7h10.1L292.3,63h-8.1l-0.9,1.7c-0.5,0.8-1.2,1.3-1.9,1.3
		c-0.4,0-2.7-0.8-4.1-1.2c-5.1-1.7-12.9-4.2-20.7-4.2C233.4,60.6,216.5,75.9,216.5,97.1"/>
	<path class="st0" d="M29.5,121.6c0-34.5,16-46.8,29.7-46.8c15.1,0,24.1,12.8,24.1,25.2v59.9c-1.8,7.7-10.4,13.3-20.4,13.3
		C47.5,173.2,29.5,159.7,29.5,121.6 M107.4,0.4l-0.9,0.3c-4.8,1.7-23.6,8-38.8,11.7l-2.5,0.6v10.7l3.7-0.4c8.5-0.9,11.8,0.2,13,1.3
		c1.4,1.3,1.5,3.9,1.5,8v36C75.5,63,68,60.6,58.4,60.6c-15.1,0-30.2,7.7-41.3,21.1C6.3,94.9,0,112.6,0,130.2
		c0,62,46.5,63.7,51.8,63.7c12.9,0,23.5-4.1,31.5-12v9.5l3.8,2.9l43-15.4v-10.3l-3.6,0.3c-8.4,0.7-11.6-0.5-12.8-1.7
		c-1.2-1.2-1.5-3.2-1.5-6.8V2.1l-4.6-1.9L107.4,0.4z"/>
	<path class="st0" d="M428.8,180.6c-11.7-2.1-13.2-2.4-13.2-19.6v-54.2c0-30.7-12.1-46.2-36-46.2c-13.5,0-25.9,5.9-35.8,16.8V2.7
		l-4.4-2.7l-0.4,0.2l-1.1,0.5c-5.6,2.3-27.4,8.9-37.4,11.7l-2.4,0.7v10.6l3.7-0.4c2.2-0.3,3.9-0.3,6.3-0.3c2.5,0,4.2,0.5,5.2,1.6
		c1.7,1.7,1.6,5.1,1.6,7.8l0,1.2v126.7c0,17.2-1.1,18.7-14.1,20.1l-3,0.3v10.4h61.7v-10.7l-0.5-0.1c-11.9-1.3-15.1-1.6-15.1-19.8
		V96.8c1.5-1.9,12.5-15,26-15c11.7,0,16.9,8,16.9,26V161c0,16.7-2.9,18.6-15,19.5l-0.3,0v10.7h60.3v-10.2L428.8,180.6"/>
	<path class="st1" d="M173,188.8c20.4,0,30.6-11.9,37.9-26c0.5-0.9,0.1-1.6-0.8-1.2c-5.4,2.5-19.6,9.2-37.1,9.2
		c-17.5,0-31.7-6.7-37.1-9.2c-0.9-0.4-1.3,0.2-0.8,1.2C142.3,176.9,152.6,188.8,173,188.8"/>
	<path class="st1" d="M143.2,128.6c5.6,11,13.7,20.6,29.8,20.6c16.1,0,24.1-9.6,29.8-20.6c0.4-0.7,0.1-1.3-0.7-0.9
		c-3.6,1.7-14.8,6.7-29,6.7c-14.3,0-25.5-5-29-6.7C143.2,127.3,142.8,127.8,143.2,128.6"/>
	<path class="st1" d="M150.7,97.2c4.1,8.2,10.2,15.7,22.3,15.7c12.2,0,18.2-7.5,22.3-15.7c0.3-0.6,0-1-0.6-0.8
		c-1.9,0.9-10.4,4.4-21.7,4.4c-11.3,0-19.8-3.6-21.7-4.4C150.6,96.2,150.4,96.7,150.7,97.2"/>
	<path class="st1" d="M173,78.8c8.5,0,12.6-5.5,15.3-11c0.2-0.4,0-0.8-0.5-0.6c-0.4,0.1-6.3,2.3-14.8,2.3c-8.5,0-14.4-2.2-14.8-2.3
		c-0.5-0.2-0.7,0.2-0.5,0.6C160.4,73.3,164.5,78.8,173,78.8"/>
	<path class="st0" d="M149.8,23.5c0-13,10.4-23.5,23.2-23.5c12.8,0,23.2,10.5,23.2,23.5c0,13-10.4,23.5-23.2,23.5
		C160.2,47,149.8,36.5,149.8,23.5"/>
	<path class="st0" d="M383.9,303.6c-3.6,0-6.4-2.9-6.4-6.4c0-3.6,2.9-6.4,6.4-6.4c3.5,0,6.4,2.8,6.4,6.3
		C390.3,300.8,387.6,303.6,383.9,303.6z M383.9,291.8c-2.9,0-5.2,2.4-5.2,5.4c0,3,2.3,5.3,5.2,5.3c2.9,0,5.2-2.4,5.2-5.2
		C389.1,294.2,386.9,291.8,383.9,291.8z M383.6,293.4c1.3,0,1.8,0.1,2.3,0.4c0.6,0.4,1,1.1,1,2c0,1-0.4,1.6-1.3,2l1.4,3h-2l-1-2.7
		h-0.9v2.7h-1.8v-7.4H383.6z M383.1,296.7h0.9c0.7,0,1-0.2,1-0.9c0-0.6-0.3-0.9-1-0.9h-0.9V296.7z"/>
</g>
</svg>
