<?xml version="1.0" encoding="UTF-8"?>
<svg width="100px" height="50px" viewBox="0 0 100 50" version="1.1" xmlns="http://www.w3.org/2000/svg" xmlns:xlink="http://www.w3.org/1999/xlink">
    <!-- Generator: Sketch 59.1 (86144) - https://sketch.com -->
    <title>Artboard</title>
    <desc>Created with Sketch.</desc>
    <g id="Artboard" stroke="none" stroke-width="1" fill="none" fill-rule="evenodd">
        <g id="Group" transform="translate(-0.000000, 13.112745)" fill-rule="nonzero">
            <g id="ontech-logo-beacon" transform="translate(0.000000, 0.887255)">
                <circle id="Oval" fill="#1006E1" cx="11.4936464" cy="11.4936464" r="11.4936464"></circle>
                <path d="M11.4936464,4.46022099 C12.3513812,4.46022099 13.0502762,5.15276243 13.0502762,6.01685083 C13.0502762,6.88093923 12.3577348,7.57348066 11.4936464,7.57348066 C10.6549724,7.57348066 9.93701657,6.88093923 9.93701657,6.01685083 C9.93701657,5.15276243 10.6549724,4.46022099 11.4936464,4.46022099 Z" id="Path" fill="#FFFFFF"></path>
                <path d="M9.8480663,9.37154696 C10.4453039,9.71464088 11.080663,9.80994475 11.5190608,9.80994475 C11.9574586,9.80994475 12.5928177,9.72099448 13.1900552,9.37154696 C13.2853591,9.31436464 13.3425414,9.40966851 13.3171271,9.49226519 C13.1138122,10.318232 12.3895028,10.9345304 11.5254144,10.940884 L11.5127072,10.940884 C10.6486188,10.9345304 9.9179558,10.318232 9.72099448,9.49226519 C9.69558011,9.40966851 9.75276243,9.31436464 9.8480663,9.37154696 L9.8480663,9.37154696 Z" id="Path" fill="#FFFFFF"></path>
                <path d="M9.18729282,12.5229282 C10.0196133,13.0058011 10.909116,13.1328729 11.5190608,13.1328729 C12.1290055,13.1328729 13.0185083,13.0058011 13.8508287,12.5229282 C13.9842541,12.4466851 14.0604972,12.5801105 14.0287293,12.6944751 C13.7491713,13.8508287 12.7325967,14.7085635 11.5254144,14.7149171 L11.5127072,14.7149171 C10.3055249,14.7085635 9.28895028,13.8508287 9.00939227,12.6944751 C8.97762431,12.5801105 9.04751381,12.4466851 9.18729282,12.5229282 L9.18729282,12.5229282 Z" id="Path" fill="#FFFFFF"></path>
                <path d="M14.6958564,16.4430939 C14.3400552,17.9107735 13.0566298,18.9972376 11.5254144,19.0035912 L11.5063536,19.0035912 C9.97513812,18.9972376 8.69171271,17.9107735 8.3359116,16.4430939 C8.29779006,16.2969613 8.39309392,16.1254144 8.56464088,16.2270718 C9.61298343,16.8370166 10.7439227,16.9958564 11.5190608,17.0022099 C12.2941989,17.0022099 13.4187845,16.8433702 14.4734807,16.2270718 C14.638674,16.1254144 14.7339779,16.2906077 14.6958564,16.4430939 L14.6958564,16.4430939 Z" id="Path" fill="#FFFFFF"></path>
            </g>
            <g id="ontech-logo-text" transform="translate(28.000000, 2.887255)" fill="white">
                <path d="M29.6485391,20.0025 C29.8566447,20.2059375 30.2923657,20.4028125 30.6565504,20.4028125 C30.9882187,20.4028125 31.1442978,20.2846875 31.1442978,20.1075 C31.1442978,19.9040625 30.8906692,19.8253125 30.5590009,19.7596875 C30.0582469,19.66125 29.4144204,19.543125 29.4144204,18.8409375 C29.4144204,18.34875 29.8436381,17.915625 30.604524,17.915625 C31.0987747,17.915625 31.4889727,18.08625 31.7751178,18.3159375 L31.4759661,18.8475 C31.300377,18.6571875 30.9687088,18.50625 30.6175306,18.50625 C30.3378888,18.50625 30.1622997,18.61125 30.1622997,18.781875 C30.1622997,18.965625 30.3899152,19.03125 30.7150801,19.096875 C31.2158341,19.1953125 31.8856739,19.3265625 31.8856739,20.055 C31.8856739,20.593125 31.430443,21 30.6240339,21 C30.1167766,21 29.6290292,20.829375 29.3233742,20.540625 L29.6485391,20.0025 L29.6485391,20.0025 Z" id="Path"></path>
                <path d="M35.872196,19.070625 C35.872196,18.795 35.7551367,18.6046875 35.436475,18.6046875 C35.1633365,18.6046875 34.9422243,18.7884375 34.8316682,18.9459375 L34.8316682,20.9278125 L34.0577757,20.9278125 L34.0577757,19.070625 C34.0577757,18.795 33.9407163,18.6046875 33.6220547,18.6046875 C33.3554194,18.6046875 33.1343073,18.7884375 33.0172479,18.9525 L33.0172479,20.9278125 L32.2498586,20.9278125 L32.2498586,17.9878125 L33.0172479,17.9878125 L33.0172479,18.3684375 C33.1343073,18.19125 33.5245052,17.9090625 33.9667295,17.9090625 C34.3959472,17.9090625 34.6690858,18.1125 34.7731385,18.440625 C34.9422243,18.1715625 35.3259189,17.9090625 35.7746466,17.9090625 C36.3079171,17.9090625 36.633082,18.1978125 36.633082,18.795 L36.633082,20.9146875 L35.8591894,20.9146875 L35.8591894,19.070625 L35.872196,19.070625 Z" id="Path"></path>
                <path d="M38.460509,17.915625 C38.005278,17.915625 37.5435438,18.06 37.1923657,18.375 L37.4850141,18.8934375 C37.7321395,18.66375 38.0182846,18.545625 38.3369463,18.545625 C38.7206409,18.545625 38.9742696,18.7425 38.9742696,19.0378125 L38.9742696,19.4446875 C38.7791706,19.2084375 38.4409991,19.08375 38.0508011,19.08375 C37.5890669,19.08375 37.0362865,19.333125 37.0362865,20.0221875 C37.0362865,20.6784375 37.5825636,20.9934375 38.0508011,20.9934375 C38.4279925,20.9934375 38.7726673,20.855625 38.9742696,20.619375 L38.9742696,20.92125 L39.7416588,20.92125 L39.7416588,19.0246875 C39.7286522,18.178125 39.1238454,17.915625 38.460509,17.915625 L38.460509,17.915625 Z M38.961263,20.2190625 C38.8377003,20.3896875 38.5905749,20.475 38.3499529,20.475 C38.0508011,20.475 37.8036758,20.3175 37.8036758,20.041875 C37.8036758,19.7596875 38.0508011,19.595625 38.3499529,19.595625 C38.5970782,19.595625 38.8377003,19.6809375 38.961263,19.8515625 L38.961263,20.2190625 L38.961263,20.2190625 Z" id="Shape"></path>
                <path d="M40.1773798,17.9878125 L40.9447691,17.9878125 L40.9447691,18.388125 C41.1528746,18.125625 41.5105561,17.9221875 41.8747408,17.9221875 L41.8747408,18.676875 C41.8227144,18.66375 41.7511781,18.6571875 41.6666352,18.6571875 C41.4130066,18.6571875 41.0748351,18.795 40.9512724,18.9853125 L40.9512724,20.9278125 L40.1838831,20.9278125 L40.1838831,17.9878125 L40.1773798,17.9878125 Z" id="Path"></path>
                <path d="M42.6746466,20.1928125 L42.6746466,18.6571875 L42.1934025,18.6571875 L42.1934025,17.98125 L42.6746466,17.98125 L42.6746466,17.180625 L43.4485391,17.180625 L43.4485391,17.98125 L44.0403393,17.98125 L44.0403393,18.6571875 L43.4485391,18.6571875 L43.4485391,19.9828125 C43.4485391,20.1665625 43.5460886,20.304375 43.7151744,20.304375 C43.8322337,20.304375 43.9362865,20.265 43.9818096,20.2190625 L44.1443921,20.803125 C44.0273327,20.908125 43.8257304,20.9934375 43.5070688,20.9934375 C42.967295,21 42.6746466,20.7178125 42.6746466,20.1928125 L42.6746466,20.1928125 Z" id="Path"></path>
                <path d="M45.9523091,20.0025 C46.1604147,20.2059375 46.5961357,20.4028125 46.9603205,20.4028125 C47.2919887,20.4028125 47.4480679,20.2846875 47.4480679,20.1075 C47.4480679,19.9040625 47.1944392,19.8253125 46.862771,19.7596875 C46.362017,19.66125 45.7181904,19.543125 45.7181904,18.8409375 C45.7181904,18.34875 46.1474081,17.915625 46.9082941,17.915625 C47.4025448,17.915625 47.7927427,18.08625 48.0788878,18.3159375 L47.7797361,18.8475 C47.604147,18.6571875 47.2724788,18.50625 46.9213007,18.50625 C46.6416588,18.50625 46.4660697,18.61125 46.4660697,18.781875 C46.4660697,18.965625 46.6936852,19.03125 47.0188501,19.096875 C47.5196041,19.1953125 48.1894439,19.3265625 48.1894439,20.055 C48.1894439,20.593125 47.7407163,21 46.927804,21 C46.4205467,21 45.9327992,20.829375 45.6271442,20.540625 L45.9523091,20.0025 L45.9523091,20.0025 Z" id="Path"></path>
                <path d="M51.4150801,19.53 C51.4150801,18.571875 50.8232799,17.915625 49.9583412,17.915625 C49.0738926,17.915625 48.4495759,18.6046875 48.4495759,19.45125 C48.4495759,20.39625 49.1194156,20.9934375 50.0038643,20.9934375 C50.4525919,20.9934375 50.9078228,20.8621875 51.2004713,20.5865625 L50.8622997,20.0878125 C50.6737041,20.2715625 50.3550424,20.383125 50.0884072,20.383125 C49.5941565,20.383125 49.301508,20.0746875 49.2494816,19.700625 L51.4150801,19.700625 L51.4150801,19.53 L51.4150801,19.53 Z M49.236475,19.175625 C49.2754948,18.8803125 49.4770971,18.5259375 49.9518379,18.5259375 C50.4590952,18.5259375 50.6541942,18.8934375 50.6672008,19.175625 L49.236475,19.175625 Z" id="Shape"></path>
                <path d="M51.8508011,17.9878125 L52.6181904,17.9878125 L52.6181904,18.388125 C52.8262959,18.125625 53.1839774,17.9221875 53.5481621,17.9221875 L53.5481621,18.676875 C53.4961357,18.66375 53.4245994,18.6571875 53.3400566,18.6571875 C53.0864279,18.6571875 52.7482564,18.795 52.6246937,18.9853125 L52.6246937,20.9278125 L51.8573044,20.9278125 L51.8573044,17.9878125 L51.8508011,17.9878125 Z" id="Path"></path>
                <polygon id="Path" points="53.7302545 17.9878125 54.5496701 17.9878125 55.3105561 20.02875 56.071442 17.9878125 56.897361 17.9878125 55.7267672 20.92125 54.9008483 20.92125"></polygon>
                <path d="M57.0469369,17.1478125 C57.0469369,16.891875 57.2550424,16.6884375 57.5021678,16.6884375 C57.7557964,16.6884375 57.9573987,16.891875 57.9573987,17.1478125 C57.9573987,17.40375 57.7492931,17.6071875 57.5021678,17.6071875 C57.2550424,17.6071875 57.0469369,17.40375 57.0469369,17.1478125 Z" id="Path"></path>
                <rect id="Rectangle" x="57.1249764" y="17.9878125" width="1" height="2.94"></rect>
                <path d="M59.8238454,17.915625 C60.4221489,17.915625 60.7798303,18.178125 60.9749293,18.4471875 L60.4741753,18.913125 C60.337606,18.7096875 60.1229972,18.598125 59.8628652,18.598125 C59.401131,18.598125 59.0759661,18.939375 59.0759661,19.45125 C59.0759661,19.963125 59.401131,20.3109375 59.8628652,20.3109375 C60.1295005,20.3109375 60.337606,20.18625 60.4741753,19.9959375 L60.9749293,20.461875 C60.7798303,20.7375 60.4221489,20.9934375 59.8238454,20.9934375 C58.9263902,20.9934375 58.2825636,20.356875 58.2825636,19.45125 C58.2825636,18.5521875 58.9263902,17.915625 59.8238454,17.915625 L59.8238454,17.915625 Z" id="Path"></path>
                <path d="M64.0704995,19.53 C64.0704995,18.571875 63.4786993,17.915625 62.6137606,17.915625 C61.729312,17.915625 61.1049953,18.6046875 61.1049953,19.45125 C61.1049953,20.39625 61.7748351,20.9934375 62.6592837,20.9934375 C63.1080113,20.9934375 63.5632422,20.8621875 63.8558907,20.5865625 L63.5177191,20.0878125 C63.3291235,20.2715625 63.0104618,20.383125 62.7438266,20.383125 C62.2495759,20.383125 61.9569274,20.0746875 61.904901,19.700625 L64.0704995,19.700625 L64.0704995,19.53 L64.0704995,19.53 Z M61.8983977,19.175625 C61.9374175,18.8803125 62.1390198,18.5259375 62.6137606,18.5259375 C63.1210179,18.5259375 63.3161169,18.8934375 63.3291235,19.175625 L61.8983977,19.175625 Z" id="Shape"></path>
                <path d="M64.5257304,20.0025 C64.733836,20.2059375 65.169557,20.4028125 65.5337418,20.4028125 C65.86541,20.4028125 66.0214892,20.2846875 66.0214892,20.1075 C66.0214892,19.9040625 65.7678605,19.8253125 65.4361923,19.7596875 C64.9354383,19.66125 64.2916117,19.543125 64.2916117,18.8409375 C64.2916117,18.34875 64.7208294,17.915625 65.4817154,17.915625 C65.9759661,17.915625 66.366164,18.08625 66.6523091,18.3159375 L66.3531574,18.8475 C66.1775683,18.6571875 65.8459001,18.50625 65.494722,18.50625 C65.2150801,18.50625 65.039491,18.61125 65.039491,18.781875 C65.039491,18.965625 65.2671065,19.03125 65.5922714,19.096875 C66.0930254,19.1953125 66.7628652,19.3265625 66.7628652,20.055 C66.7628652,20.593125 66.3076343,21 65.5012253,21 C64.993968,21 64.5062205,20.829375 64.2005655,20.540625 L64.5257304,20.0025 L64.5257304,20.0025 Z" id="Path"></path>
                <path d="M40.2944392,4.01625 C37.1013195,4.01625 34.8641847,6.496875 34.8641847,9.568125 C34.8641847,12.9675 37.2769086,15.1396875 40.4700283,15.1396875 C42.03082,15.1396875 43.598115,14.6934375 44.664656,13.7878125 C44.7426956,13.7221875 44.7557022,13.610625 44.7036758,13.5253125 L43.7021678,12.04875 C43.6371348,11.956875 43.5070688,11.930625 43.4225259,12.009375 C42.7331762,12.5803125 41.6796418,12.9215625 40.7756833,12.9215625 C38.9937795,12.9215625 37.9272385,11.8059375 37.7516494,10.4671875 L45.360509,10.4671875 C45.471065,10.4671875 45.5556079,10.381875 45.5556079,10.2703125 L45.5556079,9.8503125 C45.5556079,6.3853125 43.4225259,4.01625 40.2944392,4.01625 L40.2944392,4.01625 Z M37.7061263,8.5771875 C37.8361923,7.5271875 38.5775683,6.2278125 40.2944392,6.2278125 C42.1218662,6.2278125 42.8177191,7.5665625 42.8827521,8.5771875 L37.7061263,8.5771875 L37.7061263,8.5771875 Z" id="Shape"></path>
                <path d="M51.8117813,4.01625 C53.8603205,4.01625 55.134967,4.869375 55.8568332,5.80125 C55.9153629,5.88 55.9088596,5.998125 55.8373233,6.06375 L54.3220547,7.48125 C54.2375118,7.56 54.1074458,7.546875 54.0359095,7.455 C53.5351555,6.838125 52.8262959,6.48375 51.9483506,6.48375 C50.2770028,6.48375 49.0999057,7.7109375 49.0999057,9.555 C49.0999057,11.3990625 50.2770028,12.6459375 51.9483506,12.6459375 C52.8262959,12.6459375 53.5416588,12.2784375 54.0359095,11.6746875 C54.1074458,11.589375 54.2375118,11.57625 54.3220547,11.655 L55.8438266,13.0790625 C55.9153629,13.15125 55.9283695,13.2628125 55.8633365,13.3415625 C55.1544769,14.2603125 53.8928369,15.106875 51.8898209,15.1265625 C48.8267672,15.159375 46.2709708,12.691875 46.2514609,9.6009375 C46.2254477,6.339375 48.560132,4.01625 51.8117813,4.01625 L51.8117813,4.01625 Z" id="Path"></path>
                <path d="M7.61536287,0 C3.24514609,0 0.0520263902,3.1565625 0.0520263902,7.5665625 C0.0520263902,11.9765625 3.24514609,15.133125 7.61536287,15.133125 C12.0050895,15.133125 15.1982092,11.9765625 15.1982092,7.5665625 C15.1982092,3.1565625 12.0050895,0 7.61536287,0 Z M7.61536287,12.3703125 C4.94250707,12.3703125 3.22563619,10.2834375 3.22563619,7.5665625 C3.22563619,4.8234375 4.94250707,2.7628125 7.61536287,2.7628125 C10.2882187,2.7628125 12.0311027,4.8234375 12.0311027,7.5665625 C12.0311027,10.2834375 10.2882187,12.3703125 7.61536287,12.3703125 Z" id="Shape"></path>
                <path d="M29.3103676,2.9859375 L25.2653157,2.9859375 C25.1547597,2.9859375 25.0702168,2.900625 25.0702168,2.7890625 L25.0702168,0.4396875 C25.0702168,0.328125 25.1547597,0.2428125 25.2653157,0.2428125 L36.437983,0.2428125 C36.5485391,0.2428125 36.633082,0.328125 36.633082,0.4396875 L36.633082,2.7890625 C36.633082,2.900625 36.5485391,2.9859375 36.437983,2.9859375 L32.4189444,2.9859375 L32.4189444,14.67375 C32.4189444,14.7853125 32.3344015,14.870625 32.2238454,14.870625 L29.5054665,14.870625 C29.3949105,14.870625 29.3103676,14.7853125 29.3103676,14.67375 L29.3103676,2.9859375 L29.3103676,2.9859375 Z" id="Path"></path>
                <path d="M62.6072573,4.108125 C61.3326107,4.108125 60.3571159,4.64625 59.7132893,5.525625 L59.7132893,0.406875 C59.7132893,0.3084375 59.6352498,0.2296875 59.5377003,0.2296875 L57.1314797,0.2296875 C57.0339303,0.2296875 56.9558907,0.3084375 56.9558907,0.406875 L56.9558907,14.6934375 C56.9558907,14.791875 57.0339303,14.870625 57.1314797,14.870625 L59.5377003,14.870625 C59.6352498,14.870625 59.7132893,14.791875 59.7132893,14.6934375 L59.7132893,8.58375 C59.7132893,7.1990625 60.6952875,6.43125 61.8788878,6.43125 C63.0624882,6.43125 63.9924599,7.16625 63.9924599,8.9709375 L63.9924599,14.6934375 C63.9924599,14.791875 64.0704995,14.870625 64.168049,14.870625 L66.5742696,14.870625 C66.671819,14.870625 66.7498586,14.791875 66.7498586,14.6934375 L66.7498586,8.8003125 C66.7498586,5.5584375 64.9094251,4.108125 62.6072573,4.108125 Z" id="Path"></path>
                <path d="M22.5339303,4.108125 C21.2592837,4.108125 20.2837889,4.64625 19.6399623,5.525625 L19.6399623,4.449375 C19.6399623,4.3509375 19.5619227,4.2721875 19.4643732,4.2721875 L17.0581527,4.2721875 C16.9606032,4.2721875 16.8825636,4.3509375 16.8825636,4.449375 L16.8825636,14.6934375 C16.8825636,14.791875 16.9606032,14.870625 17.0581527,14.870625 L19.4643732,14.870625 C19.5619227,14.870625 19.6399623,14.791875 19.6399623,14.6934375 L19.6399623,8.58375 C19.6399623,7.1990625 20.6219604,6.43125 21.8055608,6.43125 C22.9891612,6.43125 23.9191329,7.16625 23.9191329,8.9709375 L23.9191329,14.6934375 C23.9191329,14.791875 23.9971725,14.870625 24.094722,14.870625 L26.5009425,14.870625 C26.598492,14.870625 26.6765316,14.791875 26.6765316,14.6934375 L26.6765316,8.8003125 C26.6765316,5.5584375 24.836098,4.108125 22.5339303,4.108125 Z" id="Path"></path>
                <polygon id="Path" points="67.9464656 14.0896875 67.9464656 14.214375 67.6993402 14.214375 67.6993402 14.870625 67.5432611 14.870625 67.5432611 14.214375 67.2961357 14.214375 67.2961357 14.0896875"></polygon>
                <path d="M68.7853911,14.870625 L68.7593779,14.41125 C68.7593779,14.3521875 68.7593779,14.2734375 68.7528746,14.1946875 L68.7463713,14.1946875 C68.7268615,14.2603125 68.7008483,14.35875 68.6813384,14.424375 L68.5447691,14.8575 L68.3886899,14.8575 L68.2456173,14.41125 C68.2326107,14.3521875 68.2065975,14.2603125 68.193591,14.188125 L68.1870877,14.188125 C68.1870877,14.2603125 68.1870877,14.3325 68.1805844,14.4046875 L68.1545712,14.8640625 L68.0049953,14.8640625 L68.063525,14.083125 L68.2976437,14.083125 L68.434213,14.46375 C68.4537229,14.5228125 68.4667295,14.581875 68.4862394,14.660625 C68.5057493,14.5884375 68.5252592,14.5228125 68.5382658,14.46375 L68.6748351,14.0765625 L68.8959472,14.0765625 L68.9544769,14.8575 L68.7853911,14.870625 L68.7853911,14.870625 Z" id="Path"></path>
            </g>
        </g>
    </g>
</svg>