<svg width="73" height="57" xmlns="http://www.w3.org/2000/svg" xmlns:xlink="http://www.w3.org/1999/xlink"><defs><path id="a" d="M.068.196H6.71v5.83H.068z"/><path id="c" d="M.25.08h5.998v5.557H.25z"/><path id="e" d="M.006.14h29.416v36.877H.006z"/></defs><g fill="none" fill-rule="evenodd"><path fill="#FEFEFE" d="M4.88 51.164v4.016l-3.73-4.016H0v5.557h1.04v-4.158l3.884 4.158h.998v-5.557zM11.23 51.164v5.557h5.093v-.932H12.32v-1.466h3.37v-.934h-3.37V52.1h3.913v-.935zM21.142 51.164v.935h2.495v4.622h1.089V52.1h2.492v-.935zM38.42 51.164l-1.068 3.815h-.015l-1.082-3.815h-1.043l-1.066 3.822h-.015l-1.074-3.822h-1.091l1.643 5.557h1.066l1.066-3.942h.015l1.059 3.942h1.043l1.628-5.557z"/><g transform="translate(43.851 50.833)"><mask id="b" fill="#fff"><use xlink:href="#a"/></mask><path d="M3.39 5.095c-1.044 0-2.233-.43-2.233-2.004 0-1.336.96-1.964 2.233-1.964 1.275 0 2.232.628 2.232 1.964 0 1.574-1.189 2.004-2.232 2.004m0-4.9C.935.196.068 1.633.068 3.155c0 1.152.683 2.872 3.322 2.872 2.64 0 3.321-1.72 3.321-2.872 0-1.522-.867-2.958-3.321-2.958" fill="#FEFEFE" mask="url(#b)"/></g><path d="M56.908 53.635v-1.567h2.102c.89 0 1.343.128 1.343.779 0 .658-.453.788-1.343.788h-2.102zm2.977.824c.821-.045 1.557-.61 1.557-1.635 0-1.36-.95-1.66-2.27-1.66H55.82v5.557h1.088v-2.184h1.727l1.618 2.184h1.343l-1.711-2.262z" fill="#FEFEFE"/><g transform="translate(66.533 51.084)"><mask id="d" fill="#fff"><use xlink:href="#c"/></mask><path fill="#FEFEFE" mask="url(#d)" d="M3.317 2.282L5.98.08H4.43L1.339 2.672V.08H.25v5.557h1.088V3.91l1.19-.985L4.82 5.637h1.427z"/></g><g transform="translate(21.674 .11)"><mask id="f" fill="#fff"><use xlink:href="#e"/></mask><path d="M11.462 19.757v9.451h-1.55v-8.675c.774-.663 1.55-.776 1.55-.776zm1.92-13.133l1.343-2.456 1.346 2.456s-.826-.048-1.346-.048c-.516 0-1.343.048-1.343.048zm6.93 9.913c-.032-.02-.062-.042-.095-.065a11.032 11.032 0 01-.335-.238 6.358 6.358 0 01-.328-.241 6.112 6.112 0 01-.315-.241 21.198 21.198 0 01-1.65-1.429c-.074-.07-.144-.138-.212-.206l-.048-.048c-.131-.13-.257-.256-.373-.379a21.968 21.968 0 01-.668-.733l-.156-.186a11.538 11.538 0 01-.65-.834c.09.076.18.153.272.229.184.153.373.306.567.457l.002.002c.386.302.792.595 1.218.877l.002.002c.106.07.214.14.325.209.22.138.44.273.67.401a11.659 11.659 0 00.35.196 16.188 16.188 0 001.709.799c.01.005.02.01.033.012.043.018.086.035.131.05l-.002-.005c-.396-.298-.925-.693-1.517-1.132l-.608-.452c-.068-.053-.136-.103-.206-.156-.141-.103-.283-.208-.424-.314a12.568 12.568 0 00-.21-.158c-.072-.055-.145-.11-.218-.163l-.419-.316c-.073-.056-.146-.11-.219-.164l-.413-.313a77.559 77.559 0 01-1.812-1.41c-.134.152-4.783 3.6-5.99 4.528 1.146-2.099 2.373-4.341 3.452-6.295l.015-.027.03-.003c.872-.04 2.178-.063 2.505-.065.33.002 1.636.025 2.508.065l.03.003.015.027.34.618.837 1.519c.19.344.378.69.572 1.042l1.732 3.166c.005.005.007.008.012.01-.002-.002-.007-.002-.01-.002.076.138.149.274.225.41.098.178.194.358.292.534.12.224.242.445.36.66l.303.553.158.294c-.282-.15-.556-.31-.821-.47a20.351 20.351 0 01-.965-.618zm-3.843 4.538c-1.67 0-1.96.5-1.96.5v1.12H12.89v-2.162s1.52-1.002 3.578-1.002c2.062 0 3.879 1.002 3.879 1.002v2.086l-5 5.062h5.335s-.75.957-1.25 1.527H12.89v-1.52l5.733-5.561v-.46s-.479-.592-2.155-.592zM14.698.967c.242 0 .479.002.715.005a60.45 60.45 0 011.374.042h.03c.03.003.06.003.091.005.192.008.378.02.564.03.167.01.333.02.5.033.163.01.327.023.488.035l.603.053.37.038a45.215 45.215 0 015.504.901l.19.043c.249.06.483.118.7.173.108.028.211.055.312.083.098.025.194.05.285.078l.383.108a16.383 16.383 0 01.617.19l.084.028.073.025c.053.018.095.033.128.043.046.015.066.025.069.025.814 1.828 2.046 9.303-1.52 17.941l-.515-.939v-.002a8.899 8.899 0 01-.153-.284l-.013-.023c-1.234-2.272-8.515-15.653-9.69-17.705-.07-.002-.302-.005-.69-.005h-.94c-.388 0-.62.003-.69.005L3.613 20.055c.073.194.504 1.281 1.081 2.434.156-.282.67-1.218 1.298-2.373l2.707-4.96c3.969-2.174 8.175-.2 10.4 2.752h-.002l-.008-.005h-.002a6.664 6.664 0 00-.95-.532 7.94 7.94 0 00-3.546-.831c-4.456 0-8.067 3.666-8.067 8.19 0 1.191.25 2.321.7 3.343C-1.134 16.701.582 5.23 1.615 2.905 1.641 2.888 6.991.967 14.695.967h.003zm-.003 34.795l-.209-.163a43.677 43.677 0 01-4.413-4.098 8.344 8.344 0 004.652 1.426c1.762 0 3.214-.45 4.562-1.411a41.07 41.07 0 01-4.378 4.083l-.211.163h-.003zM28.491 2.207c-.025-.02-5.66-2.066-13.776-2.066h-.002c-4.058 0-7.495.512-9.922 1.024C2.364 1.68.95 2.197.935 2.207c-1.33 3.03-3.74 20.467 13.556 34.637l.222.173h.002l.222-.173C32.233 22.674 29.824 5.238 28.491 2.207z" fill="#FEFEFE" mask="url(#f)"/></g><path d="M29.917 4.63c-.509.917-.726 1.314-1.023 1.866-.119.216-.247.457-.416.763l-.012.025-.026.003c-.017.005-1.953.367-2.943.65l-.076.02.005-.077c.08-1.289.146-1.788.27-2.481l.007-.035.033-.008c1.863-.46 2.886-.638 4.128-.809l.109-.015-.056.098zm-5.486-1.09l-.081.026c-.277.08-.386.115-.426.128-1.182 4.09-.816 9.737.915 15.199.207-.364.92-1.67 1.444-2.644-.842-3.227-.862-6.067-.862-6.09v-.042l.038-.01c.02-.008 1.89-.538 4.388-.882.186-.364 1.01-1.865 1.96-3.598.693-1.263 1.41-2.566 1.986-3.633-2.313.128-5.789.502-9.362 1.547zM49.457 11.161c.016-.182.026-.32.038-.422a35.914 35.914 0 00-2.054-.596v.04c-.007.189-.024.69-.21 2.163l-.022.165-.081-.144c-.53-.939-.967-1.76-1.473-2.71a239.122 239.122 0 00-2.735-5.022l-.055-.098.112.017c1.274.197 2.478.382 4.228.837l.034.01.006.033c.16.798.233 1.788.233 2.434.74.21 1.785.52 2.067.604-.064-2.744-.62-4.578-.688-4.787-1.62-.513-5.026-1.402-9.855-1.686 2.365 4.222 5.123 9.305 6.952 12.678 1.051 1.936 1.846 3.4 2.065 3.777 1.169-3.835 1.358-6.254 1.438-7.293" fill="#FEFEFE"/></g></svg>