<svg id="Layer_1" data-name="Layer 1" xmlns="http://www.w3.org/2000/svg" viewBox="0 0 28 43"><defs><style>.cls-1{fill:#fcc32f;}.cls-2{fill:#a41e36;}</style></defs><title>Artboard 1</title><g id="Display"><g id="_728x90_Frame-2" data-name="728x90_Frame-2"><path class="cls-1" d="M16.69.55l.07.08,4,4a.24.24,0,0,1,.08.19v5.46c0,.09,0,.12-.11.12H14.44c-.11,0-.11,0-.11-.12V6.78c0-.08,0-.11-.11-.11H6.62c-.09,0-.11,0-.11.11v4.55c0,.12,0,.12.12.12h9.93a.31.31,0,0,1,.22.09l4,4a.2.2,0,0,1,.07.16c0,.37,0,.73,0,1.1,0,.09,0,.11.12.11h2.8a.23.23,0,0,1,.17.08l4,4,.08.07v5.69H21.65c-.16,0-.16,0-.16-.15V23.13c0-.08,0-.11-.1-.11a3.53,3.53,0,0,1-.46,0c-.07,0-.1,0-.09.09v1.12a.19.19,0,0,1-.07.16l-4,4a.2.2,0,0,1-.16.07H13.77c-.08,0-.1,0-.1.1v7.64c0,.09,0,.1.1.1h7.62c.09,0,.1,0,.1-.1v-3.5c0-.1,0-.12.12-.12H28V38.3a.2.2,0,0,0-.08.08l-4,4a.22.22,0,0,1-.17.07H11.41a.23.23,0,0,1-.18-.07l-4-4a.24.24,0,0,1-.08-.19q0-4.8,0-9.6c0-.08,0-.1-.11-.1H4.37A.46.46,0,0,1,4,28.33L.08,24.4,0,24.34v-5.7H6.42c.07,0,.1,0,.09.09v3.53c0,.08,0,.11.1.1h.47c.07,0,.09,0,.08-.08V21.16A.22.22,0,0,1,7.23,21l3.33-3.33.09-.09H4.26a.24.24,0,0,1-.18-.07l-4-4L0,13.43V4.7l0,0L4.11.59l0,0Zm-6.27.66H4.53a.23.23,0,0,0-.18.07C3.15,2.49,1.94,3.69.74,4.89a.24.24,0,0,0-.08.19v8a.24.24,0,0,0,.08.19l3.6,3.59a.24.24,0,0,0,.21.09H14.88c.06,0,.11,0,.11.09v5.94c0,.08,0,.09-.09.08-.38,0-.75,0-1.12,0-.09,0-.11,0-.11.11v4.59c0,.08,0,.1.1.1h2.54a.21.21,0,0,0,.17-.07c1.21-1.21,2.41-2.42,3.62-3.62a.23.23,0,0,0,.08-.18q0-4,0-8a.27.27,0,0,0-.08-.18l-3.61-3.61a.27.27,0,0,0-.19-.08H6c-.09,0-.11,0-.11-.11V6.11c0-.08,0-.1.1-.1h8.94c.08,0,.1,0,.1.1v3.5c0,.09,0,.12.11.12h5c.09,0,.12,0,.12-.12,0-1.51,0-3,0-4.55a.2.2,0,0,0-.07-.16C18.9,3.7,17.7,2.49,16.49,1.28a.23.23,0,0,0-.18-.07ZM7.83,29.67v8.25a.2.2,0,0,0,.06.16l3.64,3.64a.18.18,0,0,0,.15.06h11.8a.23.23,0,0,0,.16-.06l3.63-3.64a.2.2,0,0,0,.07-.16V33.39c0-.12,0-.12-.12-.12H22.27c-.09,0-.12,0-.12.11,0,1.16,0,2.33,0,3.49,0,.12,0,.12-.12.12H13.14C13,37,13,37,13,36.86V22.46c0-.08,0-.1.1-.1h1.12c.08,0,.1,0,.1-.1V17.67c0-.08,0-.1-.1-.1H11.67a.17.17,0,0,0-.13.05c-.08.09-.17.17-.25.25L7.9,21.25a.26.26,0,0,0-.07.19Zm16.91-3.59h2.5c.08,0,.1,0,.1-.1V21.41a.17.17,0,0,0-.05-.13l-3.66-3.66a.15.15,0,0,0-.12-.05h-2.6c-.06,0-.08,0-.08.08,0,1.54,0,3.08,0,4.63,0,.07,0,.08.1.08.37,0,.75,0,1.12,0,.08,0,.11,0,.11.11,0,1.17,0,2.33,0,3.5,0,.09,0,.11.11.11ZM3.26,19.31H.76c-.08,0-.1,0-.1.11V24a.17.17,0,0,0,0,.13l3.66,3.67a.16.16,0,0,0,.11.05h2.6c.07,0,.09,0,.09-.08V23.1c0-.06,0-.08-.09-.08H6c-.08,0-.1,0-.1-.11V19.41c0-.09,0-.11-.1-.11Z"/><path class="cls-2" d="M10.42,1.21h5.89a.23.23,0,0,1,.18.07C17.7,2.49,18.9,3.7,20.11,4.9a.2.2,0,0,1,.07.16c0,1.52,0,3,0,4.55,0,.1,0,.12-.12.12h-5c-.09,0-.11,0-.11-.12V6.11c0-.08,0-.1-.1-.1H6c-.08,0-.1,0-.1.1V12c0,.09,0,.11.11.11H16.3a.27.27,0,0,1,.19.08L20.1,15.8a.27.27,0,0,1,.08.18q0,4,0,8a.23.23,0,0,1-.08.18c-1.21,1.2-2.41,2.41-3.62,3.62a.21.21,0,0,1-.17.07H13.77c-.08,0-.1,0-.1-.1V23.13c0-.09,0-.11.11-.11.37,0,.74,0,1.12,0,.06,0,.09,0,.09-.08V17c0-.1-.05-.09-.11-.09H4.55a.24.24,0,0,1-.21-.09L.74,13.23A.24.24,0,0,1,.66,13v-8a.24.24,0,0,1,.08-.19c1.2-1.2,2.41-2.4,3.61-3.61a.23.23,0,0,1,.18-.07Z"/><path class="cls-2" d="M7.83,29.67V21.44a.26.26,0,0,1,.07-.19l3.39-3.38c.08-.08.17-.16.25-.25a.17.17,0,0,1,.13-.05h2.56c.08,0,.1,0,.1.1v4.59c0,.08,0,.11-.1.1H13.11c-.08,0-.1,0-.1.1v14.4c0,.13,0,.13.13.13H22c.12,0,.12,0,.12-.12,0-1.16,0-2.33,0-3.49,0-.09,0-.11.12-.11h4.95c.12,0,.12,0,.12.12v4.53a.2.2,0,0,1-.07.16l-3.63,3.64a.23.23,0,0,1-.16.06H11.68a.18.18,0,0,1-.15-.06L7.89,38.08a.2.2,0,0,1-.06-.16Z"/><path class="cls-2" d="M24.74,26.08H22.26c-.08,0-.11,0-.11-.11,0-1.17,0-2.33,0-3.5,0-.09,0-.11-.11-.11-.37,0-.75,0-1.12,0-.07,0-.1,0-.1-.08,0-1.55,0-3.09,0-4.63,0-.06,0-.08.08-.08h2.6a.15.15,0,0,1,.12.05l3.66,3.66a.17.17,0,0,1,.05.13V26c0,.08,0,.1-.1.1Z"/><path class="cls-2" d="M3.26,19.31H5.75c.08,0,.1,0,.1.11v3.51c0,.08,0,.11.1.11H7.08c.06,0,.09,0,.09.08v4.64c0,.06,0,.08-.09.08H4.48a.16.16,0,0,1-.11-.05L.71,24.1a.17.17,0,0,1,0-.13V19.41c0-.09,0-.11.1-.11Z"/></g></g></svg>