<?xml version="1.0" encoding="UTF-8"?>
<svg enable-background="new 0 0 1832.2 1203" version="1.1" viewBox="0 0 1832.2 1203" xml:space="preserve" xmlns="http://www.w3.org/2000/svg">
<style type="text/css">
	.st0{fill-rule:evenodd;clip-rule:evenodd;fill:#FFFFFF;}
	.st1{fill:#FFFFFF;}
</style>
<title>DISH_LATINO_RED_LOGO_Vertical_012819-RGB</title>
		<path class="st0" d="m1033.8 335.9c0-20.8 29.2-35.9 74-35.9 51.1 0 99.2 18.1 129.1 43.6 4.9 4.2 12.3 3.6 16.4-1.3 0.5-0.6 0.9-1.1 1.2-1.8l36.5-72.6c2.8-4.9 1.5-11.1-3-14.5-45.1-33.9-105.8-58.2-181.2-58.2-123.7 0-192.9 69.2-192.9 148.1 0 184.3 279.6 120.5 279.6 201.5 0 22.2-25.3 41-78.9 41-53.2 0-116.2-21-152.8-50-5.1-4-12.4-3.1-16.4 2-0.3 0.4-0.5 0.7-0.8 1.1l-41.4 69.3c-2.9 4.7-1.9 10.8 2.3 14.4 49.9 42 125.2 66.7 203.2 66.7 130.6 0 203.6-64.3 203.6-151 0.2-185.7-278.5-128.3-278.5-202.4z"/>
		<path class="st0" d="m470 21.8h-108.9c-4.4 0-7.9 3.5-7.9 7.9v229.8c-36.5-39.8-85.4-64.1-140.5-64.1-117.5 0-212.7 110.5-212.7 246.9s95.2 247 212.8 247c55.1 0 104-24.3 140.5-64.1v44.5c0 4.4 3.5 7.9 7.9 7.9h108.8c4.4 0 7.9-3.5 7.9-7.9v-640c0-4.4-3.5-7.9-7.9-7.9zm-231.1 563.8c-63.2 0-114.3-64.2-114.3-143.3s51.1-143.3 114.3-143.3c62.9 0 113.9 63.6 114.3 142.2v2.1c-0.4 78.7-51.4 142.3-114.3 142.3z"/>
		<path class="st0" d="m1633.8 195.3c-57.5 0-101.8 24.2-130.8 63.6v-229.2c0-4.4-3.5-7.9-7.9-7.9h-108.9c-4.4 0-7.9 3.5-7.9 7.9v640c0 4.4 3.5 7.9 7.9 7.9h108.9c4.4 0 7.9-3.5 7.9-7.9v-273.7c0.1-62 44.3-96.5 97.8-96.5s95.5 32.9 95.5 113.6l0.1 256.5c0 4.4 3.5 7.9 7.9 7.9h108.9c4.4 0 7.9-3.5 7.9-7.9v-264.1c0.1-145.2-83.3-210.2-187.3-210.2z"/>
		<path class="st1" d="m619.3 73.7c0-40.7 34-73.7 73.7-73.7 40.7 0 73.7 33 73.7 73.7s-33 73.7-73.7 73.7c-39.7 0-73.7-33-73.7-73.7zm214.8 484.1c-49.8 28.9-103.2 36.6-140 36.6s-90.2-7.7-140-36.6c-8.2-4.6-12.5 3.4-10.8 10.4 16.9 69.5 77.8 121 150.4 121.4h0.9c72.6-0.4 133.4-51.9 150.4-121.4 1.7-7-2.7-14.9-10.9-10.4zm-29.4-175.4c-39.3 22.9-81.5 28.9-110.6 28.9s-71.2-6.1-110.6-28.9c-6.5-3.6-9.9 2.7-8.5 8.2 13.3 54.9 61.4 95.5 118.8 95.9h0.7c57.3-0.3 105.4-41 118.8-95.9 1.3-5.5-2.2-11.8-8.6-8.2zm-31.4-149.5c-28.2 16.4-58.4 20.7-79.2 20.7s-51-4.4-79.2-20.7c-4.6-2.6-7.1 1.9-6.1 5.9 9.6 39.3 44 68.4 85 68.7h0.5c41.1-0.2 75.5-29.4 85-68.7 1.1-4-1.4-8.5-6-5.9z"/>
		<path class="st1" d="m17.2 1196.2v-371.2h79.6v301.6h156.9v69.6h-236.5zm552 0l-23.4-62.9h-159.1l-23.4 62.9h-89.6l143-371.2h99l143 371.2h-89.5zm-103-292.2l-57.8 159.7h115.8l-58-159.7zm249.6 292.2v-301.6h-108.4v-69.6h296v69.6h-108v301.6h-79.6zm232.9 0v-371.2h79v371.2h-79zm380.3 0l-177-242.1v242.1h-79v-371.2h81.2l171.9 233.2v-233.2h79v371.2h-76.1zm115.2-185.3c0-111.9 81.8-192 194.2-192 111.9 0 193.7 80.1 193.7 192s-81.8 192-193.7 192c-112.3 0-194.1-80.2-194.2-192zm306.6 0c0-69.6-44-121.9-112.4-121.9-69 0-113 52.3-113 121.9 0 69 44 121.9 113 121.9 68.6 0 112.5-52.9 112.4-121.9z"/>
		<path class="st1" d="m1797.2 1188.5c0-8 6.5-14.6 14.5-14.6s14.6 6.5 14.6 14.5-6.5 14.6-14.5 14.6c-8.1 0.1-14.6-6.4-14.6-14.5zm2.3 0c-0.2 6.8 5.1 12.4 11.9 12.6s12.4-5.1 12.6-11.9v-0.7c-0.2-6.8-5.8-12.1-12.6-11.9-6.5 0.2-11.7 5.4-11.9 11.9zm11.8 1.8h-2.8v6.6h-2.5v-16.7h6.8c3.1 0 5.6 2 5.6 5.1 0.1 2.5-1.8 4.6-4.2 4.9l4.5 6.7h-3l-4.4-6.6zm-2.7-8v5.9h4.4c1.6 0.3 3.2-0.8 3.5-2.4s-0.8-3.2-2.4-3.5c-0.4-0.1-0.7-0.1-1.1 0h-4.4z"/>
</svg>
