<?xml version="1.0" encoding="UTF-8"?>
<svg enable-background="new 0 0 2402 421" version="1.1" viewBox="0 0 2402 421" xml:space="preserve" xmlns="http://www.w3.org/2000/svg">
<style type="text/css">
	.st0{fill:#ED1944;}
	.st1{fill:#FFFFFF;}
</style>
	<path class="st0" d="m372 145.9c-0.6-2.4 0.9-5.2 3.7-3.6 17.2 10 35.6 12.7 48.3 12.6s31.1-2.6 48.3-12.6c2.8-1.6 4.3 1.2 3.7 3.6-5.8 24-26.9 41.8-51.9 41.9h-0.3c-25-0.1-46-17.9-51.8-41.9zm51.8 151.2h0.5c35-0.2 64.3-25 72.5-58.5 0.8-3.4-1.3-7.2-5.2-5-24 14-49.8 17.6-67.5 17.6s-43.5-3.7-67.5-17.6c-3.9-2.2-6 1.6-5.2 5 8.1 33.5 37.4 58.3 72.4 58.5zm-0.4-206.9c24.9 0 45-20.1 45-45s-20.1-45-45-45c-24.3 0-45 20.1-45 45s20.7 45 45 45zm-136.1-76.7c2.7 0 4.8 2.2 4.8 4.8v390.7c0 2.7-2.2 4.8-4.8 4.8h-66.5c-2.7 0-4.8-2.2-4.8-4.8v-27.2c-22.3 24.3-52.1 39.1-85.7 39.1-71.8 0.1-130-67.4-130-150.7s58.2-150.8 129.9-150.8c33.6 0 63.5 14.8 85.7 39.1v-140.2c0-2.7 2.2-4.8 4.8-4.8h66.6c-0.1 0-0.1 0 0 0zm-71.4 256c-0.3-48-31.4-86.8-69.8-86.8-38.6 0-69.8 39.2-69.8 87.5s31.3 87.5 69.8 87.5c38.4 0 69.5-38.8 69.8-86.8v-1.4zm951.4 125.2h-5.3l-3.2 9.1c-0.4 1.4-0.8 2.9-1.3 4.6h-0.1c-0.5-1.9-0.8-3.2-1.2-4.7l-3.2-9h-5.5l-1.3 18.4h3.5l0.7-10.8c0.1-1.7 0.1-3.5 0.1-5.1h0.2c0.4 1.6 0.9 3.8 1.3 5.2l3.3 10.5h3.8l3.3-10.2c0.5-1.7 1.1-3.9 1.6-5.5h0.2c0.1 2 0.1 3.7 0.1 5.1l0.7 10.8h3.7l-1.4-18.4zm-37.6 3h5.9v15.4h3.7v-15.4h5.9v-3h-15.4v3zm-131.9-278.2c-35.1 0-62.1 14.8-79.8 38.8v-140c0-2.7-2.2-4.8-4.8-4.8h-66.5c-2.7 0-4.8 2.2-4.8 4.8v390.7c0 2.7 2.2 4.8 4.8 4.8h66.5c2.7 0 4.8-2.2 4.8-4.8v-167.1c0-37.8 27.1-58.9 59.7-58.9s58.3 20.1 58.3 69.4v156.6c0 2.7 2.2 4.8 4.8 4.8h66.5c2.7 0 4.8-2.2 4.8-4.8v-161.3c0-88.6-50.8-128.2-114.3-128.2zm-488.2 221.2c-30.4 17.7-63 22.3-85.5 22.4s-55.1-4.7-85.5-22.4c-5-2.8-7.6 2.1-6.6 6.3 10.3 42.4 47.5 73.9 91.8 74.1h0.5c44.3-0.3 81.5-31.7 91.8-74.1 1.1-4.2-1.6-9.1-6.5-6.3zm121.8-135.4c0-12.7 17.8-21.9 45.2-21.9 31.2 0 60.5 11.1 78.8 26.6 3 2.5 7.5 2.2 10-0.8 0.3-0.3 0.5-0.7 0.8-1.1l22.3-44.3c1.7-3 0.9-6.8-1.8-8.9-27.5-20.7-64.6-35.5-110.6-35.5-75.5 0-117.7 42.2-117.7 90.4 0 112.5 170.7 73.6 170.7 123 0 13.5-15.5 25-48.2 25-32.5 0-70.9-12.8-93.2-30.6-3.1-2.4-7.6-1.9-10 1.2-0.2 0.2-0.3 0.4-0.5 0.7l-25.3 42.3c-1.8 2.9-1.2 6.6 1.4 8.8 30.5 25.6 76.5 40.7 124.1 40.7 79.7 0 124.3-39.3 124.3-92.2-0.1-113.2-170.3-78.2-170.3-123.4z"/>
		<path class="st1" d="m1295 192.4h-47.4v-65.7h47.4v-15.4c0-62.2 40.3-99.5 96.5-99.5 21.3 0 40.8 4.7 54.5 11.8l-15.4 54.5c-5.9-4.1-14.2-7.1-24.3-7.1-21.3 0-35.5 14.2-35.5 40.3v15.4h58v65.7h-58v220.2h-75.8v-220.2zm169.3-147.4c0-24.9 20.7-45 45-45 24.9 0 45 20.1 45 45s-20.1 45-45 45c-24.3 0-45-20.1-45-45zm7.7 81.7h75.2v285.9h-75.2v-285.9z"/>
		<path class="st1" d="m1595.6 17.8h75.2v145.6c22.5-29 54.5-43.8 88.2-43.8 72.8 0 126.7 56.8 126.7 150.4 0 95.3-54.5 149.8-126.7 149.8-34.3 0-65.7-15.4-88.2-43.2v36.1h-75.2v-394.9zm139.7 335c43.8 0 72.8-33.2 72.8-82.9s-29-83.5-72.8-83.5c-24.3 0-52.1 14.2-64.5 33.2v101.2c12.4 18.4 40.2 32 64.5 32z"/>
		<path class="st1" d="m2062 119.6c85.2 0 143.3 63.9 143.3 157.5v16.6h-212.5c4.7 36.1 33.7 66.3 82.3 66.3 26.6 0 58-10.7 76.4-28.4l33.2 48.5c-29 26.6-73.4 39.7-117.8 39.7-87 0-152.7-58.6-152.7-150.4-0.2-82.9 60.7-149.8 147.8-149.8zm-70.5 123.1h140.9c-1.8-27.2-20.7-63.3-70.4-63.3-46.8 0-66.9 34.9-70.5 63.3z"/>
		<path class="st1" d="m2235.5 126.7h75.2v39.1c20.1-25.5 55.6-45.6 91.2-45.6v73.4c-5.3-1.2-12.4-1.8-20.7-1.8-24.9 0-58 13.6-70.4 32v188.8h-75.2v-285.9z"/>
</svg>
