<svg width="69" height="21" xmlns="http://www.w3.org/2000/svg" xmlns:xlink="http://www.w3.org/1999/xlink"><defs><path id="a" d="M.133.166h5.079v3.048H.132z"/><path id="c" d="M0 .08h50.595v4.192H0z"/></defs><g fill="none" fill-rule="evenodd"><path d="M59.9 16.353c.074-.596-.18-1.136-1.1-1.136l-7.332-.001c-.75 0-1.247.395-1.318.987-.025.217-.05.41-.05.41h9.768l.033-.26M55.192 17.145l-.375 3.048h1.656l.234-1.893h2.08c.59 0 .906-.317.965-.743.03-.215.051-.412.051-.412h-4.611zM49.936 15.216h-4.429l-.171 1.397h4.43zM49.558 18.3l.142-1.155H45.27l-.375 3.048h4.43l.163-1.322h-2.774l.07-.571zM63.99 15.216h-3.613l-.171 1.397h4.802l.027-.215c.117-.916-.475-1.182-1.045-1.182M59.765 20.193h1.657l.374-3.047-1.656-.001zM62.912 20.193h1.657l.374-3.047-1.656-.001z" fill="#FEFEFE"/><g transform="translate(49.529 16.98)"><mask id="b" fill="#fff"><use xlink:href="#a"/></mask><path d="M4.145.167L.506.166C.385.96.783 1.32 1.346 1.32h2.242l-.07.571H.296L.133 3.213h3.651c.118-.009.938-.03 1.218-.702.09-.218.17-1 .193-1.164.13-.953-.53-1.18-1.05-1.18" fill="#FEFEFE" mask="url(#b)"/></g><path fill="#FEFEFE" d="M65.86 0l-2.564 7.725-3.946-7.7-3.916 2.582-2.917 8.872h3.01l2.562-7.753 3.913 7.753h3.08L68.87 0zM30.235 7.4l1.258-3.828c.256-.553.795-.904 1.469-.904H38.1L42.141.002h-8.869c-.622 0-3.772.075-4.567 2.489L26.87 8.073c-.54 2.096.871 3.408 2.802 3.408h8.169l.877-2.666h-6.894c-1.08 0-1.852-.428-1.588-1.415M22.029 7.182h-4.306l5.557-4.286-1.251 4.286zM22.543 0L7.732 11.482h4.384l2.424-1.857 7.303-1.805-1.069 3.658 3.391-.006L27.367 0h-4.824zM43.395 7.4l1.257-3.828c.256-.553.796-.904 1.47-.904h5.137L55.3.002h-8.87c-.622 0-3.772.075-4.566 2.489l-1.836 5.582c-.542 2.096.871 3.408 2.801 3.408H51l.877-2.666h-6.895c-1.08 0-1.852-.428-1.587-1.415"/><g transform="translate(0 13.199)"><mask id="d" fill="#fff"><use xlink:href="#c"/></mask><path fill="#FEFEFE" mask="url(#d)" d="M5.407.08L0 4.272 50.595.08z"/></g></g></svg>