<svg width="74" height="38" xmlns="http://www.w3.org/2000/svg" xmlns:xlink="http://www.w3.org/1999/xlink"><defs><path id="a" d="M0 39.539h75.83V.179H0z"/></defs><g transform="translate(-1 -1)" fill="none" fill-rule="evenodd"><path d="M19.68 1.574c4.332 0 8.539 1.553 11.845 4.374l.673.574h42.236v27.013h-42.61l-.66.535a18.31 18.31 0 01-11.484 4.073c-10.082 0-18.285-8.202-18.285-18.284 0-10.083 8.203-18.285 18.285-18.285zm0 .734c-9.678 0-17.55 7.873-17.55 17.551 0 9.677 7.872 17.55 17.55 17.55 3.994 0 7.91-1.389 11.023-3.91l.862-.698H73.7V7.256H31.927l-.88-.749A17.53 17.53 0 0019.68 2.308z" fill="#FEFEFE"/><path d="M32.778 15.46a13.72 13.72 0 00-5.25-7.07 13.52 13.52 0 00-2.431-1.35 11.99 11.99 0 00-.75-.296v-.002V32.57c.254-.09.504-.192.75-.297a13.357 13.357 0 002.43-1.35c.666-.464 1.301-.988 1.887-1.575a13.654 13.654 0 003.185-4.976c.088-.236.172-.475.245-.716l-3.338-1.402a10.187 10.187 0 01-1.979 3.842V13.22a10.033 10.033 0 011.922 3.636l3.33-1.396M19.932 21.394h3.241v.001-3.178h-3.241V9.541c.9.017 1.77.154 2.599.393.217.063.432.13.643.206V6.384a13.969 13.969 0 00-3.242-.435c-.068 0-.14-.004-.21-.004-.126 0-.253.006-.377.01a13.637 13.637 0 00-2.59.315v26.773a13.552 13.552 0 002.59.316c.124.002.251.009.377.009.07 0 .142-.004.21-.004.883-.013 1.751-.11 2.599-.284.214-.044.429-.095.643-.152v-3.755a10.219 10.219 0 01-3.242.603v-8.381M10.4 15.271a10.193 10.193 0 011.842-2.712v2.421h3.18l-.003-.001V6.448c-.196.061-.393.13-.587.2a13.7 13.7 0 00-2.59 1.29 13.786 13.786 0 00-4.345 4.413c-.14.225-.273.454-.4.685a13.953 13.953 0 00-1.043 2.516l5.788 6.754v4.161a10.164 10.164 0 01-2.45-4.403l-3.34 1.4a13.69 13.69 0 003.442 5.74 13.906 13.906 0 003.098 2.33v.001c.594.327 1.208.606 1.84.843.194.07.391.138.587.2h.002V21.13l-5.02-5.858" fill="#FEFEFE"/><mask id="b" fill="#fff"><use xlink:href="#a"/></mask><path fill="#FEFEFE" mask="url(#b)" d="M35.11 20.757h36.153v-.696H35.11zM40.984 29.904h-.933l-1.707-4.482c.046.217.068.39.068.514v3.968h-1.037v-7.123h.932l1.707 4.392a2.747 2.747 0 01-.067-.514V22.78h1.037v7.123zM45.073 29.904H42.12v-7.123h2.926v.942h-1.861v2.08h1.602v.924h-1.602v2.235h1.888zM49.176 23.723h-1.174v6.181h-1.06v-6.181h-1.174v-.942h3.408zM55.257 22.781l-1.044 7.133H53.17l-.637-4.038a41.38 41.38 0 00-.037-.65c0 .145-.012.362-.036.65l-.633 4.038h-1.046l-1.043-7.133h1.079l.551 4.224.036.651c.002-.146.016-.363.04-.651l.615-4.224h.874l.615 4.224c.008.146.021.362.04.651.003-.146.017-.363.039-.651l.55-4.224h1.08zM57.198 28.99h1.46v-5.294h-1.46v5.295zm2.525.264c0 .434-.215.65-.647.65h-2.31c-.423 0-.634-.216-.634-.65v-5.817c0-.437.211-.656.634-.656h2.31c.432 0 .647.219.647.656v5.817zM69.027 29.904h-1.174l-1.352-3.177v3.177h-1.067v-7.123h1.067v3.013l1.183-3.013h1.164v.05l-1.446 3.383zM61.925 23.696h1.341v2.258H62.22v.004h-.295v-2.262zm1.47 6.209h1.11l-1.174-3.228c.352 0 .582-.023.691-.068.204-.088.306-.282.306-.583v-2.59c0-.437-.214-.655-.642-.655h-2.828v7.124h1.067v-3.296h.3l1.17 3.296zM59.049 10.28h-11.5c-1.177-.001-1.957.62-2.066 1.547-.041.342-.08.644-.08.644h15.32s.03-.226.052-.408c.116-.935-.283-1.782-1.726-1.782M60.623 13.305s-.034.31-.08.646c-.093.669-.59 1.166-1.516 1.166h-3.262l-.366 2.968h-2.597l.587-4.78h7.234M45.147 10.28l-.268 2.19H37.93l.269-2.19zM37.829 13.305h6.946l-.222 1.812h-4.35l-.109.894h4.35l-.256 2.074h-6.947zM61.522 10.28h5.667c.895 0 1.823.416 1.64 1.854-.034.258-.043.337-.043.337h-7.532l.268-2.19M61.15 13.305h2.599l-.587 4.778-2.6.002zM66.086 13.305h2.598l-.587 4.778-2.598.002zM51.008 13.307l-5.707-.002c-.19 1.248.434 1.812 1.319 1.812l3.515-.001-.11.895h-5.056l-.254 2.074s5.504.002 5.728 0c.183-.014 1.471-.049 1.91-1.102.142-.342.267-1.568.303-1.825.202-1.495-.832-1.851-1.648-1.851"/></g></svg>