<?xml version="1.0" encoding="UTF-8"?>
<svg viewBox="0 0 5090.52 2466.15" xmlns="http://www.w3.org/2000/svg">
<defs>
<style>.cls-1{fill:#f01446;}.cls-2{fill:#fff;}.cls-3{fill:#000010;}</style>
</defs>
<title>DISH_Latino_LOGO_RED+BLACK_HorizontalAlternate_012819-RGB</title>
<g data-name="Layer 2">
<g data-name="Layer 1">
<circle class="cls-1" cx="1233.1" cy="1233.1" r="1233.1"/>
<path class="cls-2" d="M778.93,891h-113a8.23,8.23,0,0,0-8.23,8.22v238.47c-37.84-41.34-88.63-66.54-145.77-66.54-121.95,0-220.81,114.76-220.81,256.33S390,1583.81,511.94,1583.81c57.14,0,107.93-25.2,145.77-66.54v46.18a8.24,8.24,0,0,0,8.23,8.23h113a8.23,8.23,0,0,0,8.22-8.23V899.22A8.22,8.22,0,0,0,778.93,891ZM657.71,1328.52c-.47,81.64-53.4,147.64-118.65,147.64-65.53,0-118.67-66.59-118.67-148.73s53.14-148.73,118.67-148.73c65.25,0,118.18,66,118.65,147.64Z"/>
<path class="cls-2" d="m1010.4 868.39a76.5 76.5 0 0 1 0 153c-41.26 0-76.49-34.23-76.49-76.5s35.23-76.5 76.49-76.5z"/>
<path class="cls-2" d="m929.36 1110.1c29.23 17 60.59 21.46 82.17 21.49s53-4.51 82.18-21.49c4.79-2.68 7.34 2 6.35 6.08-9.93 40.78-45.64 71-88.26 71.27h-0.53c-42.62-0.25-78.34-30.49-88.26-71.27-1.01-4.08 1.56-8.76 6.35-6.08z"/>
<path class="cls-2" d="m896.79 1265.3c40.81 23.72 84.6 30 114.74 30s73.94-6.3 114.75-30c6.69-3.74 10.25 2.8 8.87 8.5-13.86 57-63.74 99.17-123.25 99.51h-0.73c-59.52-0.34-109.39-42.56-123.25-99.51-1.39-5.7 2.17-12.24 8.87-8.5z"/>
<path class="cls-2" d="m1168.1 1458.1c-17.55 72.12-80.72 125.59-156.09 126h-0.93c-75.38-0.44-138.55-53.91-156.1-126-1.76-7.22 2.75-15.5 11.23-10.76 51.69 30 107.15 38 145.33 38s93.64-8 145.33-38c8.48-4.74 12.99 3.54 11.23 10.76z"/>
<path class="cls-2" d="m1441.9 1583.8c-80.93 0-159.11-25.7-210.92-69.24a11.56 11.56 0 0 1 -2.37 -14.92l43-71.94a12.13 12.13 0 0 1 17.82 -3.18c38 30.15 103.28 52 158.54 52 55.61 0 81.91-19.5 81.91-42.5 0-84.1-290.23-17.91-290.23-209.16 0-81.91 71.8-153.71 200.23-153.71 78.29 0 141.26 25.25 188 60.41a11.59 11.59 0 0 1 3.12 15l-37.88 75.29a12.11 12.11 0 0 1 -18.35 3.21c-31-26.47-80.87-45.29-133.93-45.29-46.52 0-76.86 15.68-76.86 37.27 0 76.82 289.21 17.3 289.21 210 0.05 90.01-75.79 156.76-211.29 156.76z"/>
<path class="cls-2" d="M2181.3,1563.45a8.23,8.23,0,0,1-8.22,8.23h-113a8.24,8.24,0,0,1-8.23-8.23l-.11-266.26c0-83.79-43.62-117.93-99.14-117.93s-101.4,35.84-101.48,100.13v284.06a8.24,8.24,0,0,1-8.23,8.23h-113a8.23,8.23,0,0,1-8.22-8.23V899.22a8.22,8.22,0,0,1,8.22-8.22h113a8.23,8.23,0,0,1,8.23,8.22v237.9c30.13-40.93,76-66,135.74-66,107.94,0,194.43,67.48,194.43,218.18Z"/>
<path class="cls-3" d="m2737.8 1565.7v-481.14h103.17v391h203.4v90.17zm715.57 0-30.29-81.52h-206.31l-30.29 81.52h-116.14l185.39-481.14h128.39l185.39 481.14zm-133.4-378.66l-75 207h150zm323.59 378.71v-391h-140.71v-90.17h383.75v90.17h-139.94v391zm301.87 0v-481.19h102.43v481.14zm493 0-229.39-313.79v313.79h-102.45v-481.19h105.31l222.9 302.24v-302.24h102.43v481.14zm149.31-240.21c0-145 106-248.87 251.74-248.87 145 0 251 103.88 251 248.87s-106 248.86-251 248.86c-145.73-0.05-251.76-103.92-251.76-248.91zm397.46 0c0-90.17-57-158-145.72-158-89.44 0-146.43 67.81-146.43 158 0 89.45 57 158 146.43 158 88.71-0.08 145.7-68.6 145.7-158.05z"/>
<path class="cls-3" d="M5044.88,1554.76a18.82,18.82,0,1,1,18.82,18.82A18.77,18.77,0,0,1,5044.88,1554.76Zm2.93,0a15.85,15.85,0,1,0,31.69,0,15.85,15.85,0,0,0-31.69,0Zm15.36,2.31h-3.56v8.52h-3.19V1544h8.79c4,0,7.19,2.57,7.19,6.57a6.31,6.31,0,0,1-5.5,6.39l5.77,8.61h-3.91Zm-3.56-10.39v7.64h5.6a3.69,3.69,0,0,0,3.91-3.73,3.73,3.73,0,0,0-3.91-3.91Z"/>
</g>
</g>
</svg>
