<svg xmlns="http://www.w3.org/2000/svg" xmlns:xlink="http://www.w3.org/1999/xlink" viewBox="0 0 256.86 279.86"><defs><style>.cls-1{isolation:isolate;}.cls-2{fill:#0a208f;opacity:0.3;mix-blend-mode:multiply;}.cls-3{fill:#eef5f9;}.cls-4{fill:#2580d3;}.cls-5{fill:url(#linear-gradient);}.cls-6{fill:url(#linear-gradient-2);}.cls-7{fill:url(#linear-gradient-3);}.cls-8{fill:#a9d0e5;}</style><linearGradient id="linear-gradient" x1="1254.8" y1="1057" x2="1251.98" y2="1102.22" gradientTransform="matrix(-0.87, -0.5, 0, 1, 1309.03, -253.74)" gradientUnits="userSpaceOnUse"><stop offset="0" stop-color="#e8566a"/><stop offset="1" stop-color="#ffc06a"/></linearGradient><linearGradient id="linear-gradient-2" x1="1253.42" y1="1109.01" x2="1253.42" y2="1079.64" xlink:href="#linear-gradient"/><linearGradient id="linear-gradient-3" x1="1260.4" y1="1076.8" x2="1260.4" y2="1060.58" xlink:href="#linear-gradient"/></defs><title>Browser</title><g class="cls-1"><g id="Browser"><path class="cls-2" d="M140.43,97.92c0-2,1.4-2.8,3.12-1.81L243.83,154v97.67l-100.28-57.9a6.91,6.91,0,0,1-3.12-5.41Z"/><path class="cls-3" d="M132.89,192.74a6.91,6.91,0,0,0,3.12,5.41l117.73,68c1.71,1,3.12.18,3.12-1.8V173.86a6.91,6.91,0,0,0-3.12-5.41L136,100.48c-1.72-1-3.12-.18-3.12,1.8Z"/><path class="cls-4" d="M132.89,107.36v-5.08c0-2,1.4-2.79,3.12-1.8l117.73,68a6.91,6.91,0,0,1,3.12,5.41v5.07Z"/><polygon class="cls-5" points="197.05 204.98 250.08 235.6 250.08 192.4 197.05 161.78 197.05 204.98"/><polygon class="cls-6" points="207.11 186.7 219.35 204.3 232.68 192.06 250.08 216.51 250.08 235.6 197.05 204.98 197.05 190.3 207.11 186.7"/><path class="cls-7" d="M211.47,182.4a13.37,13.37,0,0,0,6.05,10.47c3.34,1.92,6,.36,6-3.49a13.33,13.33,0,0,0-6-10.47C214.18,177,211.47,178.54,211.47,182.4Z"/><path class="cls-4" d="M142,133.74a2.7,2.7,0,0,0,1.21,2.11l48,27.71c.67.39,1.22.07,1.22-.7v-.49a2.68,2.68,0,0,0-1.22-2.1l-48-27.72c-.67-.38-1.21-.07-1.21.7Z"/><path class="cls-8" d="M142,149.48a1,1,0,0,0,.43.76L192,178.85c.24.14.44,0,.44-.25v-.17a1,1,0,0,0-.44-.76l-49.57-28.61c-.24-.14-.43,0-.43.25Z"/><path class="cls-8" d="M142,153.39a1,1,0,0,0,.43.76L192,182.77c.24.13.44,0,.44-.26v-.17a1,1,0,0,0-.44-.76L142.39,153c-.24-.14-.43,0-.43.25Z"/><path class="cls-8" d="M142,157.31a1,1,0,0,0,.43.75L192,186.68c.24.14.44,0,.44-.26v-.17a1,1,0,0,0-.44-.76l-49.57-28.61c-.24-.14-.43,0-.43.25Z"/><path class="cls-8" d="M142,161.22a1,1,0,0,0,.43.75L192,190.59a.27.27,0,0,0,.44-.25v-.18a.94.94,0,0,0-.44-.75l-49.57-28.62c-.24-.14-.43,0-.43.25Z"/><path class="cls-8" d="M164.88,178.36a1,1,0,0,0,.43.76L192,194.5a.27.27,0,0,0,.44-.25v-.18a1,1,0,0,0-.44-.75l-26.65-15.39c-.24-.14-.43,0-.43.26Z"/><path class="cls-4" d="M160.77,151a2.69,2.69,0,0,0,1.21,2.11l29.2,16.86c.67.38,1.22.07,1.22-.71v-.48a2.72,2.72,0,0,0-1.22-2.11L162,149.76c-.67-.38-1.21-.07-1.21.71Z"/><path class="cls-8" d="M177.26,195.42a2.13,2.13,0,0,0,1,1.68c.53.31,1,.06,1-.56a2.16,2.16,0,0,0-1-1.68C177.69,194.55,177.26,194.8,177.26,195.42Z"/><path class="cls-8" d="M171.4,192a2.13,2.13,0,0,0,1,1.68c.54.31,1,.06,1-.56a2.13,2.13,0,0,0-1-1.68C171.83,191.17,171.4,191.42,171.4,192Z"/><path class="cls-8" d="M165.54,188.66a2.15,2.15,0,0,0,1,1.68c.54.31,1,0,1-.56a2.13,2.13,0,0,0-1-1.68C166,187.79,165.54,188,165.54,188.66Z"/><path class="cls-3" d="M141.24,108.3a3.83,3.83,0,0,0,1.73,3c1,.55,1.73.11,1.73-1a3.84,3.84,0,0,0-1.73-3C142,106.75,141.24,107.2,141.24,108.3Z"/><path class="cls-3" d="M146.15,111.16a3.8,3.8,0,0,0,1.73,3c1,.56,1.73.11,1.73-1a3.81,3.81,0,0,0-1.73-3C146.92,109.6,146.15,110.05,146.15,111.16Z"/><path class="cls-3" d="M136.33,105.45a3.83,3.83,0,0,0,1.74,3c1,.55,1.73.1,1.73-1a3.83,3.83,0,0,0-1.73-3C137.11,103.9,136.33,104.34,136.33,105.45Z"/></g></g></svg>