<svg xmlns="http://www.w3.org/2000/svg" xmlns:xlink="http://www.w3.org/1999/xlink" viewBox="0 0 256.86 279.86"><defs><style>.cls-1{isolation:isolate;}.cls-2{fill:#0a208f;opacity:0.3;mix-blend-mode:multiply;}.cls-3{fill:#eef5f9;}.cls-4{fill:#95c4df;}.cls-5{fill:url(#linear-gradient);}.cls-6{fill:url(#linear-gradient-2);}.cls-7{fill:url(#linear-gradient-3);}.cls-8{fill:url(#linear-gradient-4);}.cls-9{fill:url(#linear-gradient-5);}</style><linearGradient id="linear-gradient" x1="-2272.49" y1="70.66" x2="-2201.66" y2="295.78" gradientTransform="translate(2291.59)" gradientUnits="userSpaceOnUse"><stop offset="0" stop-color="#2580d3"/><stop offset="1" stop-color="#0a208f"/></linearGradient><linearGradient id="linear-gradient-2" x1="-2232.48" y1="63.22" x2="-2232.48" y2="137.97" gradientTransform="translate(2291.59)" gradientUnits="userSpaceOnUse"><stop offset="0" stop-color="#fe9fee"/><stop offset="1" stop-color="#e33ce3"/></linearGradient><linearGradient id="linear-gradient-3" x1="-2238.43" y1="75.95" x2="-2221.17" y2="305.1" xlink:href="#linear-gradient-2"/><linearGradient id="linear-gradient-4" x1="-2232.48" y1="63.22" x2="-2232.48" y2="137.97" xlink:href="#linear-gradient"/><linearGradient id="linear-gradient-5" x1="-2238.43" y1="75.95" x2="-2221.17" y2="305.1" gradientTransform="translate(2291.59)" gradientUnits="userSpaceOnUse"><stop offset="0" stop-color="#328de0"/><stop offset="1" stop-color="#172d9c"/></linearGradient></defs><title>Phone</title><g class="cls-1"><g id="Phone"><path class="cls-2" d="M52.66,50.28,77.17,64.43a9.08,9.08,0,0,1,4.1,7.1V178.2c0,2.6-1.84,3.66-4.1,2.36L52.66,166.41Z"/><path class="cls-3" d="M13.6,59.57c0-2.61,1.84-3.67,4.1-2.37L53.84,78.07a9.09,9.09,0,0,1,4.1,7.09V191.83c0,2.6-1.85,3.67-4.1,2.36L17.7,173.33a9.08,9.08,0,0,1-4.1-7.1Z"/><path class="cls-4" d="M57.94,191.83V85.16a9.09,9.09,0,0,0-4.1-7.09L17.7,57.2a2.93,2.93,0,0,0-2.82-.32h0l4.86-2.8a3,3,0,0,1,2.74.36L58.63,75.31a9.1,9.1,0,0,1,4.09,7.1V189.07a2.86,2.86,0,0,1-1.23,2.67L57,194.32A3,3,0,0,0,57.94,191.83Z"/><path class="cls-5" d="M13.6,59.57V162.69l44.34,25.6V85.16c0-.21,0-.43,0-.65L13.64,59A5.68,5.68,0,0,0,13.6,59.57Z"/><path class="cls-6" d="M60.31,186.83V83.08l-2.42,1.39a5.6,5.6,0,0,1,0,.69v103Z"/><path class="cls-7" d="M57.5,84.28V188l.44.25V85.16c0-.21,0-.43,0-.65Z"/><path class="cls-8" d="M60.31,186.83V83.08l-2.42,1.39a5.6,5.6,0,0,1,0,.69v103Z"/><path class="cls-9" d="M57.5,84.28V188l.44.25V85.16c0-.21,0-.43,0-.65Z"/></g></g></svg>