<svg xmlns="http://www.w3.org/2000/svg" xmlns:xlink="http://www.w3.org/1999/xlink" viewBox="0 0 256.86 279.86"><defs><style>.cls-1{isolation:isolate;}.cls-2{fill:url(#linear-gradient);}.cls-3{fill:url(#linear-gradient-2);}.cls-4{fill:url(#linear-gradient-3);}.cls-5{fill:url(#linear-gradient-4);}.cls-6{fill:url(#linear-gradient-5);}.cls-7{fill:#0a208f;opacity:0.3;mix-blend-mode:multiply;}.cls-8{fill:url(#linear-gradient-6);}.cls-9{fill:url(#linear-gradient-7);}.cls-10{fill:url(#linear-gradient-8);}.cls-11{fill:url(#linear-gradient-9);}.cls-12{fill:url(#linear-gradient-10);}.cls-13{fill:url(#linear-gradient-11);}.cls-14{fill:url(#linear-gradient-12);}.cls-15{fill:url(#linear-gradient-13);}</style><linearGradient id="linear-gradient" x1="577.88" y1="19.3" x2="573" y2="29.06" gradientTransform="matrix(-1, 0, 0, 1, 690.31, 0)" gradientUnits="userSpaceOnUse"><stop offset="0" stop-color="#6d99fe"/><stop offset="1" stop-color="#98fffe"/></linearGradient><linearGradient id="linear-gradient-2" x1="669.96" y1="22.03" x2="675.2" y2="50.46" gradientTransform="matrix(-1, 0, 0, 1, 690.31, 0)" gradientUnits="userSpaceOnUse"><stop offset="0" stop-color="#a9fb00"/><stop offset="1" stop-color="#12de13"/></linearGradient><linearGradient id="linear-gradient-3" x1="664.97" y1="33.13" x2="659.57" y2="43.14" gradientTransform="matrix(-1, 0, 0, 1, 690.31, 0)" gradientUnits="userSpaceOnUse"><stop offset="0" stop-color="#d9ff89"/><stop offset="1" stop-color="#25ff26"/></linearGradient><linearGradient id="linear-gradient-4" x1="465.75" y1="52.36" x2="470.7" y2="118.8" gradientTransform="matrix(-1, 0, 0, 1, 690.31, 0)" gradientUnits="userSpaceOnUse"><stop offset="0" stop-color="#ffe71f"/><stop offset="1" stop-color="#ff8602"/></linearGradient><linearGradient id="linear-gradient-5" x1="463.25" y1="73.81" x2="456.85" y2="86.61" gradientTransform="matrix(-1, 0, 0, 1, 690.31, 0)" gradientUnits="userSpaceOnUse"><stop offset="0" stop-color="#fff78c"/><stop offset="1" stop-color="#e76008"/></linearGradient><linearGradient id="linear-gradient-6" x1="597.87" y1="151.41" x2="598.9" y2="108.37" gradientTransform="matrix(-1, 0, 0, 1, 690.31, 0)" gradientUnits="userSpaceOnUse"><stop offset="0" stop-color="#c100ff"/><stop offset="1" stop-color="#6e00ff"/></linearGradient><linearGradient id="linear-gradient-7" x1="588.59" y1="134.1" x2="592.82" y2="124.91" gradientTransform="matrix(-1, 0, 0, 1, 690.31, 0)" gradientUnits="userSpaceOnUse"><stop offset="0" stop-color="#f532ff"/><stop offset="1" stop-color="#a232ff"/></linearGradient><linearGradient id="linear-gradient-8" x1="668.22" y1="106.67" x2="671.2" y2="146.62" gradientTransform="matrix(-1, 0, 0, 1, 690.31, 0)" gradientUnits="userSpaceOnUse"><stop offset="0" stop-color="#2962ff"/><stop offset="1" stop-color="#29ffee"/></linearGradient><linearGradient id="linear-gradient-9" x1="666.72" y1="119.57" x2="662.87" y2="127.26" xlink:href="#linear-gradient"/><linearGradient id="linear-gradient-10" x1="527.28" y1="14.77" x2="540.51" y2="61.07" gradientTransform="matrix(-1, 0, 0, 1, 690.31, 0)" gradientUnits="userSpaceOnUse"><stop offset="0" stop-color="#00c855"/><stop offset="1" stop-color="#009ec8"/></linearGradient><linearGradient id="linear-gradient-11" x1="519.51" y1="31.31" x2="512.92" y2="40.99" gradientTransform="matrix(-1, 0, 0, 1, 690.31, 0)" gradientUnits="userSpaceOnUse"><stop offset="0" stop-color="#38f687"/><stop offset="1" stop-color="#76eaff"/></linearGradient><linearGradient id="linear-gradient-12" x1="518.8" y1="26.34" x2="515.92" y2="67.72" xlink:href="#linear-gradient-11"/><linearGradient id="linear-gradient-13" x1="579.79" y1="2.93" x2="583.57" y2="53.62" xlink:href="#linear-gradient-8"/></defs><title>Text</title><g class="cls-1"><g id="Text"><path class="cls-2" d="M119.77,41.76V25.38a8.78,8.78,0,0,0-4-6.87l-14.18-8.19a3,3,0,0,0-2.53-.4h0l2.39-1.46a2.74,2.74,0,0,1,2.87.23l14.18,8.19a8.8,8.8,0,0,1,4,6.86V40.12a2.75,2.75,0,0,1-1.22,2.59l-2.63,1.57h0A2.79,2.79,0,0,0,119.77,41.76Z"/><path class="cls-3" d="M33.53,30.76,3.12,13.21C1.41,12.22,0,13,0,15V29.86a6.93,6.93,0,0,0,3.12,5.4l5.46,3.16v8l6.78-4.13L33.53,52.82c1.72,1,3.12.18,3.12-1.8V36.17A6.94,6.94,0,0,0,33.53,30.76Z"/><path class="cls-4" d="M36.65,51V36.17a6.94,6.94,0,0,0-3.12-5.41L3.12,13.21a2.34,2.34,0,0,0-2-.32h0l2-1.2a2.19,2.19,0,0,1,2.16.23L35.68,29.48a6.91,6.91,0,0,1,3.12,5.41V49.73a2.16,2.16,0,0,1-.93,2L35.76,53A2.21,2.21,0,0,0,36.65,51Z"/><path class="cls-5" d="M207.7,86.51a11.53,11.53,0,0,0,5.2,9l18.59,10.73c2.85,1.65,5.19.3,5.19-3V81.78a11.54,11.54,0,0,0-5.19-9L212.9,62.05c-2.86-1.65-5.2-.3-5.2,3Z"/><path class="cls-6" d="M236.68,103.24V81.78a11.54,11.54,0,0,0-5.19-9L212.9,62.05a3.86,3.86,0,0,0-3.32-.52h0l3.14-1.92c.94-.61,2.28-.55,3.75.3l18.59,10.73a11.53,11.53,0,0,1,5.2,9V101.1a3.62,3.62,0,0,1-1.6,3.4l-3.44,2.06h0A3.68,3.68,0,0,0,236.68,103.24Z"/><path class="cls-7" d="M89.25,129.17a11.51,11.51,0,0,0,5.2,9L113,148.9c2.85,1.65,5.19.3,5.19-3V124.43a11.52,11.52,0,0,0-5.19-9L94.45,104.7c-2.86-1.65-5.2-.3-5.2,3Z"/><path class="cls-8" d="M77.52,135.83a11.51,11.51,0,0,0,5.2,9l18.59,10.74c2.85,1.64,5.19.3,5.19-3V131.09a11.54,11.54,0,0,0-5.19-9L82.72,111.36c-2.86-1.65-5.2-.3-5.2,3Z"/><path class="cls-9" d="M106.5,152.56V131.09a11.54,11.54,0,0,0-5.19-9L82.72,111.36a3.9,3.9,0,0,0-3.32-.52h0l3.14-1.92a3.58,3.58,0,0,1,3.75.3L104.88,120a11.53,11.53,0,0,1,5.2,9v21.46a3.61,3.61,0,0,1-1.6,3.4L105,155.87h0A3.68,3.68,0,0,0,106.5,152.56Z"/><path class="cls-7" d="M19.27,123.35a6.92,6.92,0,0,0,3.13,5.41l11.17,6.46c1.72,1,3.13.18,3.13-1.81v-12.9a6.93,6.93,0,0,0-3.13-5.41L22.4,108.65c-1.72-1-3.13-.18-3.13,1.8Z"/><path class="cls-10" d="M12,127.21a6.92,6.92,0,0,0,3.12,5.41l11.17,6.45c1.72,1,3.13.18,3.13-1.8V124.36A6.93,6.93,0,0,0,26.25,119L15.08,112.5c-1.72-1-3.12-.18-3.12,1.8Z"/><path class="cls-11" d="M29.38,137.27V124.36A6.93,6.93,0,0,0,26.25,119L15.08,112.5a2.35,2.35,0,0,0-2-.32h0L15,111a2.16,2.16,0,0,1,2.26.18l11.17,6.45a7,7,0,0,1,3.13,5.41V136a2.16,2.16,0,0,1-1,2l-2.07,1.24h0A2.23,2.23,0,0,0,29.38,137.27Z"/><path class="cls-12" d="M136.75,2.44l43.44,25.08a9.91,9.91,0,0,1,4.47,7.73V56.46c0,2.83-2,4-4.47,2.58l-7.8-4.51V66l-9.68-17.09-26-15a9.89,9.89,0,0,1-4.46-7.72V5C132.29,2.19,134.3,1,136.75,2.44Z"/><path class="cls-13" d="M184.66,56.46V35.25a9.91,9.91,0,0,0-4.47-7.73L136.75,2.44a3.18,3.18,0,0,0-3.07-.34h0l3-1.79a3.1,3.1,0,0,1,3.16.29l43.45,25.08a9.92,9.92,0,0,1,4.46,7.73V54.62a3.06,3.06,0,0,1-1.41,2.93l-2.94,1.77h0A3.15,3.15,0,0,0,184.66,56.46Z"/><polygon class="cls-14" points="172.39 54.53 175.47 56.31 175.47 64.19 172.39 65.91 172.39 54.53"/><path class="cls-15" d="M97.66,29a8.8,8.8,0,0,0,4,6.87l14.18,8.19c2.18,1.25,4,.23,4-2.29V25.38a8.78,8.78,0,0,0-4-6.87l-14.18-8.19c-2.18-1.25-4-.22-4,2.29Z"/></g></g></svg>