<svg id="Computer" xmlns="http://www.w3.org/2000/svg" xmlns:xlink="http://www.w3.org/1999/xlink" viewBox="0 0 256.86 279.86"><defs><style>.cls-1{fill:#eef5f9;}.cls-2{fill:url(#linear-gradient);}.cls-3{fill:#95c4df;}.cls-4{fill:#a9d0e5;}</style><linearGradient id="linear-gradient" x1="2196.69" y1="221.4" x2="2196.69" y2="27.18" gradientTransform="matrix(-1, 0, 0, 1, 2341.92, 0)" gradientUnits="userSpaceOnUse"><stop offset="0" stop-color="#2580d3"/><stop offset="1" stop-color="#0a208f"/></linearGradient></defs><title>Computer</title><path class="cls-1" d="M52.66,30.73c0-2.73,1.93-3.84,4.29-2.48L233.51,130.19a9.5,9.5,0,0,1,4.29,7.43V275.71c0,2.73-1.93,3.84-4.29,2.48L57,176.25a9.5,9.5,0,0,1-4.29-7.43Z"/><polygon class="cls-2" points="52.66 156.7 52.66 32.37 237.8 139.26 237.8 263.59 52.66 156.7"/><path class="cls-3" d="M237.8,275.71V137.62a9.5,9.5,0,0,0-4.29-7.43L57,28.25a3,3,0,0,0-3-.3h0l6-3.39A3,3,0,0,1,63,24.8L239.54,126.74a9.52,9.52,0,0,1,4.29,7.43v138.1a3,3,0,0,1-1.34,2.81l-5.87,3.35h0A3.06,3.06,0,0,0,237.8,275.71Z"/><path class="cls-1" d="M80.26,248.08l32.91-14.8A35.76,35.76,0,0,0,129,217.85l36.78,21.23c-3.16,10.71-11.2,18.31-11.2,18.31s-20.2,15.65-25.52,19.22-11,.54-11,.54L80.24,254.44s-2.11-1-2.59-2.58l-.11-.51C77.3,249.36,80.26,248.08,80.26,248.08Z"/><path class="cls-3" d="M80.24,254.44l37.82,22.71s5.68,3,11-.54,25.52-19.22,25.52-19.22,8-7.6,11.2-18.31l3.17,1.83c-2.12,7.14-6.9,14.07-14.89,19.8C131.32,277,128.9,278.34,128.9,278.34s-3.88,3.41-10.93,0-38-22.51-38-22.51-2.56-1.39-2.56-2.73l.1-2C77.45,253.1,80.24,254.44,80.24,254.44Z"/><path class="cls-4" d="M129,217.85l36.78,21.23a44.49,44.49,0,0,1-8.45,15.28L117,231.09A36.26,36.26,0,0,0,129,217.85Z"/></svg>